<svg xmlns="http://www.w3.org/2000/svg"  shape-rendering="crispEdges" xmlns:xlink="http://www.w3.org/1999/xlink" width="1.77in" height="0.95in" viewBox="4042 3057 177 95">      <style type="text/css">
      path, polyline, polygon { stroke-linejoin: round;}
      path, polyline, polygon, line { stroke-linecap: round;}
      rect, circle, ellipse, polyline, polygon, line, path { shape-rendering: crispEdges;}
      *[layerid="0"] { stroke: #FFFFFF; FILL: #FFFFFF;}
        *[layerid="1"] { stroke: #000000; fill: #000000;}        *[layerid="2"] { stroke: #000000; fill: #000000;}        *[layerid="3"] { stroke: #000000; fill: #000000;}        *[layerid="4"] { stroke: #000000; fill: #000000;}        *[layerid="5"] { stroke: #000000; fill: #000000;}        *[layerid="6"] { stroke: #000000; fill: #000000;}        *[layerid="7"] { stroke: #000000; fill: #000000;}        *[layerid="8"] { stroke: #000000; fill: #000000;}        *[layerid="9"] { stroke: #000000; fill: #000000;}        *[layerid="10"] { stroke: #000000; fill: #000000;}        *[layerid="11"] { stroke: #000000; fill: #000000;}        *[layerid="12"] { stroke: #000000; fill: #000000;}        *[layerid="13"] { stroke: #000000; fill: #000000;}        *[layerid="14"] { stroke: #000000; fill: #000000;}        *[layerid="15"] { stroke: #000000; fill: #000000;}        *[layerid="21"] { stroke: #000000; fill: #000000;}        *[layerid="22"] { stroke: #000000; fill: #000000;}        *[layerid="23"] { stroke: #000000; fill: #000000;}        *[layerid="24"] { stroke: #000000; fill: #000000;}          *[fill="none"] { fill: none; }
      *[stroke="none"] { stroke: none;}
      g[c_partid="part_pad"] > * + circle { fill: #FFFFFF;}
      g[c_partid="part_via"] > * + circle { fill: #FFFFFF;}
	g[c_partid="part_pad"] > polyline:nth-child(2) {stroke: #FFFFFF;}
	  </style><g >   <rect x="4042" y="3057" width="177" height="95" fill="#FFFFFF" stroke="none"/> <polyline points="4162 3093.5 4160 3105 4149 3116 4129 3116 4125 3120 4116 3121" stroke-width="1.5"   stroke-linecap="round" fill="none" layerid="2"/> <polyline points="4193.8 3094.2 4189.8 3094.2 4159 3125 4159 3130 4153 3136 4066 3136 4062 3132 4062 3119 4061 3118" stroke-width="2"   stroke-linecap="round" fill="none" layerid="2"/> <polyline points="4193.8 3113.8 4193.2 3113.8 4177 3130 4167.8 3130" stroke-width="1.5"   stroke-linecap="round" fill="none" layerid="2"/> <polyline points="4207 3140 4207 3069 4054 3069 4054 3141 4207 3141 4207 3139 4207 3127 4193.8 3113.8" stroke-width="3"   stroke-linecap="round" fill="none" layerid="2"/> <polyline points="4116 3111 4116 3114 4112 3118 4111 3119 4111 3127 4114 3130 4148.2 3130" stroke-width="1.5"   stroke-linecap="round" fill="none" layerid="2"/> <polyline points="4094.5 3085 4094.5 3068.5 4094 3068" stroke-width="3"   stroke-linecap="round" fill="none" layerid="2"/> <polyline points="4146 3101 4142 3101 4132 3091 4132 3080 4128 3076 4103 3076" stroke-width="1.5"   stroke-linecap="round" fill="none" layerid="2"/> <polyline points="4086 3076 4086 3085" stroke-width="1.5"   stroke-linecap="round" fill="none" layerid="2"/> <polyline points="4094.5 3085 4095 3085 4101 3091 4101 3118.5 4094.5 3125" stroke-width="3"   stroke-linecap="round" fill="none" layerid="2"/> <polyline points="4094.5 3106 4101 3106" stroke-width="3"   stroke-linecap="round" fill="none" layerid="2"/> <polyline points="4061 3108 4068 3115 4068 3122 4071 3125 4077.5 3125" stroke-width="3"   stroke-linecap="round" fill="none" layerid="2"/> <polyline points="4061 3098 4061 3099 4068 3106 4077.5 3106" stroke-width="3"   stroke-linecap="round" fill="none" layerid="2"/> <polyline points="4061 3088 4064 3088 4067 3085 4077.5 3085" stroke-width="3"   stroke-linecap="round" fill="none" layerid="2"/> <polyline points="4116 3101 4116 3102 4107 3111 4107 3126 4101 3132 4089 3132 4086 3129 4086 3125" stroke-width="1.5"   stroke-linecap="round" fill="none" layerid="2"/> <polyline points="4116 3091 4114 3091 4108 3097" stroke-width="1.5"   stroke-linecap="round" fill="none" layerid="2"/> <polyline points="4086 3106 4086 3097" stroke-width="1.5"   stroke-linecap="round" fill="none" layerid="2"/> <polyline points="4157 3086 4151 3086 4146 3091" stroke-width="3"   stroke-linecap="round" fill="none" layerid="2"/> <polyline points="4157 3086 4157 3069" stroke-width="3"   stroke-linecap="round" fill="none" layerid="2"/> <polyline points="4193.8 3094.2 4187.2 3094.2 4179 3086 4167 3086" stroke-width="3"   stroke-linecap="round" fill="none" layerid="2"/> <polyline points="4052 3070 4052 3067 4209 3067 4209 3142 4052 3142 4052 3070" stroke-width="1"   stroke-linecap="round" fill="none" layerid="10"/>      <g c_partid="part_pad" c_type="pinpart" layerid="11" c_etype="pinpart">  <ellipse  xmlns="http://www.w3.org/2000/svg" cx="4167.8" cy="3130" rx="2.5" ry="2.5" stroke-width="0"  />  <circle cx="4167.8" cy="3130" r="1.57" stroke-width="0" /></g>      <g c_partid="part_pad" c_type="pinpart" layerid="11" c_etype="pinpart">  <ellipse  xmlns="http://www.w3.org/2000/svg" cx="4148.2" cy="3130" rx="2.5" ry="2.5" stroke-width="0"  />  <circle cx="4148.2" cy="3130" r="1.57" stroke-width="0" /></g>      <g c_partid="part_pad" c_type="pinpart" layerid="11" c_etype="pinpart">  <polygon  points="4143.25 3123.75 4143.25 3118.25 4148.75 3118.25 4148.75 3123.75" stroke-linecap="round" stroke-width="0" />  <circle cx="4146" cy="3121" r="1.4" stroke-width="0" /></g>      <g c_partid="part_pad" c_type="pinpart" layerid="11" c_etype="pinpart">  <ellipse  xmlns="http://www.w3.org/2000/svg" cx="4146" cy="3111" rx="2.75" ry="2.75" stroke-width="0"  />  <circle cx="4146" cy="3111" r="1.4" stroke-width="0" /></g>      <g c_partid="part_pad" c_type="pinpart" layerid="11" c_etype="pinpart">  <ellipse  xmlns="http://www.w3.org/2000/svg" cx="4146" cy="3101" rx="2.75" ry="2.75" stroke-width="0"  />  <circle cx="4146" cy="3101" r="1.4" stroke-width="0" /></g>      <g c_partid="part_pad" c_type="pinpart" layerid="11" c_etype="pinpart">  <ellipse  xmlns="http://www.w3.org/2000/svg" cx="4146" cy="3091" rx="2.75" ry="2.75" stroke-width="0"  />  <circle cx="4146" cy="3091" r="1.4" stroke-width="0" /></g>      <g c_partid="part_pad" c_type="pinpart" layerid="11" c_etype="pinpart">  <ellipse  xmlns="http://www.w3.org/2000/svg" cx="4116" cy="3091" rx="2.75" ry="2.75" stroke-width="0"  />  <circle cx="4116" cy="3091" r="1.4" stroke-width="0" /></g>      <g c_partid="part_pad" c_type="pinpart" layerid="11" c_etype="pinpart">  <ellipse  xmlns="http://www.w3.org/2000/svg" cx="4116" cy="3101" rx="2.75" ry="2.75" stroke-width="0"  />  <circle cx="4116" cy="3101" r="1.4" stroke-width="0" /></g>      <g c_partid="part_pad" c_type="pinpart" layerid="11" c_etype="pinpart">  <ellipse  xmlns="http://www.w3.org/2000/svg" cx="4116" cy="3111" rx="2.75" ry="2.75" stroke-width="0"  />  <circle cx="4116" cy="3111" r="1.4" stroke-width="0" /></g>      <g c_partid="part_pad" c_type="pinpart" layerid="11" c_etype="pinpart">  <ellipse  xmlns="http://www.w3.org/2000/svg" cx="4116" cy="3121" rx="2.75" ry="2.75" stroke-width="0"  />  <circle cx="4116" cy="3121" r="1.4" stroke-width="0" /></g>      <g c_partid="part_pad" c_type="pinpart" layerid="11" c_etype="pinpart">  <polygon  points="4097.8 3109.3 4091.2 3109.3 4091.2 3102.7 4097.8 3102.7" stroke-linecap="round" stroke-width="0" />  <circle cx="4094.5" cy="3106" r="1.6" stroke-width="0" /></g>      <g c_partid="part_pad" c_type="pinpart" layerid="11" c_etype="pinpart">  <polygon  points="4089.3 3109.3 4082.7 3109.3 4082.7 3102.7 4089.3 3102.7" stroke-linecap="round" stroke-width="0" />  <circle cx="4086" cy="3106" r="1.6" stroke-width="0" /></g>      <g c_partid="part_pad" c_type="pinpart" layerid="11" c_etype="pinpart">  <polygon  points="4080.8 3109.3 4074.2 3109.3 4074.2 3102.7 4080.8 3102.7" stroke-linecap="round" stroke-width="0" />  <circle cx="4077.5" cy="3106" r="1.6" stroke-width="0" /></g>      <g c_partid="part_pad" c_type="pinpart" layerid="11" c_etype="pinpart">  <polygon  points="4097.8 3128.3 4091.2 3128.3 4091.2 3121.7 4097.8 3121.7" stroke-linecap="round" stroke-width="0" />  <circle cx="4094.5" cy="3125" r="1.6" stroke-width="0" /></g>      <g c_partid="part_pad" c_type="pinpart" layerid="11" c_etype="pinpart">  <polygon  points="4089.3 3128.3 4082.7 3128.3 4082.7 3121.7 4089.3 3121.7" stroke-linecap="round" stroke-width="0" />  <circle cx="4086" cy="3125" r="1.6" stroke-width="0" /></g>      <g c_partid="part_pad" c_type="pinpart" layerid="11" c_etype="pinpart">  <polygon  points="4080.8 3128.3 4074.2 3128.3 4074.2 3121.7 4080.8 3121.7" stroke-linecap="round" stroke-width="0" />  <circle cx="4077.5" cy="3125" r="1.6" stroke-width="0" /></g>      <g c_partid="part_pad" c_type="pinpart" layerid="11" c_etype="pinpart">  <polygon  points="4097.8 3088.3 4091.2 3088.3 4091.2 3081.7 4097.8 3081.7" stroke-linecap="round" stroke-width="0" />  <circle cx="4094.5" cy="3085" r="1.6" stroke-width="0" /></g>      <g c_partid="part_pad" c_type="pinpart" layerid="11" c_etype="pinpart">  <polygon  points="4089.3 3088.3 4082.7 3088.3 4082.7 3081.7 4089.3 3081.7" stroke-linecap="round" stroke-width="0" />  <circle cx="4086" cy="3085" r="1.6" stroke-width="0" /></g>      <g c_partid="part_pad" c_type="pinpart" layerid="11" c_etype="pinpart">  <polygon  points="4080.8 3088.3 4074.2 3088.3 4074.2 3081.7 4080.8 3081.7" stroke-linecap="round" stroke-width="0" />  <circle cx="4077.5" cy="3085" r="1.6" stroke-width="0" /></g>      <g c_partid="part_pad" c_type="pinpart" layerid="11" c_etype="pinpart">  <polygon  points="4057.785 3121.215 4057.785 3114.785 4064.215 3114.785 4064.215 3121.215" stroke-linecap="round" stroke-width="0" />  <circle cx="4061" cy="3118" r="2.01" stroke-width="0" /></g>      <g c_partid="part_pad" c_type="pinpart" layerid="11" c_etype="pinpart">  <ellipse  xmlns="http://www.w3.org/2000/svg" cx="4061" cy="3108" rx="3.215" ry="3.215" stroke-width="0"  />  <circle cx="4061" cy="3108" r="2.01" stroke-width="0" /></g>      <g c_partid="part_pad" c_type="pinpart" layerid="11" c_etype="pinpart">  <ellipse  xmlns="http://www.w3.org/2000/svg" cx="4061" cy="3098" rx="3.215" ry="3.215" stroke-width="0"  />  <circle cx="4061" cy="3098" r="2.01" stroke-width="0" /></g>      <g c_partid="part_pad" c_type="pinpart" layerid="11" c_etype="pinpart">  <ellipse  xmlns="http://www.w3.org/2000/svg" cx="4061" cy="3088" rx="3.215" ry="3.215" stroke-width="0"  />  <circle cx="4061" cy="3088" r="2.01" stroke-width="0" /></g>      <g c_partid="part_pad" c_type="pinpart" layerid="11" c_etype="pinpart">  <polygon  points="4202.235 3098.885 4185.365 3098.885 4185.365 3089.515 4202.235 3089.515" stroke-linecap="round" stroke-width="0" />  <circle cx="4193.8" cy="3094.2" r="2.76" stroke-width="0" /></g>      <g c_partid="part_pad" c_type="pinpart" layerid="11" c_etype="pinpart">  <polygon  points="4202.235 3118.485 4185.365 3118.485 4185.365 3109.115 4202.235 3109.115" stroke-linecap="round" stroke-width="0" />  <circle cx="4193.8" cy="3113.8" r="2.76" stroke-width="0" /></g>      <g c_partid="part_pad" c_type="pinpart" layerid="11" c_etype="pinpart">  <polygon  points="4170.3 3089.3 4163.7 3089.3 4163.7 3082.7 4170.3 3082.7" stroke-linecap="round" stroke-width="0" />  <circle cx="4167" cy="3086" r="1.6" stroke-width="0" /></g>      <g c_partid="part_pad" c_type="pinpart" layerid="11" c_etype="pinpart">  <polygon  points="4165.3 3096.8 4158.7 3096.8 4158.7 3090.2 4165.3 3090.2" stroke-linecap="round" stroke-width="0" />  <circle cx="4162" cy="3093.5" r="1.6" stroke-width="0" /></g>      <g c_partid="part_pad" c_type="pinpart" layerid="11" c_etype="pinpart">  <polygon  points="4160.3 3089.3 4153.7 3089.3 4153.7 3082.7 4160.3 3082.7" stroke-linecap="round" stroke-width="0" />  <circle cx="4157" cy="3086" r="1.6" stroke-width="0" /></g><path d="M 4200.32 3080.63 L 4200.32 3087.17 M 4203.57 3083.9 L 4197.02 3083.9" fill="none" layerid="2"  stroke-linecap="round" stroke-width="0.5" /><g id="gge23" layerid="2" c_partid="part_svg" c_shapetype="group"><path d="M 4193 3123 C 4193 3123.1 4192.9 3123.5 4192.8 3124 C 4192.7 3124.5 4192.6 3125.1 4192.6 3125.1 C 4192.6 3125.3 4192.5 3125.4 4191.8 3125.6 C 4191 3125.9 4191.2 3125.9 4190.2 3125.3 C 4189.9 3125 4189.5 3124.8 4189.5 3124.7 L 4189.3 3124.6 L 4188.6 3125.4 C 4188.2 3125.7 4187.8 3126 4187.8 3126.1 C 4187.8 3126.2 4187.9 3126.4 4188.3 3127 C 4189 3128 4189 3127.8 4188.6 3128.8 C 4188.3 3129.4 4188.3 3129.5 4188.2 3129.5 C 4188.1 3129.5 4187.6 3129.6 4187.1 3129.7 C 4186.6 3129.8 4186.3 3129.9 4186.2 3130 C 4186.2 3130.1 4186.2 3132 4186.2 3132.1 C 4186.3 3132.2 4186.6 3132.3 4187.2 3132.4 C 4187.7 3132.5 4188.2 3132.6 4188.2 3132.6 C 4188.3 3132.6 4188.3 3132.7 4188.4 3132.8 C 4188.4 3133 4188.6 3133.4 4188.7 3133.7 L 4188.9 3134.3 L 4188.7 3134.5 C 4188.6 3134.7 4188.4 3135 4188.2 3135.2 C 4188.1 3135.4 4187.9 3135.7 4187.9 3135.8 L 4187.7 3136.1 L 4188.5 3136.8 C 4188.9 3137.3 4189.3 3137.6 4189.3 3137.6 C 4189.3 3137.6 4189.7 3137.4 4190.2 3137 L 4191 3136.4 L 4191.4 3136.7 C 4191.7 3136.9 4191.8 3136.9 4191.8 3136.8 C 4192 3136.6 4193.3 3133.2 4193.3 3133.2 C 4193.2 3133.1 4193.1 3133 4192.9 3132.8 C 4192.5 3132.6 4192.3 3132.3 4192.1 3131.9 C 4191.6 3130.7 4192.3 3129.2 4193.6 3129 C 4194.4 3128.7 4195.3 3129.1 4195.8 3129.7 C 4196.1 3130.2 4196.2 3130.6 4196.2 3131.2 C 4196.2 3131.9 4195.9 3132.5 4195.2 3132.9 C 4195 3133 4194.9 3133.2 4194.9 3133.2 C 4194.9 3133.2 4195 3133.5 4195.1 3133.7 C 4195.1 3133.9 4195.4 3134.5 4195.7 3135.2 C 4195.9 3135.9 4196.2 3136.4 4196.2 3136.6 C 4196.3 3136.7 4196.4 3136.9 4196.4 3136.9 C 4196.4 3136.9 4196.6 3136.8 4196.8 3136.6 L 4197.2 3136.4 L 4198 3137 C 4198.4 3137.4 4198.8 3137.6 4198.9 3137.6 C 4199 3137.6 4200.4 3136.1 4200.4 3136 C 4200.4 3136 4200.1 3135.6 4199.9 3135.2 C 4199.6 3134.7 4199.4 3134.4 4199.3 3134.4 C 4199.3 3134.3 4199.3 3134.1 4199.6 3133.4 C 4199.7 3133 4199.9 3132.6 4199.9 3132.6 C 4199.9 3132.6 4200.4 3132.5 4200.8 3132.4 C 4201.3 3132.3 4201.8 3132.2 4201.8 3132.2 C 4201.9 3132.2 4201.9 3132.1 4201.9 3131 C 4201.9 3129.9 4201.9 3129.9 4201.8 3129.9 C 4201.7 3129.9 4201.3 3129.8 4200.8 3129.7 C 4200.3 3129.6 4199.9 3129.5 4199.9 3129.5 C 4199.9 3129.5 4199.7 3129.1 4199.5 3128.7 L 4199.2 3127.9 L 4199.8 3127.2 C 4200.1 3126.7 4200.4 3126.2 4200.4 3126.1 C 4200.4 3126 4199 3124.6 4198.8 3124.6 C 4198.8 3124.6 4198.5 3124.9 4198.2 3125.1 C 4197.8 3125.4 4197.5 3125.6 4197.3 3125.7 L 4197 3125.9 L 4196.8 3125.7 C 4196.3 3125.6 4195.7 3125.3 4195.6 3125.3 C 4195.6 3125.3 4195.6 3125.1 4195.4 3123.9 C 4195.3 3123.5 4195.2 3123.1 4195.2 3123.1 C 4195.1 3123 4194.9 3123 4194.1 3123 C 4193.5 3123 4193 3123 4193 3123" id="gge24" stroke="none"/></g><path d="M 4198.86 3074.45 L 4198.86 3078.26 M 4198.86 3076.08 L 4198.59 3075.26 L 4198.04 3074.72 L 4197.5 3074.45 L 4196.68 3074.45 M 4194.88 3076.08 L 4191.61 3076.08 L 4191.61 3075.54 L 4191.88 3074.99 L 4192.15 3074.72 L 4192.7 3074.45 L 4193.51 3074.45 L 4194.06 3074.72 L 4194.61 3075.26 L 4194.88 3076.08 L 4194.88 3076.63 L 4194.61 3077.45 L 4194.06 3077.99 L 4193.51 3078.26 L 4192.7 3078.26 L 4192.15 3077.99 L 4191.61 3077.45 M 4189.81 3074.45 L 4188.17 3078.26 M 4186.53 3074.45 L 4188.17 3078.26 M 4184.46 3076.9 L 4184.73 3077.17 L 4184.46 3077.45 L 4184.19 3077.17 L 4184.46 3076.9 M 4179.66 3072.54 L 4182.39 3076.36 L 4178.3 3076.36 M 4179.66 3072.54 L 4179.66 3078.26" fill="none" layerid="2"  stroke-linecap="round" stroke-width="0.5" />      <g c_partid="part_via" c_type="pinpart" layerid="11"  c_etype="pinpart">
  <circle  xmlns="http://www.w3.org/2000/svg" cx="4103" cy="3076" r="1.5" stroke-width="0" stroke="none" />  <circle cx="4103" cy="3076" r="0.6" stroke-width="0" stroke="none"/>
  </g>      <g c_partid="part_via" c_type="pinpart" layerid="11"  c_etype="pinpart">
  <circle  xmlns="http://www.w3.org/2000/svg" cx="4086" cy="3076" r="1.5" stroke-width="0" stroke="none" />  <circle cx="4086" cy="3076" r="0.6" stroke-width="0" stroke="none"/>
  </g>      <g c_partid="part_via" c_type="pinpart" layerid="11"  c_etype="pinpart">
  <circle  xmlns="http://www.w3.org/2000/svg" cx="4086" cy="3097" r="1.5" stroke-width="0" stroke="none" />  <circle cx="4086" cy="3097" r="0.6" stroke-width="0" stroke="none"/>
  </g>      <g c_partid="part_via" c_type="pinpart" layerid="11"  c_etype="pinpart">
  <circle  xmlns="http://www.w3.org/2000/svg" cx="4108" cy="3097" r="1.5" stroke-width="0" stroke="none" />  <circle cx="4108" cy="3097" r="0.6" stroke-width="0" stroke="none"/>
  </g></g></svg>