<svg xmlns="http://www.w3.org/2000/svg"  shape-rendering="crispEdges" xmlns:xlink="http://www.w3.org/1999/xlink" width="2.808in" height="1.438in" viewBox="4010.1 3039.6 280.8 143.8">      <style type="text/css">
      path, polyline, polygon { stroke-linejoin: round;}
      path, polyline, polygon, line { stroke-linecap: round;}
      rect, circle, ellipse, polyline, polygon, line, path { shape-rendering: crispEdges;}
      *[layerid="0"] { stroke: #FFFFFF; FILL: #FFFFFF;}
        *[layerid="1"] { stroke: #000000; fill: #000000;}        *[layerid="2"] { stroke: #000000; fill: #000000;}        *[layerid="3"] { stroke: #000000; fill: #000000;}        *[layerid="4"] { stroke: #000000; fill: #000000;}        *[layerid="5"] { stroke: #000000; fill: #000000;}        *[layerid="6"] { stroke: #000000; fill: #000000;}        *[layerid="7"] { stroke: #000000; fill: #000000;}        *[layerid="8"] { stroke: #000000; fill: #000000;}        *[layerid="9"] { stroke: #000000; fill: #000000;}        *[layerid="10"] { stroke: #000000; fill: #000000;}        *[layerid="11"] { stroke: #000000; fill: #000000;}        *[layerid="12"] { stroke: #000000; fill: #000000;}        *[layerid="13"] { stroke: #000000; fill: #000000;}        *[layerid="14"] { stroke: #000000; fill: #000000;}        *[layerid="15"] { stroke: #000000; fill: #000000;}        *[layerid="21"] { stroke: #000000; fill: #000000;}        *[layerid="22"] { stroke: #000000; fill: #000000;}        *[layerid="23"] { stroke: #000000; fill: #000000;}        *[layerid="24"] { stroke: #000000; fill: #000000;}          *[fill="none"] { fill: none; }
      *[stroke="none"] { stroke: none;}
      g[c_partid="part_pad"] > * + circle { fill: #FFFFFF;}
      g[c_partid="part_via"] > * + circle { fill: #FFFFFF;}
	g[c_partid="part_pad"] > polyline:nth-child(2) {stroke: #FFFFFF;}
	  </style><g >   <rect x="4010.1" y="3039.6" width="280.8" height="143.8" fill="#FFFFFF" stroke="none"/> <polyline points="4052 3070 4052 3067 4209 3067 4209 3142 4052 3142 4052 3070" stroke-width="1"   stroke-linecap="round" fill="none" layerid="10"/><path d="M 4154.89 3130.52 L 4154.48 3130.11 L 4153.87 3129.91 L 4153.05 3129.91 L 4152.44 3130.11 L 4152.03 3130.52 L 4152.03 3130.93 L 4152.23 3131.34 L 4152.44 3131.54 L 4152.85 3131.75 L 4154.08 3132.16 L 4154.48 3132.36 L 4154.69 3132.56 L 4154.89 3132.97 L 4154.89 3133.59 L 4154.48 3134 L 4153.87 3134.2 L 4153.05 3134.2 L 4152.44 3134 L 4152.03 3133.59 M 4156.24 3129.91 L 4157.27 3134.2 M 4158.29 3129.91 L 4157.27 3134.2 M 4158.29 3129.91 L 4159.31 3134.2 M 4160.33 3129.91 L 4159.31 3134.2 M 4161.68 3130.72 L 4162.09 3130.52 L 4162.71 3129.91 L 4162.71 3134.2" fill="none" layerid="3"  stroke-linecap="round" stroke-width="0.7" /> <polyline points="4169.8 3127.6 4169.8 3125.5 4146.2 3125.5 4146.2 3127.6" stroke-width="1"   stroke-linecap="round" fill="none" layerid="3"/> <polyline points="4169.8 3139.3 4163.9 3139.3 4152.1 3139.3 4146.2 3139.3" stroke-width="1"   stroke-linecap="round" fill="none" layerid="3"/> <polyline points="4163.9 3139.3 4163.9 3143.8 4152.1 3143.8 4152.1 3139.3" stroke-width="1"   stroke-linecap="round" fill="none" layerid="3"/> <polyline points="4169.8 3139.1 4169.8 3132.4" stroke-width="1"   stroke-linecap="round" fill="none" layerid="3"/> <polyline points="4146.2 3139.1 4146.2 3132.4" stroke-width="1"   stroke-linecap="round" fill="none" layerid="3"/>      <g c_partid="part_pad" c_type="pinpart" layerid="11" c_etype="pinpart">  <ellipse  xmlns="http://www.w3.org/2000/svg" cx="4167.8" cy="3130" rx="2.5" ry="2.5" stroke-width="0"  />  <circle cx="4167.8" cy="3130" r="1.57" stroke-width="0" /></g>      <g c_partid="part_pad" c_type="pinpart" layerid="11" c_etype="pinpart">  <ellipse  xmlns="http://www.w3.org/2000/svg" cx="4148.2" cy="3130" rx="2.5" ry="2.5" stroke-width="0"  />  <circle cx="4148.2" cy="3130" r="1.57" stroke-width="0" /></g><path d="M 4123.96 3116.06 L 4128.23 3117.7 M 4123.96 3116.06 L 4128.23 3114.43 M 4126.8 3117.09 L 4126.8 3115.04 M 4123.96 3112.46 L 4127.42 3112.46 L 4128.05 3112.26 L 4128.23 3111.85 L 4128.23 3111.44 M 4125.38 3113.08 L 4125.38 3111.65 M 4123.96 3109.48 L 4127.42 3109.48 L 4128.05 3109.27 L 4128.23 3108.86 L 4128.23 3108.45 M 4125.38 3110.09 L 4125.38 3108.66 M 4123.96 3107.1 L 4124.14 3106.9 L 4123.96 3106.7 L 4123.73 3106.9 L 4123.96 3107.1 M 4125.38 3106.9 L 4128.23 3106.9 M 4125.38 3105.35 L 4128.23 3105.35 M 4126.21 3105.35 L 4125.59 3104.73 L 4125.38 3104.32 L 4125.38 3103.71 L 4125.59 3103.3 L 4126.21 3103.1 L 4128.23 3103.1 M 4125.38 3101.54 L 4128.23 3100.31 M 4125.38 3099.09 L 4128.23 3100.31 L 4129.05 3100.72 L 4129.47 3101.13 L 4129.67 3101.54 L 4129.67 3101.75 M 4123.96 3096.71 L 4124.14 3097.33 L 4124.55 3097.53 L 4124.97 3097.53 L 4125.38 3097.33 L 4125.59 3096.92 L 4125.8 3096.1 L 4125.98 3095.49 L 4126.39 3095.08 L 4126.8 3094.87 L 4127.42 3094.87 L 4127.84 3095.08 L 4128.05 3095.28 L 4128.23 3095.9 L 4128.23 3096.71 L 4128.05 3097.33 L 4127.84 3097.53 L 4127.42 3097.74 L 4126.8 3097.74 L 4126.39 3097.53 L 4125.98 3097.12 L 4125.8 3096.51 L 4125.59 3095.69 L 4125.38 3095.28 L 4124.97 3095.08 L 4124.55 3095.08 L 4124.14 3095.28 L 4123.96 3095.9 L 4123.96 3096.71 M 4123.96 3091.07 L 4123.96 3093.11 L 4125.8 3093.32 L 4125.59 3093.11 L 4125.38 3092.5 L 4125.38 3091.89 L 4125.59 3091.27 L 4125.98 3090.86 L 4126.59 3090.66 L 4127.01 3090.66 L 4127.63 3090.86 L 4128.05 3091.27 L 4128.23 3091.89 L 4128.23 3092.5 L 4128.05 3093.11 L 4127.84 3093.32 L 4127.42 3093.52" fill="none" layerid="3"  stroke-linecap="round" stroke-width="0.7" /> <polyline points="4136 3125 4136 3085 4116 3085 4116 3125 4136 3125" stroke-width="0.9"   stroke-linecap="round" fill="none" layerid="3"/>      <circle cx="4132" cy="3120" r="1" layerid="3" stroke-width="1" fill="none" />      <g c_partid="part_pad" c_type="pinpart" layerid="11" c_etype="pinpart">  <polygon  points="4138.25 3122.75 4138.25 3117.25 4143.75 3117.25 4143.75 3122.75" stroke-linecap="round" stroke-width="0" />  <circle cx="4141" cy="3120" r="1.4" stroke-width="0" /></g>      <g c_partid="part_pad" c_type="pinpart" layerid="11" c_etype="pinpart">  <ellipse  xmlns="http://www.w3.org/2000/svg" cx="4141" cy="3110" rx="2.75" ry="2.75" stroke-width="0"  />  <circle cx="4141" cy="3110" r="1.4" stroke-width="0" /></g>      <g c_partid="part_pad" c_type="pinpart" layerid="11" c_etype="pinpart">  <ellipse  xmlns="http://www.w3.org/2000/svg" cx="4141" cy="3100" rx="2.75" ry="2.75" stroke-width="0"  />  <circle cx="4141" cy="3100" r="1.4" stroke-width="0" /></g>      <g c_partid="part_pad" c_type="pinpart" layerid="11" c_etype="pinpart">  <ellipse  xmlns="http://www.w3.org/2000/svg" cx="4141" cy="3090" rx="2.75" ry="2.75" stroke-width="0"  />  <circle cx="4141" cy="3090" r="1.4" stroke-width="0" /></g>      <g c_partid="part_pad" c_type="pinpart" layerid="11" c_etype="pinpart">  <ellipse  xmlns="http://www.w3.org/2000/svg" cx="4111" cy="3090" rx="2.75" ry="2.75" stroke-width="0"  />  <circle cx="4111" cy="3090" r="1.4" stroke-width="0" /></g>      <g c_partid="part_pad" c_type="pinpart" layerid="11" c_etype="pinpart">  <ellipse  xmlns="http://www.w3.org/2000/svg" cx="4111" cy="3100" rx="2.75" ry="2.75" stroke-width="0"  />  <circle cx="4111" cy="3100" r="1.4" stroke-width="0" /></g>      <g c_partid="part_pad" c_type="pinpart" layerid="11" c_etype="pinpart">  <ellipse  xmlns="http://www.w3.org/2000/svg" cx="4111" cy="3110" rx="2.75" ry="2.75" stroke-width="0"  />  <circle cx="4111" cy="3110" r="1.4" stroke-width="0" /></g>      <g c_partid="part_pad" c_type="pinpart" layerid="11" c_etype="pinpart">  <ellipse  xmlns="http://www.w3.org/2000/svg" cx="4111" cy="3120" rx="2.75" ry="2.75" stroke-width="0"  />  <circle cx="4111" cy="3120" r="1.4" stroke-width="0" /></g><path d="M 4099.75 3116.73 L 4099.95 3117.14 L 4100.36 3117.55 L 4100.77 3117.76 L 4101.38 3117.96 L 4102.41 3117.96 L 4103.02 3117.76 L 4103.43 3117.55 L 4103.84 3117.14 L 4104.04 3116.73 L 4104.04 3115.91 L 4103.84 3115.51 L 4103.43 3115.1 L 4103.02 3114.89 L 4102.41 3114.69 L 4101.38 3114.69 L 4100.77 3114.89 L 4100.36 3115.1 L 4099.95 3115.51 L 4099.75 3115.91 L 4099.75 3116.73 M 4103.22 3116.12 L 4104.45 3114.89 M 4100.57 3113.34 L 4100.36 3112.93 L 4099.75 3112.31 L 4104.04 3112.31 M 4102.2 3110.96 L 4102.2 3107.28 M 4099.75 3105.93 L 4104.04 3105.93 M 4099.75 3105.93 L 4099.75 3104.09 L 4099.95 3103.48 L 4100.16 3103.27 L 4100.57 3103.07 L 4100.97 3103.07 L 4101.38 3103.27 L 4101.59 3103.48 L 4101.79 3104.09 L 4101.79 3105.93 M 4101.79 3104.5 L 4104.04 3103.07" fill="none" layerid="3"  stroke-linecap="round" stroke-width="0.7" /> <polyline points="4094.2 3102.5 4077.8 3102.5" stroke-width="1"   stroke-linecap="round" fill="none" layerid="3"/> <polyline points="4096.5 3108 4094.9 3108" stroke-width="1"   stroke-linecap="round" fill="none" layerid="3"/> <polyline points="4077.1 3108 4075.5 3108" stroke-width="1"   stroke-linecap="round" fill="none" layerid="3"/>  <path d="M 4094.25 3102.5 A 10.5 10.5 0 0 1 4089.1 3119.03" layerid="3" fill="none"  stroke-linecap="round" stroke-width="1"/>  <path d="M 4082.9 3119.03 A 10.5 10.5 0 0 1 4077.75 3102.5" layerid="3" fill="none"  stroke-linecap="round" stroke-width="1"/>      <g c_partid="part_pad" c_type="pinpart" layerid="11" c_etype="pinpart">  <polygon  points="4097.8 3112.3 4091.2 3112.3 4091.2 3105.7 4097.8 3105.7" stroke-linecap="round" stroke-width="0" />  <circle cx="4094.5" cy="3109" r="1.6" stroke-width="0" /></g>      <g c_partid="part_pad" c_type="pinpart" layerid="11" c_etype="pinpart">  <polygon  points="4089.3 3112.3 4082.7 3112.3 4082.7 3105.7 4089.3 3105.7" stroke-linecap="round" stroke-width="0" />  <circle cx="4086" cy="3109" r="1.6" stroke-width="0" /></g>      <g c_partid="part_pad" c_type="pinpart" layerid="11" c_etype="pinpart">  <polygon  points="4080.8 3112.3 4074.2 3112.3 4074.2 3105.7 4080.8 3105.7" stroke-linecap="round" stroke-width="0" />  <circle cx="4077.5" cy="3109" r="1.6" stroke-width="0" /></g><path d="M 4099.76 3136.26 L 4099.96 3136.67 L 4100.37 3137.08 L 4100.78 3137.29 L 4101.39 3137.49 L 4102.42 3137.49 L 4103.03 3137.29 L 4103.44 3137.08 L 4103.85 3136.67 L 4104.05 3136.26 L 4104.05 3135.44 L 4103.85 3135.04 L 4103.44 3134.63 L 4103.03 3134.42 L 4102.42 3134.22 L 4101.39 3134.22 L 4100.78 3134.42 L 4100.37 3134.63 L 4099.96 3135.04 L 4099.76 3135.44 L 4099.76 3136.26 M 4103.23 3135.65 L 4104.46 3134.42 M 4100.78 3132.66 L 4100.58 3132.66 L 4100.17 3132.46 L 4099.96 3132.25 L 4099.76 3131.84 L 4099.76 3131.03 L 4099.96 3130.62 L 4100.17 3130.41 L 4100.58 3130.21 L 4100.98 3130.21 L 4101.39 3130.41 L 4102.01 3130.82 L 4104.05 3132.87 L 4104.05 3130 M 4102.21 3128.65 L 4102.21 3124.97 M 4100.78 3120.55 L 4100.37 3120.76 L 4099.96 3121.17 L 4099.76 3121.58 L 4099.76 3122.39 L 4099.96 3122.8 L 4100.37 3123.21 L 4100.78 3123.42 L 4101.39 3123.62 L 4102.42 3123.62 L 4103.03 3123.42 L 4103.44 3123.21 L 4103.85 3122.8 L 4104.05 3122.39 L 4104.05 3121.58 L 4103.85 3121.17 L 4103.44 3120.76 L 4103.03 3120.55 L 4102.42 3120.55 M 4102.42 3121.58 L 4102.42 3120.55" fill="none" layerid="3"  stroke-linecap="round" stroke-width="0.7" /> <polyline points="4095.2 3121.5 4078.8 3121.5" stroke-width="1"   stroke-linecap="round" fill="none" layerid="3"/> <polyline points="4097.5 3127 4095.9 3127" stroke-width="1"   stroke-linecap="round" fill="none" layerid="3"/> <polyline points="4078.1 3127 4076.5 3127" stroke-width="1"   stroke-linecap="round" fill="none" layerid="3"/>  <path d="M 4095.25 3121.5 A 10.5 10.5 0 0 1 4090.1 3138.03" layerid="3" fill="none"  stroke-linecap="round" stroke-width="1"/>  <path d="M 4083.9 3138.03 A 10.5 10.5 0 0 1 4078.75 3121.5" layerid="3" fill="none"  stroke-linecap="round" stroke-width="1"/>      <g c_partid="part_pad" c_type="pinpart" layerid="11" c_etype="pinpart">  <polygon  points="4098.8 3131.3 4092.2 3131.3 4092.2 3124.7 4098.8 3124.7" stroke-linecap="round" stroke-width="0" />  <circle cx="4095.5" cy="3128" r="1.6" stroke-width="0" /></g>      <g c_partid="part_pad" c_type="pinpart" layerid="11" c_etype="pinpart">  <polygon  points="4090.3 3131.3 4083.7 3131.3 4083.7 3124.7 4090.3 3124.7" stroke-linecap="round" stroke-width="0" />  <circle cx="4087" cy="3128" r="1.6" stroke-width="0" /></g>      <g c_partid="part_pad" c_type="pinpart" layerid="11" c_etype="pinpart">  <polygon  points="4081.8 3131.3 4075.2 3131.3 4075.2 3124.7 4081.8 3124.7" stroke-linecap="round" stroke-width="0" />  <circle cx="4078.5" cy="3128" r="1.6" stroke-width="0" /></g><path d="M 4099.96 3097.76 L 4100.16 3098.17 L 4100.57 3098.58 L 4100.98 3098.79 L 4101.59 3098.99 L 4102.62 3098.99 L 4103.23 3098.79 L 4103.64 3098.58 L 4104.05 3098.17 L 4104.25 3097.76 L 4104.25 3096.94 L 4104.05 3096.54 L 4103.64 3096.13 L 4103.23 3095.92 L 4102.62 3095.72 L 4101.59 3095.72 L 4100.98 3095.92 L 4100.57 3096.13 L 4100.16 3096.54 L 4099.96 3096.94 L 4099.96 3097.76 M 4103.43 3097.15 L 4104.66 3095.92 M 4099.96 3093.96 L 4099.96 3091.71 L 4101.59 3092.94 L 4101.59 3092.32 L 4101.8 3091.91 L 4102 3091.71 L 4102.62 3091.5 L 4103.03 3091.5 L 4103.64 3091.71 L 4104.05 3092.12 L 4104.25 3092.73 L 4104.25 3093.34 L 4104.05 3093.96 L 4103.84 3094.16 L 4103.43 3094.37 M 4102.41 3090.15 L 4102.41 3086.47 M 4099.96 3085.12 L 4104.25 3085.12 M 4099.96 3085.12 L 4099.96 3083.28 L 4100.16 3082.67 L 4100.37 3082.46 L 4100.78 3082.26 L 4101.18 3082.26 L 4101.59 3082.46 L 4101.8 3082.67 L 4102 3083.28 M 4102 3085.12 L 4102 3083.28 L 4102.21 3082.67 L 4102.41 3082.46 L 4102.82 3082.26 L 4103.43 3082.26 L 4103.84 3082.46 L 4104.05 3082.67 L 4104.25 3083.28 L 4104.25 3085.12" fill="none" layerid="3"  stroke-linecap="round" stroke-width="0.7" /> <polyline points="4094.2 3082.5 4077.8 3082.5" stroke-width="1"   stroke-linecap="round" fill="none" layerid="3"/> <polyline points="4096.5 3088 4094.9 3088" stroke-width="1"   stroke-linecap="round" fill="none" layerid="3"/> <polyline points="4077.1 3088 4075.5 3088" stroke-width="1"   stroke-linecap="round" fill="none" layerid="3"/>  <path d="M 4094.25 3082.5 A 10.5 10.5 0 0 1 4089.1 3099.03" layerid="3" fill="none"  stroke-linecap="round" stroke-width="1"/>  <path d="M 4082.9 3099.03 A 10.5 10.5 0 0 1 4077.75 3082.5" layerid="3" fill="none"  stroke-linecap="round" stroke-width="1"/>      <g c_partid="part_pad" c_type="pinpart" layerid="11" c_etype="pinpart">  <polygon  points="4097.8 3092.3 4091.2 3092.3 4091.2 3085.7 4097.8 3085.7" stroke-linecap="round" stroke-width="0" />  <circle cx="4094.5" cy="3089" r="1.6" stroke-width="0" /></g>      <g c_partid="part_pad" c_type="pinpart" layerid="11" c_etype="pinpart">  <polygon  points="4089.3 3092.3 4082.7 3092.3 4082.7 3085.7 4089.3 3085.7" stroke-linecap="round" stroke-width="0" />  <circle cx="4086" cy="3089" r="1.6" stroke-width="0" /></g>      <g c_partid="part_pad" c_type="pinpart" layerid="11" c_etype="pinpart">  <polygon  points="4080.8 3092.3 4074.2 3092.3 4074.2 3085.7 4080.8 3085.7" stroke-linecap="round" stroke-width="0" />  <circle cx="4077.5" cy="3089" r="1.6" stroke-width="0" /></g><path d="M 4054.81 3127.11 L 4058.08 3127.11 L 4058.69 3127.32 L 4058.9 3127.52 L 4059.1 3127.93 L 4059.1 3128.34 L 4058.9 3128.75 L 4058.69 3128.96 L 4058.08 3129.16 L 4057.67 3129.16 M 4055.62 3125.76 L 4055.42 3125.36 L 4054.81 3124.74 L 4059.1 3124.74" fill="none" layerid="3"  stroke-linecap="round" stroke-width="0.7" /> <polyline points="4066 3123 4056 3123" stroke-width="1"   stroke-linecap="round" fill="none" layerid="3"/> <polyline points="4056 3123 4056 3113" stroke-width="1"   stroke-linecap="round" fill="none" layerid="3"/> <polyline points="4056 3113 4056 3083" stroke-width="1"   stroke-linecap="round" fill="none" layerid="3"/> <polyline points="4056 3083 4066 3083" stroke-width="1"   stroke-linecap="round" fill="none" layerid="3"/> <polyline points="4066 3083 4066 3113" stroke-width="1"   stroke-linecap="round" fill="none" layerid="3"/> <polyline points="4066 3113 4066 3123" stroke-width="1"   stroke-linecap="round" fill="none" layerid="3"/> <polyline points="4066 3113 4056 3113" stroke-width="1"   stroke-linecap="round" fill="none" layerid="3"/>      <g c_partid="part_pad" c_type="pinpart" layerid="11" c_etype="pinpart">  <polygon  points="4057.785 3121.215 4057.785 3114.785 4064.215 3114.785 4064.215 3121.215" stroke-linecap="round" stroke-width="0" />  <circle cx="4061" cy="3118" r="2.01" stroke-width="0" /></g>      <g c_partid="part_pad" c_type="pinpart" layerid="11" c_etype="pinpart">  <ellipse  xmlns="http://www.w3.org/2000/svg" cx="4061" cy="3108" rx="3.215" ry="3.215" stroke-width="0"  />  <circle cx="4061" cy="3108" r="2.01" stroke-width="0" /></g>      <g c_partid="part_pad" c_type="pinpart" layerid="11" c_etype="pinpart">  <ellipse  xmlns="http://www.w3.org/2000/svg" cx="4061" cy="3098" rx="3.215" ry="3.215" stroke-width="0"  />  <circle cx="4061" cy="3098" r="2.01" stroke-width="0" /></g>      <g c_partid="part_pad" c_type="pinpart" layerid="11" c_etype="pinpart">  <ellipse  xmlns="http://www.w3.org/2000/svg" cx="4061" cy="3088" rx="3.215" ry="3.215" stroke-width="0"  />  <circle cx="4061" cy="3088" r="2.01" stroke-width="0" /></g><path d="M 4198.67 3106.86 L 4198.67 3103.8 L 4198.47 3103.18 L 4198.06 3102.77 L 4197.44 3102.57 L 4197.03 3102.57 L 4196.42 3102.77 L 4196.01 3103.18 L 4195.81 3103.8 L 4195.81 3106.86 M 4194.25 3105.84 L 4194.25 3106.05 L 4194.05 3106.46 L 4193.84 3106.66 L 4193.43 3106.86 L 4192.62 3106.86 L 4192.21 3106.66 L 4192 3106.46 L 4191.8 3106.05 L 4191.8 3105.64 L 4192 3105.23 L 4192.41 3104.61 L 4194.46 3102.57 L 4191.59 3102.57" fill="none" layerid="3"  stroke-linecap="round" stroke-width="0.7" /> <polyline points="4180.2 3123.7 4180.2 3084.3" stroke-width="1"   stroke-linecap="round" fill="none" layerid="3"/> <polyline points="4180.2 3084.3 4187 3084.3" stroke-width="1"   stroke-linecap="round" fill="none" layerid="3"/> <polyline points="4187 3084.3 4206.9 3084.3" stroke-width="1"   stroke-linecap="round" fill="none" layerid="3"/> <polyline points="4206.9 3084.3 4209.8 3084.3" stroke-width="1"   stroke-linecap="round" fill="none" layerid="3"/> <polyline points="4209.8 3084.3 4209.8 3123.7" stroke-width="1"   stroke-linecap="round" fill="none" layerid="3"/> <polyline points="4209.8 3123.7 4206.9 3123.7" stroke-width="1"   stroke-linecap="round" fill="none" layerid="3"/> <polyline points="4206.9 3123.7 4187 3123.7" stroke-width="1"   stroke-linecap="round" fill="none" layerid="3"/> <polyline points="4187 3123.7 4186.5 3123.7" stroke-width="1"   stroke-linecap="round" fill="none" layerid="3"/> <polyline points="4186.5 3123.7 4184.2 3123.7" stroke-width="1"   stroke-linecap="round" fill="none" layerid="3"/> <polyline points="4184.2 3123.7 4180.2 3123.7" stroke-width="1"   stroke-linecap="round" fill="none" layerid="3"/> <polyline points="4184.2 3123.7 4183.6 3126" stroke-width="1"   stroke-linecap="round" fill="none" layerid="3"/> <polyline points="4183.6 3126 4187.1 3126" stroke-width="1"   stroke-linecap="round" fill="none" layerid="3"/> <polyline points="4187.1 3126 4186.5 3123.7" stroke-width="1"   stroke-linecap="round" fill="none" layerid="3"/> <polyline points="4187 3123.7 4187 3084.3" stroke-width="1"   stroke-linecap="round" fill="none" layerid="3"/> <polyline points="4206.9 3123.7 4206.9 3084.3" stroke-width="1"   stroke-linecap="round" fill="none" layerid="3"/><path d="M 4202.9 3088.3 L 4202.76 3088.03 L 4202.35 3087.62 L 4205.22 3087.62" fill="none" layerid="3"  stroke-linecap="round" stroke-width="0.6" />      <circle cx="4185.4" cy="3113.8" r="1.8" layerid="3" stroke-width="1" fill="none" />      <circle cx="4185.4" cy="3094.2" r="1.8" layerid="3" stroke-width="1" fill="none" />      <g c_partid="part_pad" c_type="pinpart" layerid="11" c_etype="pinpart">  <polygon  points="4205.235 3098.885 4188.365 3098.885 4188.365 3089.515 4205.235 3089.515" stroke-linecap="round" stroke-width="0" />  <circle cx="4196.8" cy="3094.2" r="2.76" stroke-width="0" /></g>      <g c_partid="part_pad" c_type="pinpart" layerid="11" c_etype="pinpart">  <polygon  points="4205.235 3118.485 4188.365 3118.485 4188.365 3109.115 4205.235 3109.115" stroke-linecap="round" stroke-width="0" />  <circle cx="4196.8" cy="3113.8" r="2.76" stroke-width="0" /></g><path d="M 4166.5 3100.54 L 4166.5 3103.6 L 4166.7 3104.22 L 4167.11 3104.63 L 4167.73 3104.83 L 4168.14 3104.83 L 4168.75 3104.63 L 4169.16 3104.22 L 4169.36 3103.6 L 4169.36 3100.54 M 4171.12 3100.54 L 4173.37 3100.54 L 4172.15 3102.17 L 4172.76 3102.17 L 4173.17 3102.38 L 4173.37 3102.58 L 4173.58 3103.19 L 4173.58 3103.6 L 4173.37 3104.22 L 4172.96 3104.63 L 4172.35 3104.83 L 4171.74 3104.83 L 4171.12 3104.63 L 4170.92 3104.42 L 4170.71 3104.01" fill="none" layerid="3"  stroke-linecap="round" stroke-width="0.7" /> <polyline points="4168.2 3084.5 4151.8 3084.5" stroke-width="1"   stroke-linecap="round" fill="none" layerid="3"/> <polyline points="4170.5 3090 4168.9 3090" stroke-width="1"   stroke-linecap="round" fill="none" layerid="3"/> <polyline points="4161.1 3090 4158.9 3090" stroke-width="1"   stroke-linecap="round" fill="none" layerid="3"/> <polyline points="4151.1 3090 4149.5 3090" stroke-width="1"   stroke-linecap="round" fill="none" layerid="3"/>  <path d="M 4168.25 3084.5 A 10.5 10.5 0 0 1 4163.1 3101.03" layerid="3" fill="none"  stroke-linecap="round" stroke-width="1"/>  <path d="M 4156.9 3101.03 A 10.5 10.5 0 0 1 4151.75 3084.5" layerid="3" fill="none"  stroke-linecap="round" stroke-width="1"/>      <g c_partid="part_pad" c_type="pinpart" layerid="11" c_etype="pinpart">  <polygon  points="4168.3 3094.3 4161.7 3094.3 4161.7 3087.7 4168.3 3087.7" stroke-linecap="round" stroke-width="0" />  <circle cx="4165" cy="3091" r="1.6" stroke-width="0" /></g>      <g c_partid="part_pad" c_type="pinpart" layerid="11" c_etype="pinpart">  <polygon  points="4163.3 3101.8 4156.7 3101.8 4156.7 3095.2 4163.3 3095.2" stroke-linecap="round" stroke-width="0" />  <circle cx="4160" cy="3098.5" r="1.6" stroke-width="0" /></g>      <g c_partid="part_pad" c_type="pinpart" layerid="11" c_etype="pinpart">  <polygon  points="4158.3 3094.3 4151.7 3094.3 4151.7 3087.7 4158.3 3087.7" stroke-linecap="round" stroke-width="0" />  <circle cx="4155" cy="3091" r="1.6" stroke-width="0" /></g><g id="gge1628" layerid="3" c_partid="part_svg" c_shapetype="group" layer_front="1" layer_show="1"><path d="M 4169 3108 C 4169 3108.1 4168.9 3108.5 4168.8 3109 C 4168.7 3109.5 4168.6 3110.1 4168.6 3110.1 C 4168.6 3110.3 4168.5 3110.4 4167.8 3110.6 C 4167 3110.9 4167.2 3110.9 4166.2 3110.3 C 4165.9 3110 4165.5 3109.8 4165.5 3109.7 L 4165.3 3109.6 L 4164.6 3110.4 C 4164.2 3110.7 4163.8 3111 4163.8 3111.1 C 4163.8 3111.2 4163.9 3111.4 4164.3 3112 C 4165 3113 4165 3112.8 4164.6 3113.8 C 4164.3 3114.4 4164.3 3114.5 4164.2 3114.5 C 4164.1 3114.5 4163.6 3114.6 4163.1 3114.7 C 4162.6 3114.8 4162.3 3114.9 4162.2 3115 C 4162.2 3115.1 4162.2 3117 4162.2 3117.1 C 4162.3 3117.2 4162.6 3117.3 4163.2 3117.4 C 4163.7 3117.5 4164.2 3117.6 4164.2 3117.6 C 4164.3 3117.6 4164.3 3117.7 4164.4 3117.8 C 4164.4 3118 4164.6 3118.4 4164.7 3118.7 L 4164.9 3119.3 L 4164.7 3119.5 C 4164.6 3119.7 4164.4 3120 4164.2 3120.2 C 4164.1 3120.4 4163.9 3120.7 4163.9 3120.8 L 4163.7 3121.1 L 4164.5 3121.8 C 4164.9 3122.3 4165.3 3122.6 4165.3 3122.6 C 4165.3 3122.6 4165.7 3122.4 4166.2 3122 L 4167 3121.4 L 4167.4 3121.7 C 4167.7 3121.9 4167.8 3121.9 4167.8 3121.8 C 4168 3121.6 4169.3 3118.2 4169.3 3118.2 C 4169.2 3118.1 4169.1 3118 4168.9 3117.8 C 4168.5 3117.6 4168.3 3117.3 4168.1 3116.9 C 4167.6 3115.7 4168.3 3114.2 4169.6 3114 C 4170.4 3113.7 4171.3 3114.1 4171.8 3114.7 C 4172.1 3115.2 4172.2 3115.6 4172.2 3116.2 C 4172.2 3116.9 4171.9 3117.5 4171.2 3117.9 C 4171 3118 4170.9 3118.2 4170.9 3118.2 C 4170.9 3118.2 4171 3118.5 4171.1 3118.7 C 4171.1 3118.9 4171.4 3119.5 4171.7 3120.2 C 4171.9 3120.9 4172.2 3121.4 4172.2 3121.6 C 4172.3 3121.7 4172.4 3121.9 4172.4 3121.9 C 4172.4 3121.9 4172.6 3121.8 4172.8 3121.6 L 4173.2 3121.4 L 4174 3122 C 4174.4 3122.4 4174.8 3122.6 4174.9 3122.6 C 4175 3122.6 4176.4 3121.1 4176.4 3121 C 4176.4 3121 4176.1 3120.6 4175.9 3120.2 C 4175.6 3119.7 4175.4 3119.4 4175.3 3119.4 C 4175.3 3119.3 4175.3 3119.1 4175.6 3118.4 C 4175.7 3118 4175.9 3117.6 4175.9 3117.6 C 4175.9 3117.6 4176.4 3117.5 4176.8 3117.4 C 4177.3 3117.3 4177.8 3117.2 4177.8 3117.2 C 4177.9 3117.2 4177.9 3117.1 4177.9 3116 C 4177.9 3114.9 4177.9 3114.9 4177.8 3114.9 C 4177.7 3114.9 4177.3 3114.8 4176.8 3114.7 C 4176.3 3114.6 4175.9 3114.5 4175.9 3114.5 C 4175.9 3114.5 4175.7 3114.1 4175.5 3113.7 L 4175.2 3112.9 L 4175.8 3112.2 C 4176.1 3111.7 4176.4 3111.2 4176.4 3111.1 C 4176.4 3111 4175 3109.6 4174.8 3109.6 C 4174.8 3109.6 4174.5 3109.9 4174.2 3110.1 C 4173.8 3110.4 4173.5 3110.6 4173.3 3110.7 L 4173 3110.9 L 4172.8 3110.7 C 4172.3 3110.6 4171.7 3110.3 4171.6 3110.3 C 4171.6 3110.3 4171.6 3110.1 4171.4 3108.9 C 4171.3 3108.5 4171.2 3108.1 4171.2 3108.1 C 4171.1 3108 4170.9 3108 4170.1 3108 C 4169.5 3108 4169 3108 4169 3108" id="gge24" stroke="none"/></g> <path  d="M4050,3060L4211,3060M4055,3063L4050,3060L4055,3057M4206,3063L4211,3060L4206,3057M 4133.05 3049.55L4128.5 3055.91 L4135.32 3055.91 M 4133.05 3049.55L4133.05 3059.09 M 4141.05 3049.55L4139.68 3050 L4138.77 3051.36 L4138.32 3053.64 L4138.32 3055 L4138.77 3057.27 L4139.68 3058.64 L4141.05 3059.09 L4141.95 3059.09 L4143.32 3058.64 L4144.23 3057.27 L4144.68 3055 L4144.68 3053.64 L4144.23 3051.36 L4143.32 3050 L4141.95 3049.55 L4141.05 3049.55 M 4148.14 3056.82L4147.68 3057.27 L4148.14 3057.73 L4148.59 3057.27 L4148.14 3056.82 M 4153.86 3049.55L4152.5 3050 L4152.05 3050.91 L4152.05 3051.82 L4152.5 3052.73 L4153.41 3053.18 L4155.23 3053.64 L4156.59 3054.09 L4157.5 3055 L4157.95 3055.91 L4157.95 3057.27 L4157.5 3058.18 L4157.05 3058.64 L4155.68 3059.09 L4153.86 3059.09 L4152.5 3058.64 L4152.05 3058.18 L4151.59 3057.27 L4151.59 3055.91 L4152.05 3055 L4152.95 3054.09 L4154.32 3053.64 L4156.14 3053.18 L4157.05 3052.73 L4157.5 3051.82 L4157.5 3050.91 L4157.05 3050 L4155.68 3049.55 L4153.86 3049.55 M 4166.86 3052.73L4166.41 3054.09 L4165.5 3055 L4164.14 3055.45 L4163.68 3055.45 L4162.32 3055 L4161.41 3054.09 L4160.95 3052.73 L4160.95 3052.27 L4161.41 3050.91 L4162.32 3050 L4163.68 3049.55 L4164.14 3049.55 L4165.5 3050 L4166.41 3050.91 L4166.86 3052.73 L4166.86 3055 L4166.41 3057.27 L4165.5 3058.64 L4164.14 3059.09 L4163.23 3059.09 L4161.86 3058.64 L4161.41 3057.73 M 4169.86 3052.73L4169.86 3059.09 M 4169.86 3054.55L4171.23 3053.18 L4172.14 3052.73 L4173.5 3052.73 L4174.41 3053.18 L4174.86 3054.55 L4174.86 3059.09 M 4174.86 3054.55L4176.23 3053.18 L4177.14 3052.73 L4178.5 3052.73 L4179.41 3053.18 L4179.86 3054.55 L4179.86 3059.09 M 4182.86 3052.73L4182.86 3059.09 M 4182.86 3054.55L4184.23 3053.18 L4185.14 3052.73 L4186.5 3052.73 L4187.41 3053.18 L4187.86 3054.55 L4187.86 3059.09 M 4187.86 3054.55L4189.23 3053.18 L4190.14 3052.73 L4191.5 3052.73 L4192.41 3053.18 L4192.86 3054.55 L4192.86 3059.09 "  layerid="3" stroke-linecap="round" fill="none"  stroke-width="1" /><path d="M 4182.32 3075.87 L 4182.32 3082.41 M 4179.05 3079.14 L 4185.6 3079.14 M 4188 3076.23 L 4188.72 3075.87 L 4189.81 3074.78 L 4189.81 3082.41 M 4192.58 3076.59 L 4192.58 3076.23 L 4192.94 3075.5 L 4193.3 3075.14 L 4194.03 3074.78 L 4195.49 3074.78 L 4196.21 3075.14 L 4196.58 3075.5 L 4196.94 3076.23 L 4196.94 3076.96 L 4196.58 3077.69 L 4195.85 3078.78 L 4192.21 3082.41 L 4197.3 3082.41 M 4199.7 3074.78 L 4202.61 3082.41 M 4205.52 3074.78 L 4202.61 3082.41" fill="none" layerid="3"  stroke-linecap="round" stroke-width="0.8" /><path d="M 4190.45 3131.45 L 4190.09 3130.73 L 4189.36 3130 L 4188.64 3129.64 L 4187.18 3129.64 L 4186.45 3130 L 4185.73 3130.73 L 4185.36 3131.45 L 4185 3132.55 L 4185 3134.36 L 4185.36 3135.45 L 4185.73 3136.18 L 4186.45 3136.91 L 4187.18 3137.27 L 4188.64 3137.27 L 4189.36 3136.91 L 4190.09 3136.18 L 4190.45 3135.45 L 4190.45 3134.36 M 4188.64 3134.36 L 4190.45 3134.36 M 4192.85 3129.64 L 4192.85 3137.27 M 4192.85 3129.64 L 4197.95 3137.27 M 4197.95 3129.64 L 4197.95 3137.27 M 4200.35 3129.64 L 4200.35 3137.27 M 4200.35 3129.64 L 4202.89 3129.64 L 4203.98 3130 L 4204.71 3130.73 L 4205.07 3131.45 L 4205.44 3132.55 L 4205.44 3134.36 L 4205.07 3135.45 L 4204.71 3136.18 L 4203.98 3136.91 L 4202.89 3137.27 L 4200.35 3137.27" fill="none" layerid="3"  stroke-linecap="round" stroke-width="0.8" /><path d="M 4104.03 3132.79 L 4104.03 3134.51 L 4103.91 3134.83 L 4103.82 3134.94 L 4103.61 3135.05 L 4103.28 3135.05 L 4103.07 3134.94 M 4104.03 3133.12 L 4103.82 3132.9 L 4103.61 3132.79 L 4103.28 3132.79 L 4103.07 3132.9 L 4102.86 3133.12 L 4102.74 3133.44 L 4102.74 3133.65 L 4102.86 3133.97 L 4103.07 3134.19 L 4103.28 3134.3 L 4103.61 3134.3 L 4103.82 3134.19 L 4104.03 3133.97 M 4104.74 3132.04 L 4104.83 3132.15 L 4104.95 3132.04 L 4104.83 3131.93 L 4104.74 3132.04 M 4104.83 3132.79 L 4104.83 3134.3 M 4105.99 3132.04 L 4105.99 3133.87 L 4106.08 3134.19 L 4106.32 3134.3 L 4106.53 3134.3 M 4105.65 3132.79 L 4106.4 3132.79 M 4107.24 3132.04 L 4107.24 3134.3 M 4107.24 3133.22 L 4107.57 3132.9 L 4107.78 3132.79 L 4108.08 3132.79 L 4108.32 3132.9 L 4108.4 3133.22 L 4108.4 3134.3 M 4109.11 3132.79 L 4109.11 3133.87 L 4109.24 3134.19 L 4109.45 3134.3 L 4109.78 3134.3 L 4109.99 3134.19 L 4110.32 3133.87 M 4110.32 3132.79 L 4110.32 3134.3 M 4111.03 3132.04 L 4111.03 3134.3 M 4111.03 3133.12 L 4111.24 3132.9 L 4111.45 3132.79 L 4111.78 3132.79 L 4111.99 3132.9 L 4112.2 3133.12 L 4112.32 3133.44 L 4112.32 3133.65 L 4112.2 3133.97 L 4111.99 3134.19 L 4111.78 3134.3 L 4111.45 3134.3 L 4111.24 3134.19 L 4111.03 3133.97 M 4113.11 3133.76 L 4112.99 3133.87 L 4113.11 3133.97 L 4113.24 3133.87 L 4113.11 3133.76 M 4115.24 3133.12 L 4114.99 3132.9 L 4114.78 3132.79 L 4114.49 3132.79 L 4114.24 3132.9 L 4114.03 3133.12 L 4113.95 3133.44 L 4113.95 3133.65 L 4114.03 3133.97 L 4114.24 3134.19 L 4114.49 3134.3 L 4114.78 3134.3 L 4114.99 3134.19 L 4115.24 3133.97 M 4116.45 3132.79 L 4116.24 3132.9 L 4116.03 3133.12 L 4115.95 3133.44 L 4115.95 3133.65 L 4116.03 3133.97 L 4116.24 3134.19 L 4116.45 3134.3 L 4116.78 3134.3 L 4116.99 3134.19 L 4117.2 3133.97 L 4117.32 3133.65 L 4117.32 3133.44 L 4117.2 3133.12 L 4116.99 3132.9 L 4116.78 3132.79 L 4116.45 3132.79 M 4118.03 3132.79 L 4118.03 3134.3 M 4118.03 3133.22 L 4118.36 3132.9 L 4118.57 3132.79 L 4118.9 3132.79 L 4119.11 3132.9 L 4119.2 3133.22 L 4119.2 3134.3 M 4119.2 3133.22 L 4119.53 3132.9 L 4119.74 3132.79 L 4120.07 3132.79 L 4120.28 3132.9 L 4120.4 3133.22 L 4120.4 3134.3 M 4123.03 3131.61 L 4121.11 3135.05 M 4124.16 3132.04 L 4124.28 3132.15 L 4124.4 3132.04 L 4124.28 3131.93 L 4124.16 3132.04 M 4124.28 3132.79 L 4124.28 3134.62 L 4124.16 3134.94 L 4123.95 3135.05 L 4123.74 3135.05 M 4126.37 3132.79 L 4126.37 3134.3 M 4126.37 3133.12 L 4126.16 3132.9 L 4125.95 3132.79 L 4125.62 3132.79 L 4125.41 3132.9 L 4125.2 3133.12 L 4125.11 3133.44 L 4125.11 3133.65 L 4125.2 3133.97 L 4125.41 3134.19 L 4125.62 3134.3 L 4125.95 3134.3 L 4126.16 3134.19 L 4126.37 3133.97 M 4127.08 3132.04 L 4127.2 3132.15 L 4127.32 3132.04 L 4127.2 3131.93 L 4127.08 3132.04 M 4127.2 3132.79 L 4127.2 3134.3 M 4128.03 3132.79 L 4128.03 3134.3 M 4128.03 3133.22 L 4128.33 3132.9 L 4128.57 3132.79 L 4128.86 3132.79 L 4129.08 3132.9 L 4129.2 3133.22 L 4129.2 3134.3 M 4129.2 3133.22 L 4129.53 3132.9 L 4129.74 3132.79 L 4130.07 3132.79 L 4130.28 3132.9 L 4130.37 3133.22 L 4130.37 3134.3 M 4131.08 3133.44 L 4132.36 3133.44 L 4132.36 3133.22 L 4132.28 3133.01 L 4132.15 3132.9 L 4131.95 3132.79 L 4131.61 3132.79 L 4131.4 3132.9 L 4131.2 3133.12 L 4131.08 3133.44 L 4131.08 3133.65 L 4131.2 3133.97 L 4131.4 3134.19 L 4131.61 3134.3 L 4131.95 3134.3 L 4132.15 3134.19 L 4132.36 3133.97 M 4133.07 3132.04 L 4133.07 3134.3 M 4135.07 3132.79 L 4135.07 3134.3 M 4135.07 3133.12 L 4134.86 3132.9 L 4134.65 3132.79 L 4134.32 3132.79 L 4134.11 3132.9 L 4133.9 3133.12 L 4133.78 3133.44 L 4133.78 3133.65 L 4133.9 3133.97 L 4134.11 3134.19 L 4134.32 3134.3 L 4134.65 3134.3 L 4134.86 3134.19 L 4135.07 3133.97 M 4135.78 3132.04 L 4135.78 3134.3 M 4135.78 3133.12 L 4135.99 3132.9 L 4136.24 3132.79 L 4136.53 3132.79 L 4136.78 3132.9 L 4136.99 3133.12 L 4137.07 3133.44 L 4137.07 3133.65 L 4136.99 3133.97 L 4136.78 3134.19 L 4136.53 3134.3 L 4136.24 3134.3 L 4135.99 3134.19 L 4135.78 3133.97 M 4138.32 3132.79 L 4138.11 3132.9 L 4137.9 3133.12 L 4137.78 3133.44 L 4137.78 3133.65 L 4137.9 3133.97 L 4138.11 3134.19 L 4138.32 3134.3 L 4138.65 3134.3 L 4138.86 3134.19 L 4139.07 3133.97 L 4139.2 3133.65 L 4139.2 3133.44 L 4139.07 3133.12 L 4138.86 3132.9 L 4138.65 3132.79 L 4138.32 3132.79 M 4139.9 3132.79 L 4139.9 3134.3 M 4139.9 3133.44 L 4139.99 3133.12 L 4140.2 3132.9 L 4140.45 3132.79 L 4140.74 3132.79 M 4142.74 3132.04 L 4142.74 3134.3 M 4142.74 3133.12 L 4142.53 3132.9 L 4142.32 3132.79 L 4141.99 3132.79 L 4141.78 3132.9 L 4141.57 3133.12 L 4141.45 3133.44 L 4141.45 3133.65 L 4141.57 3133.97 L 4141.78 3134.19 L 4141.99 3134.3 L 4142.32 3134.3 L 4142.53 3134.19 L 4142.74 3133.97 M 4144.74 3132.79 L 4144.74 3134.3 M 4144.74 3133.12 L 4144.53 3132.9 L 4144.32 3132.79 L 4143.99 3132.79 L 4143.78 3132.9 L 4143.57 3133.12 L 4143.45 3133.44 L 4143.45 3133.65 L 4143.57 3133.97 L 4143.78 3134.19 L 4143.99 3134.3 L 4144.32 3134.3 L 4144.53 3134.19 L 4144.74 3133.97" fill="none" layerid="3"  stroke-linecap="round" stroke-width="0.8" /><path d="M 4058.96 3071.87 L 4057.1 3076.75 M 4058.96 3071.87 L 4060.83 3076.75 M 4057.81 3075.14 L 4060.12 3075.14 M 4063.06 3071.87 L 4063.06 3075.82 L 4063.29 3076.52 L 4063.75 3076.75 L 4064.23 3076.75 M 4062.37 3073.5 L 4064 3073.5 M 4066.46 3071.87 L 4066.46 3075.82 L 4066.69 3076.52 L 4067.16 3076.75 L 4067.62 3076.75 M 4065.75 3073.5 L 4067.39 3073.5 M 4069.16 3071.87 L 4069.39 3072.1 L 4069.62 3071.87 L 4069.39 3071.64 L 4069.16 3071.87 M 4069.39 3073.5 L 4069.39 3076.75 M 4071.16 3073.5 L 4071.16 3076.75 M 4071.16 3074.43 L 4071.85 3073.74 L 4072.31 3073.5 L 4073.02 3073.5 L 4073.48 3073.74 L 4073.71 3074.43 L 4073.71 3076.75 M 4075.48 3073.5 L 4076.87 3076.75 M 4078.27 3073.5 L 4076.87 3076.75 L 4076.41 3077.68 L 4075.94 3078.16 L 4075.48 3078.39 L 4075.25 3078.39 M 4083.39 3071.87 L 4083.39 3076.75 M 4083.39 3071.87 L 4085.48 3071.87 L 4086.19 3072.1 L 4086.41 3072.33 L 4086.66 3072.8 L 4086.66 3073.26 L 4086.41 3073.74 L 4086.19 3073.97 L 4085.48 3074.2 L 4083.39 3074.2 M 4085.02 3074.2 L 4086.66 3076.75 M 4091.69 3073.03 L 4091.44 3072.57 L 4090.98 3072.1 L 4090.52 3071.87 L 4089.58 3071.87 L 4089.12 3072.1 L 4088.66 3072.57 L 4088.41 3073.03 L 4088.19 3073.74 L 4088.19 3074.89 L 4088.41 3075.59 L 4088.66 3076.06 L 4089.12 3076.52 L 4089.58 3076.75 L 4090.52 3076.75 L 4090.98 3076.52 L 4091.44 3076.06 L 4091.69 3075.59 L 4091.69 3074.89 M 4090.52 3074.89 L 4091.69 3074.89 M 4093.21 3071.87 L 4093.21 3076.75 M 4093.21 3071.87 L 4095.31 3071.87 L 4096 3072.1 L 4096.23 3072.33 L 4096.46 3072.8 L 4096.46 3073.26 L 4096.23 3073.74 L 4096 3073.97 L 4095.31 3074.2 M 4093.21 3074.2 L 4095.31 3074.2 L 4096 3074.43 L 4096.23 3074.66 L 4096.46 3075.14 L 4096.46 3075.82 L 4096.23 3076.29 L 4096 3076.52 L 4095.31 3076.75 L 4093.21 3076.75 M 4101.58 3071.87 L 4101.58 3076.75 M 4101.58 3076.75 L 4104.37 3076.75 M 4105.91 3071.87 L 4105.91 3076.75 M 4105.91 3071.87 L 4108.95 3071.87 M 4105.91 3074.2 L 4107.78 3074.2 M 4105.91 3076.75 L 4108.95 3076.75 M 4110.49 3071.87 L 4110.49 3076.75 M 4110.49 3071.87 L 4112.11 3071.87 L 4112.79 3072.1 L 4113.28 3072.57 L 4113.49 3073.03 L 4113.74 3073.74 L 4113.74 3074.89 L 4113.49 3075.59 L 4113.28 3076.06 L 4112.79 3076.52 L 4112.11 3076.75 L 4110.49 3076.75 M 4122.11 3072.57 L 4121.65 3072.1 L 4120.95 3071.87 L 4120.03 3071.87 L 4119.32 3072.1 L 4118.86 3072.57 L 4118.86 3073.03 L 4119.08 3073.5 L 4119.32 3073.74 L 4119.78 3073.97 L 4121.19 3074.43 L 4121.65 3074.66 L 4121.87 3074.89 L 4122.11 3075.37 L 4122.11 3076.06 L 4121.65 3076.52 L 4120.95 3076.75 L 4120.03 3076.75 L 4119.32 3076.52 L 4118.86 3076.06 M 4124.33 3071.87 L 4124.33 3075.82 L 4124.57 3076.52 L 4125.03 3076.75 L 4125.5 3076.75 M 4123.65 3073.5 L 4125.28 3073.5 M 4127.03 3073.5 L 4127.03 3076.75 M 4127.03 3074.89 L 4127.28 3074.2 L 4127.74 3073.74 L 4128.2 3073.5 L 4128.9 3073.5 M 4130.45 3071.87 L 4130.66 3072.1 L 4130.9 3071.87 L 4130.66 3071.64 L 4130.45 3071.87 M 4130.66 3073.5 L 4130.66 3076.75 M 4132.45 3073.5 L 4132.45 3078.39 M 4132.45 3074.2 L 4132.9 3073.74 L 4133.36 3073.5 L 4134.07 3073.5 L 4134.53 3073.74 L 4134.99 3074.2 L 4135.24 3074.89 L 4135.24 3075.37 L 4134.99 3076.06 L 4134.53 3076.52 L 4134.07 3076.75 L 4133.36 3076.75 L 4132.9 3076.52 L 4132.45 3076.06 M 4140.36 3071.87 L 4140.36 3076.75 M 4140.36 3071.87 L 4141.99 3071.87 L 4142.69 3072.1 L 4143.15 3072.57 L 4143.36 3073.03 L 4143.61 3073.74 L 4143.61 3074.89 L 4143.36 3075.59 L 4143.15 3076.06 L 4142.69 3076.52 L 4141.99 3076.75 L 4140.36 3076.75 M 4145.15 3073.5 L 4145.15 3076.75 M 4145.15 3074.89 L 4145.36 3074.2 L 4145.83 3073.74 L 4146.29 3073.5 L 4146.99 3073.5 M 4148.53 3071.87 L 4148.78 3072.1 L 4148.99 3071.87 L 4148.78 3071.64 L 4148.53 3071.87 M 4148.78 3073.5 L 4148.78 3076.75 M 4150.53 3073.5 L 4151.94 3076.75 M 4153.32 3073.5 L 4151.94 3076.75 M 4154.86 3074.89 L 4157.65 3074.89 L 4157.65 3074.43 L 4157.41 3073.97 L 4157.2 3073.74 L 4156.74 3073.5 L 4156.03 3073.5 L 4155.57 3073.74 L 4155.11 3074.2 L 4154.86 3074.89 L 4154.86 3075.37 L 4155.11 3076.06 L 4155.57 3076.52 L 4156.03 3076.75 L 4156.74 3076.75 L 4157.2 3076.52 L 4157.65 3076.06 M 4159.2 3073.5 L 4159.2 3076.75 M 4159.2 3074.89 L 4159.44 3074.2 L 4159.9 3073.74 L 4160.36 3073.5 L 4161.04 3073.5" fill="none" layerid="3"  stroke-linecap="round" stroke-width="0.8" /> <path  d="M4031,3067L4031,3142M4034,3072L4031,3067L4028,3072M4034,3137L4031,3142L4028,3137M 4027.45 3116.5 L 4027.89 3117.36 L 4029.18 3118.66 L 4020.11 3118.66 M 4026.16 3127.12 L 4024.86 3126.69 L 4024 3125.83 L 4023.57 3124.53 L 4023.57 3124.1 L 4024 3122.8 L 4024.86 3121.94 L 4026.16 3121.51 L 4026.59 3121.51 L 4027.89 3121.94 L 4028.75 3122.8 L 4029.18 3124.1 L 4029.18 3124.53 L 4028.75 3125.83 L 4027.89 3126.69 L 4026.16 3127.12 L 4024 3127.12 L 4021.84 3126.69 L 4020.55 3125.83 L 4020.11 3124.53 L 4020.11 3123.67 L 4020.55 3122.37 L 4021.41 3121.94 M 4022.27 3130.4 L 4021.84 3129.97 L 4021.41 3130.4 L 4021.84 3130.84 L 4022.27 3130.4 M 4029.18 3136.28 L 4028.75 3134.98 L 4027.45 3134.12 L 4025.3 3133.69 L 4024 3133.69 L 4021.84 3134.12 L 4020.55 3134.98 L 4020.11 3136.28 L 4020.11 3137.14 L 4020.55 3138.44 L 4021.84 3139.3 L 4024 3139.73 L 4025.3 3139.73 L 4027.45 3139.3 L 4028.75 3138.44 L 4029.18 3137.14 L 4029.18 3136.28 M 4029.18 3147.76 L 4029.18 3143.45 L 4025.3 3143.01 L 4025.73 3143.45 L 4026.16 3144.74 L 4026.16 3146.04 L 4025.73 3147.33 L 4024.86 3148.2 L 4023.57 3148.63 L 4022.7 3148.63 L 4021.41 3148.2 L 4020.55 3147.33 L 4020.11 3146.04 L 4020.11 3144.74 L 4020.55 3143.45 L 4020.98 3143.01 L 4021.84 3142.58 M 4026.16 3151.48 L 4020.11 3151.48 M 4024.43 3151.48 L 4025.73 3152.77 L 4026.16 3153.64 L 4026.16 3154.93 L 4025.73 3155.8 L 4024.43 3156.23 L 4020.11 3156.23 M 4024.43 3156.23 L 4025.73 3157.52 L 4026.16 3158.39 L 4026.16 3159.68 L 4025.73 3160.55 L 4024.43 3160.98 L 4020.11 3160.98 M 4026.16 3163.83 L 4020.11 3163.83 M 4024.43 3163.83 L 4025.73 3165.12 L 4026.16 3165.99 L 4026.16 3167.28 L 4025.73 3168.15 L 4024.43 3168.58 L 4020.11 3168.58 M 4024.43 3168.58 L 4025.73 3169.87 L 4026.16 3170.74 L 4026.16 3172.03 L 4025.73 3172.9 L 4024.43 3173.33 L 4020.11 3173.33"  layerid="3" stroke-linecap="round" fill="none"  stroke-width="1" /><path d="M 4071.3 3113.8 L 4067.62 3113.8 M 4069.46 3111.96 L 4069.46 3115.63 M 4071.09 3116.98 L 4071.3 3117.39 L 4071.91 3118 L 4067.62 3118 M 4070.89 3119.55 L 4071.09 3119.55 L 4071.5 3119.75 L 4071.7 3119.96 L 4071.91 3120.37 L 4071.91 3121.18 L 4071.7 3121.59 L 4071.5 3121.79 L 4071.09 3122 L 4070.68 3122 L 4070.28 3121.79 L 4069.66 3121.39 L 4067.62 3119.35 L 4067.62 3122.2" fill="none" layerid="3"  stroke-linecap="round" stroke-width="0.8" /><path d="M 4070.93 3109.26 L 4071.34 3109.06 L 4071.74 3108.65 L 4071.95 3108.24 L 4071.95 3107.42 L 4071.74 3107.02 L 4071.34 3106.61 L 4070.93 3106.4 L 4070.32 3106.2 L 4069.3 3106.2 L 4068.68 3106.4 L 4068.28 3106.61 L 4067.87 3107.02 L 4067.66 3107.42 L 4067.66 3108.24 L 4067.87 3108.65 L 4068.28 3109.06 L 4068.68 3109.26 L 4069.3 3109.26 M 4069.3 3108.24 L 4069.3 3109.26" fill="none" layerid="3"  stroke-linecap="round" stroke-width="0.8" /><path d="M 4072.05 3096.4 L 4067.76 3096.4 M 4072.05 3096.4 L 4072.05 3098.24 L 4071.84 3098.85 L 4071.64 3099.05 L 4071.23 3099.26 L 4070.82 3099.26 L 4070.42 3099.05 L 4070.21 3098.85 L 4070.01 3098.24 L 4070.01 3096.4 M 4070.01 3097.83 L 4067.76 3099.26" fill="none" layerid="3"  stroke-linecap="round" stroke-width="0.8" /><path d="M 4072.35 3086.8 L 4068.06 3086.8 M 4072.35 3086.8 L 4072.35 3088.64 L 4072.14 3089.25 L 4071.94 3089.45 L 4071.53 3089.66 L 4071.12 3089.66 L 4070.72 3089.45 L 4070.51 3089.25 L 4070.31 3088.64 M 4070.31 3086.8 L 4070.31 3088.64 L 4070.1 3089.25 L 4069.9 3089.45 L 4069.49 3089.66 L 4068.88 3089.66 L 4068.47 3089.45 L 4068.27 3089.25 L 4068.06 3088.64 L 4068.06 3086.8" fill="none" layerid="3"  stroke-linecap="round" stroke-width="0.8" /><path d="M 4162.84 3079.16 L 4162.84 3082.84 M 4161 3081 L 4164.67 3081 M 4166.02 3079.37 L 4166.43 3079.16 L 4167.04 3078.55 L 4167.04 3082.84 M 4168.59 3079.57 L 4168.59 3079.37 L 4168.79 3078.96 L 4169 3078.76 L 4169.41 3078.55 L 4170.22 3078.55 L 4170.63 3078.76 L 4170.83 3078.96 L 4171.04 3079.37 L 4171.04 3079.78 L 4170.83 3080.18 L 4170.43 3080.8 L 4168.39 3082.84 L 4171.24 3082.84" fill="none" layerid="3"  stroke-linecap="round" stroke-width="0.8" /><path d="M 4156.84 3105.16L4156.84 3108.84 M 4155 3107L4158.67 3107 M 4162.47 3104.55L4160.43 3104.55 L4160.22 3106.39 L4160.43 3106.18 L4161.04 3105.98 L4161.65 3105.98 L4162.26 3106.18 L4162.67 3106.59 L4162.87 3107.2 L4162.87 3107.61 L4162.67 3108.22 L4162.26 3108.63 L4161.65 3108.84 L4161.04 3108.84 L4160.43 3108.63 L4160.22 3108.43 L4160.02 3108.02 " fill="none" layerid="3"  stroke-linecap="round" stroke-width="0.8" /><path d="M 4057.17 3134.74 L 4057.17 3137.6 M 4057.17 3135.96 L 4057.35 3135.35 L 4057.77 3134.94 L 4058.19 3134.74 L 4058.78 3134.74 M 4060.13 3135.96 L 4062.58 3135.96 L 4062.58 3135.56 L 4062.37 3135.15 L 4062.19 3134.94 L 4061.77 3134.74 L 4061.17 3134.74 L 4060.75 3134.94 L 4060.33 3135.35 L 4060.13 3135.96 L 4060.13 3136.37 L 4060.33 3136.98 L 4060.75 3137.39 L 4061.17 3137.6 L 4061.77 3137.6 L 4062.19 3137.39 L 4062.58 3136.98 M 4063.94 3134.74 L 4065.17 3137.6 M 4066.37 3134.74 L 4065.17 3137.6 M 4067.94 3136.58 L 4067.73 3136.78 L 4067.94 3136.98 L 4068.13 3136.78 L 4067.94 3136.58 M 4069.88 3133.31 L 4072.12 3133.31 L 4070.92 3134.94 L 4071.52 3134.94 L 4071.94 3135.15 L 4072.12 3135.35 L 4072.33 3135.96 L 4072.33 3136.37 L 4072.12 3136.98 L 4071.73 3137.39 L 4071.1 3137.6 L 4070.5 3137.6 L 4069.88 3137.39 L 4069.69 3137.19 L 4069.48 3136.78" fill="none" layerid="3"  stroke-linecap="round" stroke-width="0.8" /></g></svg>