<svg xmlns="http://www.w3.org/2000/svg"  shape-rendering="crispEdges" xmlns:xlink="http://www.w3.org/1999/xlink" width="1.77in" height="0.95in" viewBox="4042 3057 177 95">      <style type="text/css">
      path, polyline, polygon { stroke-linejoin: round;}
      path, polyline, polygon, line { stroke-linecap: round;}
      rect, circle, ellipse, polyline, polygon, line, path { shape-rendering: crispEdges;}
      *[layerid="0"] { stroke: #FFFFFF; FILL: #FFFFFF;}
        *[layerid="1"] { stroke: #000000; fill: #000000;}        *[layerid="2"] { stroke: #000000; fill: #000000;}        *[layerid="3"] { stroke: #000000; fill: #000000;}        *[layerid="4"] { stroke: #000000; fill: #000000;}        *[layerid="5"] { stroke: #000000; fill: #000000;}        *[layerid="6"] { stroke: #000000; fill: #000000;}        *[layerid="7"] { stroke: #000000; fill: #000000;}        *[layerid="8"] { stroke: #000000; fill: #000000;}        *[layerid="9"] { stroke: #000000; fill: #000000;}        *[layerid="10"] { stroke: #000000; fill: #000000;}        *[layerid="11"] { stroke: #000000; fill: #000000;}        *[layerid="12"] { stroke: #000000; fill: #000000;}        *[layerid="13"] { stroke: #000000; fill: #000000;}        *[layerid="14"] { stroke: #000000; fill: #000000;}        *[layerid="15"] { stroke: #000000; fill: #000000;}        *[layerid="21"] { stroke: #000000; fill: #000000;}        *[layerid="22"] { stroke: #000000; fill: #000000;}        *[layerid="23"] { stroke: #000000; fill: #000000;}        *[layerid="24"] { stroke: #000000; fill: #000000;}          *[fill="none"] { fill: none; }
      *[stroke="none"] { stroke: none;}
      g[c_partid="part_pad"] > * + circle { fill: #FFFFFF;}
      g[c_partid="part_via"] > * + circle { fill: #FFFFFF;}
	g[c_partid="part_pad"] > polyline:nth-child(2) {stroke: #FFFFFF;}
	  </style><g transform="matrix(-1, 0, 0, 1, 8261, 0)">   <rect x="4042" y="3057" width="177" height="95" fill="#FFFFFF" stroke="none"/> <polyline points="4052 3070 4052 3067 4209 3067 4209 3142 4052 3142 4052 3070" stroke-width="1"   stroke-linecap="round" fill="none" layerid="10"/><path d="M 4154.89 3130.52 L 4154.48 3130.11 L 4153.87 3129.91 L 4153.05 3129.91 L 4152.44 3130.11 L 4152.03 3130.52 L 4152.03 3130.93 L 4152.23 3131.34 L 4152.44 3131.54 L 4152.85 3131.75 L 4154.08 3132.16 L 4154.48 3132.36 L 4154.69 3132.56 L 4154.89 3132.97 L 4154.89 3133.59 L 4154.48 3134 L 4153.87 3134.2 L 4153.05 3134.2 L 4152.44 3134 L 4152.03 3133.59 M 4156.24 3129.91 L 4157.27 3134.2 M 4158.29 3129.91 L 4157.27 3134.2 M 4158.29 3129.91 L 4159.31 3134.2 M 4160.33 3129.91 L 4159.31 3134.2 M 4161.68 3130.72 L 4162.09 3130.52 L 4162.71 3129.91 L 4162.71 3134.2" fill="none" layerid="3"  stroke-linecap="round" stroke-width="0.7" /> <polyline points="4169.8 3127.6 4169.8 3125.5 4146.2 3125.5 4146.2 3127.6" stroke-width="1"   stroke-linecap="round" fill="none" layerid="3"/> <polyline points="4169.8 3139.3 4163.9 3139.3 4152.1 3139.3 4146.2 3139.3" stroke-width="1"   stroke-linecap="round" fill="none" layerid="3"/> <polyline points="4163.9 3139.3 4163.9 3143.8 4152.1 3143.8 4152.1 3139.3" stroke-width="1"   stroke-linecap="round" fill="none" layerid="3"/> <polyline points="4169.8 3139.1 4169.8 3132.4" stroke-width="1"   stroke-linecap="round" fill="none" layerid="3"/> <polyline points="4146.2 3139.1 4146.2 3132.4" stroke-width="1"   stroke-linecap="round" fill="none" layerid="3"/><path d="M 4128.96 3117.06 L 4133.23 3118.7 M 4128.96 3117.06 L 4133.23 3115.43 M 4131.8 3118.09 L 4131.8 3116.04 M 4128.96 3113.46 L 4132.42 3113.46 L 4133.05 3113.26 L 4133.23 3112.85 L 4133.23 3112.44 M 4130.38 3114.08 L 4130.38 3112.65 M 4128.96 3110.48 L 4132.42 3110.48 L 4133.05 3110.27 L 4133.23 3109.86 L 4133.23 3109.45 M 4130.38 3111.09 L 4130.38 3109.66 M 4128.96 3108.1 L 4129.14 3107.9 L 4128.96 3107.7 L 4128.73 3107.9 L 4128.96 3108.1 M 4130.38 3107.9 L 4133.23 3107.9 M 4130.38 3106.35 L 4133.23 3106.35 M 4131.21 3106.35 L 4130.59 3105.73 L 4130.38 3105.32 L 4130.38 3104.71 L 4130.59 3104.3 L 4131.21 3104.1 L 4133.23 3104.1 M 4130.38 3102.54 L 4133.23 3101.31 M 4130.38 3100.09 L 4133.23 3101.31 L 4134.05 3101.72 L 4134.47 3102.13 L 4134.67 3102.54 L 4134.67 3102.75 M 4128.96 3097.71 L 4129.14 3098.33 L 4129.55 3098.53 L 4129.97 3098.53 L 4130.38 3098.33 L 4130.59 3097.92 L 4130.8 3097.1 L 4130.98 3096.49 L 4131.39 3096.08 L 4131.8 3095.87 L 4132.42 3095.87 L 4132.84 3096.08 L 4133.05 3096.28 L 4133.23 3096.9 L 4133.23 3097.71 L 4133.05 3098.33 L 4132.84 3098.53 L 4132.42 3098.74 L 4131.8 3098.74 L 4131.39 3098.53 L 4130.98 3098.12 L 4130.8 3097.51 L 4130.59 3096.69 L 4130.38 3096.28 L 4129.97 3096.08 L 4129.55 3096.08 L 4129.14 3096.28 L 4128.96 3096.9 L 4128.96 3097.71 M 4128.96 3092.07 L 4128.96 3094.11 L 4130.8 3094.32 L 4130.59 3094.11 L 4130.38 3093.5 L 4130.38 3092.89 L 4130.59 3092.27 L 4130.98 3091.86 L 4131.59 3091.66 L 4132.01 3091.66 L 4132.63 3091.86 L 4133.05 3092.27 L 4133.23 3092.89 L 4133.23 3093.5 L 4133.05 3094.11 L 4132.84 3094.32 L 4132.42 3094.52" fill="none" layerid="3"  stroke-linecap="round" stroke-width="0.7" /> <polyline points="4141 3126 4141 3086 4121 3086 4121 3126 4141 3126" stroke-width="0.9"   stroke-linecap="round" fill="none" layerid="3"/>      <circle cx="4137" cy="3121" r="1" layerid="3" stroke-width="1" fill="none" /><path d="M 4099.75 3113.73 L 4099.95 3114.14 L 4100.36 3114.55 L 4100.77 3114.76 L 4101.38 3114.96 L 4102.41 3114.96 L 4103.02 3114.76 L 4103.43 3114.55 L 4103.84 3114.14 L 4104.04 3113.73 L 4104.04 3112.91 L 4103.84 3112.51 L 4103.43 3112.1 L 4103.02 3111.89 L 4102.41 3111.69 L 4101.38 3111.69 L 4100.77 3111.89 L 4100.36 3112.1 L 4099.95 3112.51 L 4099.75 3112.91 L 4099.75 3113.73 M 4103.22 3113.12 L 4104.45 3111.89 M 4100.57 3110.34 L 4100.36 3109.93 L 4099.75 3109.31 L 4104.04 3109.31 M 4102.2 3107.96 L 4102.2 3104.28 M 4099.75 3102.93 L 4104.04 3102.93 M 4099.75 3102.93 L 4099.75 3101.09 L 4099.95 3100.48 L 4100.16 3100.27 L 4100.57 3100.07 L 4100.97 3100.07 L 4101.38 3100.27 L 4101.59 3100.48 L 4101.79 3101.09 L 4101.79 3102.93 M 4101.79 3101.5 L 4104.04 3100.07" fill="none" layerid="3"  stroke-linecap="round" stroke-width="0.7" /> <polyline points="4094.2 3099.5 4077.8 3099.5" stroke-width="1"   stroke-linecap="round" fill="none" layerid="3"/> <polyline points="4096.5 3105 4094.9 3105" stroke-width="1"   stroke-linecap="round" fill="none" layerid="3"/> <polyline points="4077.1 3105 4075.5 3105" stroke-width="1"   stroke-linecap="round" fill="none" layerid="3"/>  <path d="M 4094.25 3099.5 A 10.5 10.5 0 0 1 4089.1 3116.03" layerid="3" fill="none"  stroke-linecap="round" stroke-width="1"/>  <path d="M 4082.9 3116.03 A 10.5 10.5 0 0 1 4077.75 3099.5" layerid="3" fill="none"  stroke-linecap="round" stroke-width="1"/><path d="M 4099.68 3133.2 L 4099.85 3133.59 L 4100.27 3134.01 L 4100.68 3134.24 L 4101.31 3134.43 L 4102.35 3134.43 L 4102.93 3134.24 L 4103.35 3134.01 L 4103.77 3133.59 L 4103.98 3133.2 L 4103.98 3132.37 L 4103.77 3131.99 L 4103.35 3131.55 L 4102.93 3131.34 L 4102.35 3131.16 L 4101.31 3131.16 L 4100.68 3131.34 L 4100.27 3131.55 L 4099.85 3131.99 L 4099.68 3132.37 L 4099.68 3133.2 M 4103.14 3132.57 L 4104.35 3131.34 M 4100.68 3129.59 L 4100.48 3129.59 L 4100.1 3129.39 L 4099.85 3129.2 L 4099.68 3128.76 L 4099.68 3127.97 L 4099.85 3127.55 L 4100.1 3127.34 L 4100.48 3127.14 L 4100.89 3127.14 L 4101.31 3127.34 L 4101.93 3127.75 L 4103.98 3129.8 L 4103.98 3126.95 M 4102.1 3125.57 L 4102.1 3121.91 M 4100.68 3117.49 L 4100.27 3117.7 L 4099.85 3118.09 L 4099.68 3118.51 L 4099.68 3119.32 L 4099.85 3119.74 L 4100.27 3120.14 L 4100.68 3120.34 L 4101.31 3120.55 L 4102.35 3120.55 L 4102.93 3120.34 L 4103.35 3120.14 L 4103.77 3119.74 L 4103.98 3119.32 L 4103.98 3118.51 L 4103.77 3118.09 L 4103.35 3117.7 L 4102.93 3117.49 L 4102.35 3117.49 M 4102.35 3118.51 L 4102.35 3117.49" fill="none" layerid="3"  stroke-linecap="round" stroke-width="0.7" /> <polyline points="4094.2 3118.5 4077.8 3118.5" stroke-width="1"   stroke-linecap="round" fill="none" layerid="3"/> <polyline points="4096.5 3124 4094.9 3124" stroke-width="1"   stroke-linecap="round" fill="none" layerid="3"/> <polyline points="4077.1 3124 4075.5 3124" stroke-width="1"   stroke-linecap="round" fill="none" layerid="3"/>  <path d="M 4094.25 3118.5 A 10.5 10.5 0 0 1 4089.1 3135.03" layerid="3" fill="none"  stroke-linecap="round" stroke-width="1"/>  <path d="M 4082.9 3135.03 A 10.5 10.5 0 0 1 4077.75 3118.5" layerid="3" fill="none"  stroke-linecap="round" stroke-width="1"/><path d="M 4099.96 3093.76 L 4100.16 3094.17 L 4100.57 3094.58 L 4100.98 3094.79 L 4101.59 3094.99 L 4102.62 3094.99 L 4103.23 3094.79 L 4103.64 3094.58 L 4104.05 3094.17 L 4104.25 3093.76 L 4104.25 3092.94 L 4104.05 3092.54 L 4103.64 3092.13 L 4103.23 3091.92 L 4102.62 3091.72 L 4101.59 3091.72 L 4100.98 3091.92 L 4100.57 3092.13 L 4100.16 3092.54 L 4099.96 3092.94 L 4099.96 3093.76 M 4103.43 3093.15 L 4104.66 3091.92 M 4099.96 3089.96 L 4099.96 3087.71 L 4101.59 3088.94 L 4101.59 3088.32 L 4101.8 3087.91 L 4102 3087.71 L 4102.62 3087.5 L 4103.03 3087.5 L 4103.64 3087.71 L 4104.05 3088.12 L 4104.25 3088.73 L 4104.25 3089.34 L 4104.05 3089.96 L 4103.84 3090.16 L 4103.43 3090.37 M 4102.41 3086.15 L 4102.41 3082.47 M 4099.96 3081.12 L 4104.25 3081.12 M 4099.96 3081.12 L 4099.96 3079.28 L 4100.16 3078.67 L 4100.37 3078.46 L 4100.78 3078.26 L 4101.18 3078.26 L 4101.59 3078.46 L 4101.8 3078.67 L 4102 3079.28 M 4102 3081.12 L 4102 3079.28 L 4102.21 3078.67 L 4102.41 3078.46 L 4102.82 3078.26 L 4103.43 3078.26 L 4103.84 3078.46 L 4104.05 3078.67 L 4104.25 3079.28 L 4104.25 3081.12" fill="none" layerid="3"  stroke-linecap="round" stroke-width="0.7" /> <polyline points="4094.2 3078.5 4077.8 3078.5" stroke-width="1"   stroke-linecap="round" fill="none" layerid="3"/> <polyline points="4096.5 3084 4094.9 3084" stroke-width="1"   stroke-linecap="round" fill="none" layerid="3"/> <polyline points="4077.1 3084 4075.5 3084" stroke-width="1"   stroke-linecap="round" fill="none" layerid="3"/>  <path d="M 4094.25 3078.5 A 10.5 10.5 0 0 1 4089.1 3095.03" layerid="3" fill="none"  stroke-linecap="round" stroke-width="1"/>  <path d="M 4082.9 3095.03 A 10.5 10.5 0 0 1 4077.75 3078.5" layerid="3" fill="none"  stroke-linecap="round" stroke-width="1"/><path d="M 4054.81 3127.11 L 4058.08 3127.11 L 4058.69 3127.32 L 4058.9 3127.52 L 4059.1 3127.93 L 4059.1 3128.34 L 4058.9 3128.75 L 4058.69 3128.96 L 4058.08 3129.16 L 4057.67 3129.16 M 4055.62 3125.76 L 4055.42 3125.36 L 4054.81 3124.74 L 4059.1 3124.74" fill="none" layerid="3"  stroke-linecap="round" stroke-width="0.7" /> <polyline points="4066 3123 4056 3123" stroke-width="1"   stroke-linecap="round" fill="none" layerid="3"/> <polyline points="4056 3123 4056 3113" stroke-width="1"   stroke-linecap="round" fill="none" layerid="3"/> <polyline points="4056 3113 4056 3083" stroke-width="1"   stroke-linecap="round" fill="none" layerid="3"/> <polyline points="4056 3083 4066 3083" stroke-width="1"   stroke-linecap="round" fill="none" layerid="3"/> <polyline points="4066 3083 4066 3113" stroke-width="1"   stroke-linecap="round" fill="none" layerid="3"/> <polyline points="4066 3113 4066 3123" stroke-width="1"   stroke-linecap="round" fill="none" layerid="3"/> <polyline points="4066 3113 4056 3113" stroke-width="1"   stroke-linecap="round" fill="none" layerid="3"/><path d="M 4195.67 3106.86 L 4195.67 3103.8 L 4195.47 3103.18 L 4195.06 3102.77 L 4194.44 3102.57 L 4194.03 3102.57 L 4193.42 3102.77 L 4193.01 3103.18 L 4192.81 3103.8 L 4192.81 3106.86 M 4191.25 3105.84 L 4191.25 3106.05 L 4191.05 3106.46 L 4190.84 3106.66 L 4190.43 3106.86 L 4189.62 3106.86 L 4189.21 3106.66 L 4189 3106.46 L 4188.8 3106.05 L 4188.8 3105.64 L 4189 3105.23 L 4189.41 3104.61 L 4191.46 3102.57 L 4188.59 3102.57" fill="none" layerid="3"  stroke-linecap="round" stroke-width="0.7" /> <polyline points="4177.2 3123.7 4177.2 3084.3" stroke-width="1"   stroke-linecap="round" fill="none" layerid="3"/> <polyline points="4177.2 3084.3 4184 3084.3" stroke-width="1"   stroke-linecap="round" fill="none" layerid="3"/> <polyline points="4184 3084.3 4203.9 3084.3" stroke-width="1"   stroke-linecap="round" fill="none" layerid="3"/> <polyline points="4203.9 3084.3 4206.8 3084.3" stroke-width="1"   stroke-linecap="round" fill="none" layerid="3"/> <polyline points="4206.8 3084.3 4206.8 3123.7" stroke-width="1"   stroke-linecap="round" fill="none" layerid="3"/> <polyline points="4206.8 3123.7 4203.9 3123.7" stroke-width="1"   stroke-linecap="round" fill="none" layerid="3"/> <polyline points="4203.9 3123.7 4184 3123.7" stroke-width="1"   stroke-linecap="round" fill="none" layerid="3"/> <polyline points="4184 3123.7 4183.5 3123.7" stroke-width="1"   stroke-linecap="round" fill="none" layerid="3"/> <polyline points="4183.5 3123.7 4181.2 3123.7" stroke-width="1"   stroke-linecap="round" fill="none" layerid="3"/> <polyline points="4181.2 3123.7 4177.2 3123.7" stroke-width="1"   stroke-linecap="round" fill="none" layerid="3"/> <polyline points="4181.2 3123.7 4180.6 3126" stroke-width="1"   stroke-linecap="round" fill="none" layerid="3"/> <polyline points="4180.6 3126 4184.1 3126" stroke-width="1"   stroke-linecap="round" fill="none" layerid="3"/> <polyline points="4184.1 3126 4183.5 3123.7" stroke-width="1"   stroke-linecap="round" fill="none" layerid="3"/> <polyline points="4184 3123.7 4184 3084.3" stroke-width="1"   stroke-linecap="round" fill="none" layerid="3"/> <polyline points="4203.9 3123.7 4203.9 3084.3" stroke-width="1"   stroke-linecap="round" fill="none" layerid="3"/><path d="M 4199.9 3088.3 L 4199.76 3088.03 L 4199.35 3087.62 L 4202.22 3087.62" fill="none" layerid="3"  stroke-linecap="round" stroke-width="0.6" />      <circle cx="4182.4" cy="3113.8" r="1.8" layerid="3" stroke-width="1" fill="none" />      <circle cx="4182.4" cy="3094.2" r="1.8" layerid="3" stroke-width="1" fill="none" /><path d="M 4168.5 3095.54 L 4168.5 3098.6 L 4168.7 3099.22 L 4169.11 3099.63 L 4169.73 3099.83 L 4170.14 3099.83 L 4170.75 3099.63 L 4171.16 3099.22 L 4171.36 3098.6 L 4171.36 3095.54 M 4173.12 3095.54 L 4175.37 3095.54 L 4174.15 3097.17 L 4174.76 3097.17 L 4175.17 3097.38 L 4175.37 3097.58 L 4175.58 3098.19 L 4175.58 3098.6 L 4175.37 3099.22 L 4174.96 3099.63 L 4174.35 3099.83 L 4173.74 3099.83 L 4173.12 3099.63 L 4172.92 3099.42 L 4172.71 3099.01" fill="none" layerid="3"  stroke-linecap="round" stroke-width="0.7" /> <polyline points="4170.2 3079.5 4153.8 3079.5" stroke-width="1"   stroke-linecap="round" fill="none" layerid="3"/> <polyline points="4172.5 3085 4170.9 3085" stroke-width="1"   stroke-linecap="round" fill="none" layerid="3"/> <polyline points="4163.1 3085 4160.9 3085" stroke-width="1"   stroke-linecap="round" fill="none" layerid="3"/> <polyline points="4153.1 3085 4151.5 3085" stroke-width="1"   stroke-linecap="round" fill="none" layerid="3"/>  <path d="M 4170.25 3079.5 A 10.5 10.5 0 0 1 4165.1 3096.03" layerid="3" fill="none"  stroke-linecap="round" stroke-width="1"/>  <path d="M 4158.9 3096.03 A 10.5 10.5 0 0 1 4153.75 3079.5" layerid="3" fill="none"  stroke-linecap="round" stroke-width="1"/><g id="gge1628" layerid="3" c_partid="part_svg" c_shapetype="group" layer_front="1" layer_show="1"><path d="M 4162 3105 C 4162 3105.1 4161.9 3105.5 4161.8 3106 C 4161.7 3106.5 4161.6 3107.1 4161.6 3107.1 C 4161.6 3107.3 4161.5 3107.4 4160.8 3107.6 C 4160 3107.9 4160.2 3107.9 4159.2 3107.3 C 4158.9 3107 4158.5 3106.8 4158.5 3106.7 L 4158.3 3106.6 L 4157.6 3107.4 C 4157.2 3107.7 4156.8 3108 4156.8 3108.1 C 4156.8 3108.2 4156.9 3108.4 4157.3 3109 C 4158 3110 4158 3109.8 4157.6 3110.8 C 4157.3 3111.4 4157.3 3111.5 4157.2 3111.5 C 4157.1 3111.5 4156.6 3111.6 4156.1 3111.7 C 4155.6 3111.8 4155.3 3111.9 4155.2 3112 C 4155.2 3112.1 4155.2 3114 4155.2 3114.1 C 4155.3 3114.2 4155.6 3114.3 4156.2 3114.4 C 4156.7 3114.5 4157.2 3114.6 4157.2 3114.6 C 4157.3 3114.6 4157.3 3114.7 4157.4 3114.8 C 4157.4 3115 4157.6 3115.4 4157.7 3115.7 L 4157.9 3116.3 L 4157.7 3116.5 C 4157.6 3116.7 4157.4 3117 4157.2 3117.2 C 4157.1 3117.4 4156.9 3117.7 4156.9 3117.8 L 4156.7 3118.1 L 4157.5 3118.8 C 4157.9 3119.3 4158.3 3119.6 4158.3 3119.6 C 4158.3 3119.6 4158.7 3119.4 4159.2 3119 L 4160 3118.4 L 4160.4 3118.7 C 4160.7 3118.9 4160.8 3118.9 4160.8 3118.8 C 4161 3118.6 4162.3 3115.2 4162.3 3115.2 C 4162.2 3115.1 4162.1 3115 4161.9 3114.8 C 4161.5 3114.6 4161.3 3114.3 4161.1 3113.9 C 4160.6 3112.7 4161.3 3111.2 4162.6 3111 C 4163.4 3110.7 4164.3 3111.1 4164.8 3111.7 C 4165.1 3112.2 4165.2 3112.6 4165.2 3113.2 C 4165.2 3113.9 4164.9 3114.5 4164.2 3114.9 C 4164 3115 4163.9 3115.2 4163.9 3115.2 C 4163.9 3115.2 4164 3115.5 4164.1 3115.7 C 4164.1 3115.9 4164.4 3116.5 4164.7 3117.2 C 4164.9 3117.9 4165.2 3118.4 4165.2 3118.6 C 4165.3 3118.7 4165.4 3118.9 4165.4 3118.9 C 4165.4 3118.9 4165.6 3118.8 4165.8 3118.6 L 4166.2 3118.4 L 4167 3119 C 4167.4 3119.4 4167.8 3119.6 4167.9 3119.6 C 4168 3119.6 4169.4 3118.1 4169.4 3118 C 4169.4 3118 4169.1 3117.6 4168.9 3117.2 C 4168.6 3116.7 4168.4 3116.4 4168.3 3116.4 C 4168.3 3116.3 4168.3 3116.1 4168.6 3115.4 C 4168.7 3115 4168.9 3114.6 4168.9 3114.6 C 4168.9 3114.6 4169.4 3114.5 4169.8 3114.4 C 4170.3 3114.3 4170.8 3114.2 4170.8 3114.2 C 4170.9 3114.2 4170.9 3114.1 4170.9 3113 C 4170.9 3111.9 4170.9 3111.9 4170.8 3111.9 C 4170.7 3111.9 4170.3 3111.8 4169.8 3111.7 C 4169.3 3111.6 4168.9 3111.5 4168.9 3111.5 C 4168.9 3111.5 4168.7 3111.1 4168.5 3110.7 L 4168.2 3109.9 L 4168.8 3109.2 C 4169.1 3108.7 4169.4 3108.2 4169.4 3108.1 C 4169.4 3108 4168 3106.6 4167.8 3106.6 C 4167.8 3106.6 4167.5 3106.9 4167.2 3107.1 C 4166.8 3107.4 4166.5 3107.6 4166.3 3107.7 L 4166 3107.9 L 4165.8 3107.7 C 4165.3 3107.6 4164.7 3107.3 4164.6 3107.3 C 4164.6 3107.3 4164.6 3107.1 4164.4 3105.9 C 4164.3 3105.5 4164.2 3105.1 4164.2 3105.1 C 4164.1 3105 4163.9 3105 4163.1 3105 C 4162.5 3105 4162 3105 4162 3105" id="gge24" stroke="none"/></g> <path  d="M4050,3060L4211,3060M4055,3063L4050,3060L4055,3057M4206,3063L4211,3060L4206,3057M 4133.05 3049.55L4128.5 3055.91 L4135.32 3055.91 M 4133.05 3049.55L4133.05 3059.09 M 4141.05 3049.55L4139.68 3050 L4138.77 3051.36 L4138.32 3053.64 L4138.32 3055 L4138.77 3057.27 L4139.68 3058.64 L4141.05 3059.09 L4141.95 3059.09 L4143.32 3058.64 L4144.23 3057.27 L4144.68 3055 L4144.68 3053.64 L4144.23 3051.36 L4143.32 3050 L4141.95 3049.55 L4141.05 3049.55 M 4148.14 3056.82L4147.68 3057.27 L4148.14 3057.73 L4148.59 3057.27 L4148.14 3056.82 M 4153.86 3049.55L4152.5 3050 L4152.05 3050.91 L4152.05 3051.82 L4152.5 3052.73 L4153.41 3053.18 L4155.23 3053.64 L4156.59 3054.09 L4157.5 3055 L4157.95 3055.91 L4157.95 3057.27 L4157.5 3058.18 L4157.05 3058.64 L4155.68 3059.09 L4153.86 3059.09 L4152.5 3058.64 L4152.05 3058.18 L4151.59 3057.27 L4151.59 3055.91 L4152.05 3055 L4152.95 3054.09 L4154.32 3053.64 L4156.14 3053.18 L4157.05 3052.73 L4157.5 3051.82 L4157.5 3050.91 L4157.05 3050 L4155.68 3049.55 L4153.86 3049.55 M 4166.86 3052.73L4166.41 3054.09 L4165.5 3055 L4164.14 3055.45 L4163.68 3055.45 L4162.32 3055 L4161.41 3054.09 L4160.95 3052.73 L4160.95 3052.27 L4161.41 3050.91 L4162.32 3050 L4163.68 3049.55 L4164.14 3049.55 L4165.5 3050 L4166.41 3050.91 L4166.86 3052.73 L4166.86 3055 L4166.41 3057.27 L4165.5 3058.64 L4164.14 3059.09 L4163.23 3059.09 L4161.86 3058.64 L4161.41 3057.73 M 4169.86 3052.73L4169.86 3059.09 M 4169.86 3054.55L4171.23 3053.18 L4172.14 3052.73 L4173.5 3052.73 L4174.41 3053.18 L4174.86 3054.55 L4174.86 3059.09 M 4174.86 3054.55L4176.23 3053.18 L4177.14 3052.73 L4178.5 3052.73 L4179.41 3053.18 L4179.86 3054.55 L4179.86 3059.09 M 4182.86 3052.73L4182.86 3059.09 M 4182.86 3054.55L4184.23 3053.18 L4185.14 3052.73 L4186.5 3052.73 L4187.41 3053.18 L4187.86 3054.55 L4187.86 3059.09 M 4187.86 3054.55L4189.23 3053.18 L4190.14 3052.73 L4191.5 3052.73 L4192.41 3053.18 L4192.86 3054.55 L4192.86 3059.09 "  layerid="3" stroke-linecap="round" fill="none"  stroke-width="1" /><path d="M 4182.83 3073.79 L 4182.83 3080.33 M 4179.56 3077.06 L 4186.11 3077.06 M 4188.51 3074.15 L 4189.23 3073.79 L 4190.32 3072.7 L 4190.32 3080.33 M 4193.09 3074.51 L 4193.09 3074.15 L 4193.45 3073.42 L 4193.81 3073.06 L 4194.54 3072.7 L 4196 3072.7 L 4196.72 3073.06 L 4197.09 3073.42 L 4197.45 3074.15 L 4197.45 3074.88 L 4197.09 3075.61 L 4196.36 3076.7 L 4192.72 3080.33 L 4197.81 3080.33 M 4200.21 3072.7 L 4203.12 3080.33 M 4206.03 3072.7 L 4203.12 3080.33" fill="none" layerid="3"  stroke-linecap="round" stroke-width="0.8" /><path d="M 4189.66 3130.41 L 4189.3 3129.69 L 4188.57 3128.96 L 4187.85 3128.6 L 4186.39 3128.6 L 4185.66 3128.96 L 4184.94 3129.69 L 4184.57 3130.41 L 4184.21 3131.51 L 4184.21 3133.32 L 4184.57 3134.41 L 4184.94 3135.14 L 4185.66 3135.87 L 4186.39 3136.23 L 4187.85 3136.23 L 4188.57 3135.87 L 4189.3 3135.14 L 4189.66 3134.41 L 4189.66 3133.32 M 4187.85 3133.32 L 4189.66 3133.32 M 4192.06 3128.6 L 4192.06 3136.23 M 4192.06 3128.6 L 4197.16 3136.23 M 4197.16 3128.6 L 4197.16 3136.23 M 4199.56 3128.6 L 4199.56 3136.23 M 4199.56 3128.6 L 4202.1 3128.6 L 4203.19 3128.96 L 4203.92 3129.69 L 4204.28 3130.41 L 4204.65 3131.51 L 4204.65 3133.32 L 4204.28 3134.41 L 4203.92 3135.14 L 4203.19 3135.87 L 4202.1 3136.23 L 4199.56 3136.23" fill="none" layerid="3"  stroke-linecap="round" stroke-width="0.8" /><path d="M 4082.99 3135.92 L 4082.99 3138.47 L 4082.83 3138.95 L 4082.67 3139.11 L 4082.35 3139.27 L 4081.88 3139.27 L 4081.56 3139.11 M 4082.99 3136.4 L 4082.67 3136.08 L 4082.35 3135.92 L 4081.88 3135.92 L 4081.56 3136.08 L 4081.24 3136.4 L 4081.08 3136.88 L 4081.08 3137.2 L 4081.24 3137.67 L 4081.56 3137.99 L 4081.88 3138.15 L 4082.35 3138.15 L 4082.67 3137.99 L 4082.99 3137.67 M 4084.04 3134.81 L 4084.2 3134.97 L 4084.36 3134.81 L 4084.2 3134.65 L 4084.04 3134.81 M 4084.2 3135.92 L 4084.2 3138.15 M 4085.88 3134.81 L 4085.88 3137.52 L 4086.04 3137.99 L 4086.36 3138.15 L 4086.68 3138.15 M 4085.41 3135.92 L 4086.52 3135.92 M 4087.73 3134.81 L 4087.73 3138.15 M 4087.73 3136.56 L 4088.21 3136.08 L 4088.53 3135.92 L 4089 3135.92 L 4089.32 3136.08 L 4089.48 3136.56 L 4089.48 3138.15 M 4090.53 3135.92 L 4090.53 3137.52 L 4090.69 3137.99 L 4091.01 3138.15 L 4091.48 3138.15 L 4091.8 3137.99 L 4092.28 3137.52 M 4092.28 3135.92 L 4092.28 3138.15 M 4093.33 3134.81 L 4093.33 3138.15 M 4093.33 3136.4 L 4093.65 3136.08 L 4093.97 3135.92 L 4094.44 3135.92 L 4094.76 3136.08 L 4095.08 3136.4 L 4095.24 3136.88 L 4095.24 3137.2 L 4095.08 3137.67 L 4094.76 3137.99 L 4094.44 3138.15 L 4093.97 3138.15 L 4093.65 3137.99 L 4093.33 3137.67 M 4096.45 3137.36 L 4096.29 3137.52 L 4096.45 3137.67 L 4096.61 3137.52 L 4096.45 3137.36 M 4099.57 3136.4 L 4099.25 3136.08 L 4098.93 3135.92 L 4098.45 3135.92 L 4098.13 3136.08 L 4097.82 3136.4 L 4097.66 3136.88 L 4097.66 3137.2 L 4097.82 3137.67 L 4098.13 3137.99 L 4098.45 3138.15 L 4098.93 3138.15 L 4099.25 3137.99 L 4099.57 3137.67 M 4101.41 3135.92 L 4101.09 3136.08 L 4100.78 3136.4 L 4100.62 3136.88 L 4100.62 3137.2 L 4100.78 3137.67 L 4101.09 3137.99 L 4101.41 3138.15 L 4101.89 3138.15 L 4102.21 3137.99 L 4102.53 3137.67 L 4102.68 3137.2 L 4102.68 3136.88 L 4102.53 3136.4 L 4102.21 3136.08 L 4101.89 3135.92 L 4101.41 3135.92 M 4103.73 3135.92 L 4103.73 3138.15 M 4103.73 3136.56 L 4104.21 3136.08 L 4104.53 3135.92 L 4105.01 3135.92 L 4105.33 3136.08 L 4105.48 3136.56 L 4105.48 3138.15 M 4105.48 3136.56 L 4105.96 3136.08 L 4106.28 3135.92 L 4106.76 3135.92 L 4107.08 3136.08 L 4107.23 3136.56 L 4107.23 3138.15 M 4111.15 3134.17 L 4108.28 3139.27 M 4112.83 3134.81 L 4112.99 3134.97 L 4113.15 3134.81 L 4112.99 3134.65 L 4112.83 3134.81 M 4112.99 3135.92 L 4112.99 3138.63 L 4112.83 3139.11 L 4112.52 3139.27 L 4112.2 3139.27 M 4116.11 3135.92 L 4116.11 3138.15 M 4116.11 3136.4 L 4115.79 3136.08 L 4115.48 3135.92 L 4115 3135.92 L 4114.68 3136.08 L 4114.36 3136.4 L 4114.2 3136.88 L 4114.2 3137.2 L 4114.36 3137.67 L 4114.68 3137.99 L 4115 3138.15 L 4115.48 3138.15 L 4115.79 3137.99 L 4116.11 3137.67 M 4117.16 3134.81 L 4117.32 3134.97 L 4117.48 3134.81 L 4117.32 3134.65 L 4117.16 3134.81 M 4117.32 3135.92 L 4117.32 3138.15 M 4118.53 3135.92 L 4118.53 3138.15 M 4118.53 3136.56 L 4119.01 3136.08 L 4119.33 3135.92 L 4119.8 3135.92 L 4120.12 3136.08 L 4120.28 3136.56 L 4120.28 3138.15 M 4120.28 3136.56 L 4120.76 3136.08 L 4121.08 3135.92 L 4121.55 3135.92 L 4121.87 3136.08 L 4122.03 3136.56 L 4122.03 3138.15 M 4123.08 3136.88 L 4124.99 3136.88 L 4124.99 3136.56 L 4124.83 3136.24 L 4124.67 3136.08 L 4124.35 3135.92 L 4123.88 3135.92 L 4123.56 3136.08 L 4123.24 3136.4 L 4123.08 3136.88 L 4123.08 3137.2 L 4123.24 3137.67 L 4123.56 3137.99 L 4123.88 3138.15 L 4124.35 3138.15 L 4124.67 3137.99 L 4124.99 3137.67 M 4126.04 3134.81 L 4126.04 3138.15 M 4129 3135.92 L 4129 3138.15 M 4129 3136.4 L 4128.68 3136.08 L 4128.36 3135.92 L 4127.88 3135.92 L 4127.57 3136.08 L 4127.25 3136.4 L 4127.09 3136.88 L 4127.09 3137.2 L 4127.25 3137.67 L 4127.57 3137.99 L 4127.88 3138.15 L 4128.36 3138.15 L 4128.68 3137.99 L 4129 3137.67 M 4130.05 3134.81 L 4130.05 3138.15 M 4130.05 3136.4 L 4130.37 3136.08 L 4130.68 3135.92 L 4131.16 3135.92 L 4131.48 3136.08 L 4131.8 3136.4 L 4131.96 3136.88 L 4131.96 3137.2 L 4131.8 3137.67 L 4131.48 3137.99 L 4131.16 3138.15 L 4130.68 3138.15 L 4130.37 3137.99 L 4130.05 3137.67 M 4133.8 3135.92 L 4133.48 3136.08 L 4133.17 3136.4 L 4133.01 3136.88 L 4133.01 3137.2 L 4133.17 3137.67 L 4133.48 3137.99 L 4133.8 3138.15 L 4134.28 3138.15 L 4134.6 3137.99 L 4134.92 3137.67 L 4135.08 3137.2 L 4135.08 3136.88 L 4134.92 3136.4 L 4134.6 3136.08 L 4134.28 3135.92 L 4133.8 3135.92 M 4136.13 3135.92 L 4136.13 3138.15 M 4136.13 3136.88 L 4136.28 3136.4 L 4136.6 3136.08 L 4136.92 3135.92 L 4137.4 3135.92 M 4140.36 3134.81 L 4140.36 3138.15 M 4140.36 3136.4 L 4140.04 3136.08 L 4139.72 3135.92 L 4139.24 3135.92 L 4138.93 3136.08 L 4138.61 3136.4 L 4138.45 3136.88 L 4138.45 3137.2 L 4138.61 3137.67 L 4138.93 3137.99 L 4139.24 3138.15 L 4139.72 3138.15 L 4140.04 3137.99 L 4140.36 3137.67 M 4143.32 3135.92 L 4143.32 3138.15 M 4143.32 3136.4 L 4143 3136.08 L 4142.68 3135.92 L 4142.2 3135.92 L 4141.88 3136.08 L 4141.57 3136.4 L 4141.41 3136.88 L 4141.41 3137.2 L 4141.57 3137.67 L 4141.88 3137.99 L 4142.2 3138.15 L 4142.68 3138.15 L 4143 3137.99 L 4143.32 3137.67" fill="none" layerid="3"  stroke-linecap="round" stroke-width="0.5" /><path d="M 4058.98 3070.26 L 4057.17 3075.14 M 4058.98 3070.26 L 4060.92 3075.14 M 4057.88 3073.53 L 4060.17 3073.53 M 4063.13 3070.26 L 4063.13 3074.21 L 4063.38 3074.91 L 4063.8 3075.14 L 4064.3 3075.14 M 4062.42 3071.89 L 4064.05 3071.89 M 4066.48 3070.26 L 4066.48 3074.21 L 4066.73 3074.91 L 4067.23 3075.14 L 4067.69 3075.14 M 4065.8 3071.89 L 4067.44 3071.89 M 4069.28 3070.26 L 4069.48 3070.49 L 4069.69 3070.26 L 4069.48 3070.03 L 4069.28 3070.26 M 4069.48 3071.89 L 4069.48 3075.14 M 4071.28 3071.89 L 4071.28 3075.14 M 4071.28 3072.82 L 4071.94 3072.13 L 4072.42 3071.89 L 4073.05 3071.89 L 4073.55 3072.13 L 4073.8 3072.82 L 4073.8 3075.14 M 4075.55 3071.89 L 4076.98 3075.14 M 4078.3 3071.89 L 4076.98 3075.14 L 4076.53 3076.07 L 4076.03 3076.55 L 4075.55 3076.78 L 4075.3 3076.78 M 4083.48 3070.26 L 4083.48 3075.14 M 4083.48 3070.26 L 4085.55 3070.26 L 4086.3 3070.49 L 4086.53 3070.72 L 4086.78 3071.19 L 4086.78 3071.65 L 4086.53 3072.13 L 4086.3 3072.36 L 4085.55 3072.59 L 4083.48 3072.59 M 4085.05 3072.59 L 4086.78 3075.14 M 4091.82 3071.42 L 4091.57 3070.96 L 4091.07 3070.49 L 4090.57 3070.26 L 4089.71 3070.26 L 4089.25 3070.49 L 4088.78 3070.96 L 4088.53 3071.42 L 4088.32 3072.13 L 4088.32 3073.28 L 4088.53 3073.98 L 4088.78 3074.45 L 4089.25 3074.91 L 4089.71 3075.14 L 4090.57 3075.14 L 4091.07 3074.91 L 4091.57 3074.45 L 4091.82 3073.98 L 4091.82 3073.28 M 4090.57 3073.28 L 4091.82 3073.28 M 4093.34 3070.26 L 4093.34 3075.14 M 4093.34 3070.26 L 4095.42 3070.26 L 4096.09 3070.49 L 4096.34 3070.72 L 4096.59 3071.19 L 4096.59 3071.65 L 4096.34 3072.13 L 4096.09 3072.36 L 4095.42 3072.59 M 4093.34 3072.59 L 4095.42 3072.59 L 4096.09 3072.82 L 4096.34 3073.05 L 4096.59 3073.53 L 4096.59 3074.21 L 4096.34 3074.68 L 4096.09 3074.91 L 4095.42 3075.14 L 4093.34 3075.14 M 4101.71 3070.26 L 4101.71 3075.14 M 4101.71 3075.14 L 4104.5 3075.14 M 4106.05 3070.26 L 4106.05 3075.14 M 4106.05 3070.26 L 4109.09 3070.26 M 4106.05 3072.59 L 4107.92 3072.59 M 4106.05 3075.14 L 4109.09 3075.14 M 4110.59 3070.26 L 4110.59 3075.14 M 4110.59 3070.26 L 4112.25 3070.26 L 4112.92 3070.49 L 4113.42 3070.96 L 4113.59 3071.42 L 4113.84 3072.13 L 4113.84 3073.28 L 4113.59 3073.98 L 4113.42 3074.45 L 4112.92 3074.91 L 4112.25 3075.14 L 4110.59 3075.14 M 4122.25 3070.96 L 4121.8 3070.49 L 4121.09 3070.26 L 4120.17 3070.26 L 4119.46 3070.49 L 4119 3070.96 L 4119 3071.42 L 4119.21 3071.89 L 4119.46 3072.13 L 4119.92 3072.36 L 4121.34 3072.82 L 4121.8 3073.05 L 4122 3073.28 L 4122.25 3073.76 L 4122.25 3074.45 L 4121.8 3074.91 L 4121.09 3075.14 L 4120.17 3075.14 L 4119.46 3074.91 L 4119 3074.45 M 4124.46 3070.26 L 4124.46 3074.21 L 4124.71 3074.91 L 4125.17 3075.14 L 4125.59 3075.14 M 4123.8 3071.89 L 4125.42 3071.89 M 4127.17 3071.89 L 4127.17 3075.14 M 4127.17 3073.28 L 4127.42 3072.59 L 4127.84 3072.13 L 4128.34 3071.89 L 4129.05 3071.89 M 4130.59 3070.26 L 4130.8 3070.49 L 4131.05 3070.26 L 4130.8 3070.03 L 4130.59 3070.26 M 4130.8 3071.89 L 4130.8 3075.14 M 4132.59 3071.89 L 4132.59 3076.78 M 4132.59 3072.59 L 4133.05 3072.13 L 4133.5 3071.89 L 4134.21 3071.89 L 4134.67 3072.13 L 4135.09 3072.59 L 4135.34 3073.28 L 4135.34 3073.76 L 4135.09 3074.45 L 4134.67 3074.91 L 4134.21 3075.14 L 4133.5 3075.14 L 4133.05 3074.91 L 4132.59 3074.45 M 4140.5 3070.26 L 4140.5 3075.14 M 4140.5 3070.26 L 4142.09 3070.26 L 4142.84 3070.49 L 4143.3 3070.96 L 4143.5 3071.42 L 4143.75 3072.13 L 4143.75 3073.28 L 4143.5 3073.98 L 4143.3 3074.45 L 4142.84 3074.91 L 4142.09 3075.14 L 4140.5 3075.14 M 4145.3 3071.89 L 4145.3 3075.14 M 4145.3 3073.28 L 4145.5 3072.59 L 4145.96 3072.13 L 4146.42 3071.89 L 4147.09 3071.89 M 4148.67 3070.26 L 4148.92 3070.49 L 4149.09 3070.26 L 4148.92 3070.03 L 4148.67 3070.26 M 4148.92 3071.89 L 4148.92 3075.14 M 4150.67 3071.89 L 4152.09 3075.14 M 4153.46 3071.89 L 4152.09 3075.14 M 4155 3073.28 L 4157.8 3073.28 L 4157.8 3072.82 L 4157.55 3072.36 L 4157.34 3072.13 L 4156.84 3071.89 L 4156.17 3071.89 L 4155.71 3072.13 L 4155.25 3072.59 L 4155 3073.28 L 4155 3073.76 L 4155.25 3074.45 L 4155.71 3074.91 L 4156.17 3075.14 L 4156.84 3075.14 L 4157.34 3074.91 L 4157.8 3074.45 M 4159.34 3071.89 L 4159.34 3075.14 M 4159.34 3073.28 L 4159.59 3072.59 L 4160.05 3072.13 L 4160.5 3071.89 L 4161.17 3071.89" fill="none" layerid="3"  stroke-linecap="round" stroke-width="0.5" /> <path  d="M4031,3067L4031,3142M4034,3072L4031,3067L4028,3072M4034,3137L4031,3142L4028,3137M 4027.45 3116.5 L 4027.89 3117.36 L 4029.18 3118.66 L 4020.11 3118.66 M 4026.16 3127.12 L 4024.86 3126.69 L 4024 3125.83 L 4023.57 3124.53 L 4023.57 3124.1 L 4024 3122.8 L 4024.86 3121.94 L 4026.16 3121.51 L 4026.59 3121.51 L 4027.89 3121.94 L 4028.75 3122.8 L 4029.18 3124.1 L 4029.18 3124.53 L 4028.75 3125.83 L 4027.89 3126.69 L 4026.16 3127.12 L 4024 3127.12 L 4021.84 3126.69 L 4020.55 3125.83 L 4020.11 3124.53 L 4020.11 3123.67 L 4020.55 3122.37 L 4021.41 3121.94 M 4022.27 3130.4 L 4021.84 3129.97 L 4021.41 3130.4 L 4021.84 3130.84 L 4022.27 3130.4 M 4029.18 3136.28 L 4028.75 3134.98 L 4027.45 3134.12 L 4025.3 3133.69 L 4024 3133.69 L 4021.84 3134.12 L 4020.55 3134.98 L 4020.11 3136.28 L 4020.11 3137.14 L 4020.55 3138.44 L 4021.84 3139.3 L 4024 3139.73 L 4025.3 3139.73 L 4027.45 3139.3 L 4028.75 3138.44 L 4029.18 3137.14 L 4029.18 3136.28 M 4029.18 3147.76 L 4029.18 3143.45 L 4025.3 3143.01 L 4025.73 3143.45 L 4026.16 3144.74 L 4026.16 3146.04 L 4025.73 3147.33 L 4024.86 3148.2 L 4023.57 3148.63 L 4022.7 3148.63 L 4021.41 3148.2 L 4020.55 3147.33 L 4020.11 3146.04 L 4020.11 3144.74 L 4020.55 3143.45 L 4020.98 3143.01 L 4021.84 3142.58 M 4026.16 3151.48 L 4020.11 3151.48 M 4024.43 3151.48 L 4025.73 3152.77 L 4026.16 3153.64 L 4026.16 3154.93 L 4025.73 3155.8 L 4024.43 3156.23 L 4020.11 3156.23 M 4024.43 3156.23 L 4025.73 3157.52 L 4026.16 3158.39 L 4026.16 3159.68 L 4025.73 3160.55 L 4024.43 3160.98 L 4020.11 3160.98 M 4026.16 3163.83 L 4020.11 3163.83 M 4024.43 3163.83 L 4025.73 3165.12 L 4026.16 3165.99 L 4026.16 3167.28 L 4025.73 3168.15 L 4024.43 3168.58 L 4020.11 3168.58 M 4024.43 3168.58 L 4025.73 3169.87 L 4026.16 3170.74 L 4026.16 3172.03 L 4025.73 3172.9 L 4024.43 3173.33 L 4020.11 3173.33"  layerid="3" stroke-linecap="round" fill="none"  stroke-width="1" /><path d="M 4071.3 3113.8 L 4067.62 3113.8 M 4069.46 3111.96 L 4069.46 3115.63 M 4071.09 3116.98 L 4071.3 3117.39 L 4071.91 3118 L 4067.62 3118 M 4070.89 3119.55 L 4071.09 3119.55 L 4071.5 3119.75 L 4071.7 3119.96 L 4071.91 3120.37 L 4071.91 3121.18 L 4071.7 3121.59 L 4071.5 3121.79 L 4071.09 3122 L 4070.68 3122 L 4070.28 3121.79 L 4069.66 3121.39 L 4067.62 3119.35 L 4067.62 3122.2" fill="none" layerid="3"  stroke-linecap="round" stroke-width="0.8" /><path d="M 4070.93 3109.26 L 4071.34 3109.06 L 4071.74 3108.65 L 4071.95 3108.24 L 4071.95 3107.42 L 4071.74 3107.02 L 4071.34 3106.61 L 4070.93 3106.4 L 4070.32 3106.2 L 4069.3 3106.2 L 4068.68 3106.4 L 4068.28 3106.61 L 4067.87 3107.02 L 4067.66 3107.42 L 4067.66 3108.24 L 4067.87 3108.65 L 4068.28 3109.06 L 4068.68 3109.26 L 4069.3 3109.26 M 4069.3 3108.24 L 4069.3 3109.26" fill="none" layerid="3"  stroke-linecap="round" stroke-width="0.8" /><path d="M 4072.05 3096.4 L 4067.76 3096.4 M 4072.05 3096.4 L 4072.05 3098.24 L 4071.84 3098.85 L 4071.64 3099.05 L 4071.23 3099.26 L 4070.82 3099.26 L 4070.42 3099.05 L 4070.21 3098.85 L 4070.01 3098.24 L 4070.01 3096.4 M 4070.01 3097.83 L 4067.76 3099.26" fill="none" layerid="3"  stroke-linecap="round" stroke-width="0.8" /><path d="M 4072.35 3086.8 L 4068.06 3086.8 M 4072.35 3086.8 L 4072.35 3088.64 L 4072.14 3089.25 L 4071.94 3089.45 L 4071.53 3089.66 L 4071.12 3089.66 L 4070.72 3089.45 L 4070.51 3089.25 L 4070.31 3088.64 M 4070.31 3086.8 L 4070.31 3088.64 L 4070.1 3089.25 L 4069.9 3089.45 L 4069.49 3089.66 L 4068.88 3089.66 L 4068.47 3089.45 L 4068.27 3089.25 L 4068.06 3088.64 L 4068.06 3086.8" fill="none" layerid="3"  stroke-linecap="round" stroke-width="0.8" /><path d="M 4167.27 3074.46 L 4167.27 3078.14 M 4165.43 3076.3 L 4169.1 3076.3 M 4170.45 3074.67 L 4170.86 3074.46 L 4171.47 3073.85 L 4171.47 3078.14 M 4173.02 3074.87 L 4173.02 3074.67 L 4173.22 3074.26 L 4173.43 3074.06 L 4173.84 3073.85 L 4174.65 3073.85 L 4175.06 3074.06 L 4175.26 3074.26 L 4175.47 3074.67 L 4175.47 3075.08 L 4175.26 3075.48 L 4174.86 3076.1 L 4172.82 3078.14 L 4175.67 3078.14" fill="none" layerid="3"  stroke-linecap="round" stroke-width="0.8" /><path d="M 4163.36 3097.86 L 4163.36 3101.54 M 4161.52 3099.7 L 4165.19 3099.7 M 4168.99 3097.25 L 4166.95 3097.25 L 4166.74 3099.09 L 4166.95 3098.88 L 4167.56 3098.68 L 4168.17 3098.68 L 4168.78 3098.88 L 4169.19 3099.29 L 4169.39 3099.9 L 4169.39 3100.31 L 4169.19 3100.92 L 4168.78 3101.33 L 4168.17 3101.54 L 4167.56 3101.54 L 4166.95 3101.33 L 4166.74 3101.13 L 4166.54 3100.72" fill="none" layerid="3"  stroke-linecap="round" stroke-width="0.8" /><path d="M 4057.17 3134.62L4057.17 3137.81 M 4057.17 3135.99L4057.4 3135.31 L4057.85 3134.85 L4058.31 3134.62 L4058.99 3134.62 M 4060.49 3135.99L4063.22 3135.99 L4063.22 3135.53 L4062.99 3135.08 L4062.76 3134.85 L4062.31 3134.62 L4061.62 3134.62 L4061.17 3134.85 L4060.72 3135.31 L4060.49 3135.99 L4060.49 3136.44 L4060.72 3137.12 L4061.17 3137.58 L4061.62 3137.81 L4062.31 3137.81 L4062.76 3137.58 L4063.22 3137.12 M 4064.72 3134.62L4066.08 3137.81 M 4067.44 3134.62L4066.08 3137.81 M 4069.17 3136.67L4068.94 3136.9 L4069.17 3137.12 L4069.4 3136.9 L4069.17 3136.67 M 4073.17 3133.03L4070.9 3136.21 L4074.31 3136.21 M 4073.17 3133.03L4073.17 3137.81 " fill="none" layerid="3"  stroke-linecap="round" stroke-width="0.5" /></g></svg>