<svg xmlns="http://www.w3.org/2000/svg"  shape-rendering="crispEdges" xmlns:xlink="http://www.w3.org/1999/xlink" width="2.109in" height="1.438in" viewBox="4010.1 3039.6 210.9 143.8">      <style type="text/css">
      path, polyline, polygon { stroke-linejoin: round;}
      path, polyline, polygon, line { stroke-linecap: round;}
      rect, circle, ellipse, polyline, polygon, line, path { shape-rendering: crispEdges;}
      *[layerid="0"] { stroke: #FFFFFF; FILL: #FFFFFF;}
        *[layerid="1"] { stroke: #000000; fill: #000000;}        *[layerid="2"] { stroke: #000000; fill: #000000;}        *[layerid="3"] { stroke: #000000; fill: #000000;}        *[layerid="4"] { stroke: #000000; fill: #000000;}        *[layerid="5"] { stroke: #000000; fill: #000000;}        *[layerid="6"] { stroke: #000000; fill: #000000;}        *[layerid="7"] { stroke: #000000; fill: #000000;}        *[layerid="8"] { stroke: #000000; fill: #000000;}        *[layerid="9"] { stroke: #000000; fill: #000000;}        *[layerid="10"] { stroke: #000000; fill: #000000;}        *[layerid="11"] { stroke: #000000; fill: #000000;}        *[layerid="12"] { stroke: #000000; fill: #000000;}        *[layerid="13"] { stroke: #000000; fill: #000000;}        *[layerid="14"] { stroke: #000000; fill: #000000;}        *[layerid="15"] { stroke: #000000; fill: #000000;}        *[layerid="21"] { stroke: #000000; fill: #000000;}        *[layerid="22"] { stroke: #000000; fill: #000000;}        *[layerid="23"] { stroke: #000000; fill: #000000;}        *[layerid="24"] { stroke: #000000; fill: #000000;}          *[fill="none"] { fill: none; }
      *[stroke="none"] { stroke: none;}
      g[c_partid="part_pad"] > * + circle { fill: #FFFFFF;}
      g[c_partid="part_via"] > * + circle { fill: #FFFFFF;}
	g[c_partid="part_pad"] > polyline:nth-child(2) {stroke: #FFFFFF;}
	  </style><g >   <rect x="4010.1" y="3039.6" width="210.9" height="143.8" fill="#FFFFFF" stroke="none"/> <path d="M4052,3142 4052,3067 4209,3067 4209,3142zM4059.32,3078.18 4139.34,3078.18 4139.96,3078.08 4140.52,3077.8 4140.96,3077.36 4141.24,3076.8 4141.34,3076.18 4141.34,3069.64 4141.24,3069.02 4140.96,3068.46 4140.52,3068.02 4139.96,3067.74 4139.34,3067.64 4059.32,3067.64 4058.7,3067.74 4058.14,3068.02 4057.7,3068.46 4057.42,3069.02 4057.32,3069.64 4057.32,3076.18 4057.42,3076.8 4057.7,3077.36 4058.14,3077.8 4058.7,3078.08zM4181.58,3079.16 4200.92,3079.16 4201.54,3079.06 4202.1,3078.78 4202.54,3078.34 4202.82,3077.78 4202.92,3077.16 4202.92,3072.86 4202.82,3072.24 4202.54,3071.68 4202.1,3071.24 4201.54,3070.96 4200.92,3070.86 4181.58,3070.86 4180.96,3070.96 4180.4,3071.24 4179.96,3071.68 4179.68,3072.24 4179.58,3072.86 4179.58,3077.16 4179.68,3077.78 4179.96,3078.34 4180.4,3078.78 4180.96,3079.06zM4152.7,3082.36 4156.36,3082.36 4156.36,3078.7 4154.7,3078.7 4154.08,3078.8 4153.52,3079.08 4153.08,3079.52 4152.8,3080.08 4152.7,3080.7zM4169.04,3134.28 4169.66,3134.1 4170.74,3133.4 4171.58,3132.44 4172.12,3131.26 4172.12,3131.24 4169.04,3131.24zM4166.56,3134.28 4166.56,3131.24 4163.48,3131.24 4163.48,3131.26 4164.02,3132.44 4164.86,3133.4 4165.94,3134.1zM4139.5,3088.64 4142.64,3088.64 4142.64,3085.5 4142.42,3085.54 4141.26,3086.12 4140.32,3087 4139.66,3088.12zM4145.36,3088.64 4148.52,3088.64 4148.04,3087.54 4147.24,3086.54 4146.18,3085.8 4145.36,3085.5zM4096.14,3133.3 4097.8,3133.3 4098.42,3133.2 4098.98,3132.92 4099.42,3132.48 4099.7,3131.92 4099.8,3131.3 4099.8,3129.64 4096.14,3129.64zM4154.7,3089.3 4156.36,3089.3 4156.36,3085.64 4152.7,3085.64 4152.7,3087.3 4152.8,3087.92 4153.08,3088.48 4153.52,3088.92 4154.08,3089.2zM4096.14,3093.3 4097.8,3093.3 4098.42,3093.2 4098.98,3092.92 4099.42,3092.48 4099.7,3091.92 4099.8,3091.3 4099.8,3089.64 4096.14,3089.64zM4142.64,3094.5 4142.64,3091.36 4139.5,3091.36 4139.66,3091.88 4140.32,3093 4141.26,3093.88 4142.42,3094.46zM4169.04,3128.76 4172.12,3128.76 4172.12,3128.74 4171.58,3127.56 4170.74,3126.6 4169.66,3125.9 4169.04,3125.72zM4163.48,3128.76 4166.56,3128.76 4166.56,3125.72 4165.94,3125.9 4164.86,3126.6 4164.02,3127.56 4163.48,3128.74zM4145.36,3094.5 4146.18,3094.2 4147.24,3093.46 4148.04,3092.46 4148.52,3091.36 4145.36,3091.36zM4071,3141 4201,3141 4201.66,3140.92 4202.28,3140.72 4202.84,3140.36 4203.32,3139.9 4203.68,3139.34 4207.68,3131.34 4207.8,3131.08 4207.88,3130.82 4207.94,3130.56 4207.98,3130.28 4208,3130 4208,3102 4207.96,3101.54 4207.86,3101.08 4207.68,3100.64 4207.42,3100.24 4207.12,3099.88 4205.12,3097.88 4204.76,3097.58 4204.36,3097.32 4204.22,3097.26 4204.22,3089.5 4204.12,3088.88 4203.84,3088.32 4203.4,3087.88 4202.84,3087.6 4202.22,3087.5 4187.56,3087.5 4187.56,3083.74 4187.46,3083.12 4187.18,3082.56 4186.74,3082.12 4186.18,3081.84 4185.56,3081.74 4179.02,3081.74 4178.4,3081.84 4177.84,3082.12 4177.4,3082.56 4177.12,3083.12 4177.02,3083.74 4177.02,3090.28 4177.08,3090.7 4171.64,3090.7 4171.6,3089.26 4171.92,3089.2 4172.48,3088.92 4172.92,3088.48 4173.2,3087.92 4173.3,3087.3 4173.3,3080.7 4173.2,3080.08 4172.92,3079.52 4172.48,3079.08 4171.92,3078.8 4171.3,3078.7 4164.7,3078.7 4164.08,3078.8 4163.52,3079.08 4163.08,3079.52 4163,3079.68 4162.92,3079.52 4162.48,3079.08 4161.92,3078.8 4161.3,3078.7 4159.64,3078.7 4159.64,3082.36 4162.7,3082.36 4162.7,3085.64 4159.64,3085.64 4159.64,3086.2 4159.08,3086.3 4158.52,3086.58 4158.08,3087.02 4157.8,3087.58 4157.7,3088.2 4157.7,3094.8 4157.8,3095.42 4158.08,3095.98 4158.5,3096.4 4157.34,3100.42 4148.62,3109.14 4148.56,3108.72 4148.04,3107.54 4147.24,3106.54 4146.18,3105.8 4144.96,3105.36 4143.68,3105.28 4142.42,3105.54 4141.26,3106.12 4140.32,3107 4139.66,3108.12 4139.3,3109.36 4139.3,3110.64 4139.66,3111.88 4139.74,3112 4130,3112 4129.54,3112.04 4129.08,3112.14 4128.64,3112.32 4128.24,3112.58 4127.88,3112.88 4123.76,3117 4117.6,3117 4117.24,3116.54 4116.18,3115.8 4114.96,3115.36 4113.68,3115.28 4112.42,3115.54 4111.26,3116.12 4110.74,3116.6 4110.74,3114.14 4111.12,3113.76 4111.26,3113.88 4112.42,3114.46 4113.68,3114.72 4114.96,3114.64 4116.18,3114.2 4117.24,3113.46 4118.04,3112.46 4118.56,3111.28 4118.74,3110 4118.56,3108.72 4118.04,3107.54 4117.24,3106.54 4116.18,3105.8 4114.96,3105.36 4113.68,3105.28 4112.42,3105.54 4111.26,3106.12 4110.32,3107 4110.04,3107.48 4109.06,3108.06 4106.06,3111.06 4105.78,3111.38 4105.56,3111.76 4105.4,3112.16 4105.3,3112.58 4105.26,3113 4105.26,3128 4105.3,3128.42 4105.4,3128.84 4105.56,3129.24 4105.78,3129.62 4106.06,3129.94 4108.06,3131.94 4108.38,3132.22 4108.76,3132.44 4109.16,3132.6 4109.58,3132.7 4110,3132.74 4144.68,3132.74 4145.26,3133.4 4146.34,3134.1 4147.56,3134.46 4148.84,3134.46 4150.06,3134.1 4151.14,3133.4 4151.98,3132.44 4152.52,3131.26 4152.7,3130 4152.52,3128.74 4151.98,3127.56 4151.14,3126.6 4150.06,3125.9 4148.84,3125.54 4147.56,3125.54 4146.34,3125.9 4145.26,3126.6 4144.68,3127.26 4111.14,3127.26 4110.74,3126.86 4110.74,3123.4 4111.26,3123.88 4112.42,3124.46 4113.68,3124.72 4114.96,3124.64 4116.18,3124.2 4117.24,3123.46 4117.6,3123 4125,3123 4125.46,3122.96 4125.92,3122.86 4126.36,3122.68 4126.76,3122.42 4127.12,3122.12 4131.24,3118 4139.24,3118 4139.24,3122.74 4139.34,3123.36 4139.62,3123.92 4140.06,3124.36 4140.62,3124.64 4141.24,3124.74 4146.74,3124.74 4147.36,3124.64 4147.92,3124.36 4148.36,3123.92 4148.64,3123.36 4148.74,3122.74 4148.74,3117.44 4148.76,3117.42 4149.12,3117.12 4162.12,3104.12 4162.32,3103.9 4162.5,3103.66 4162.66,3103.38 4162.78,3103.12 4162.88,3102.82 4164.6,3096.8 4165.92,3096.8 4166.16,3097.04 4167.14,3097.54 4168.2,3097.7 4183.36,3097.7 4183.36,3098.88 4183.46,3099.5 4183.74,3100.06 4184.18,3100.5 4184.74,3100.78 4185.36,3100.88 4196.24,3100.88 4197.48,3102.12 4197.84,3102.42 4198.24,3102.68 4198.68,3102.86 4199.14,3102.96 4199.6,3103 4201.76,3103 4202,3103.24 4202,3107.1 4198,3107.1 4198,3111.46 4202,3111.46 4202,3116.14 4198,3116.14 4198,3120.48 4202,3120.48 4202,3129.3 4199.16,3135 4072.24,3135 4064,3126.76 4064,3123.2 4064.2,3123.2 4064.82,3123.1 4065.38,3122.82 4065.82,3122.38 4066.1,3121.82 4066.2,3121.2 4066.2,3115.16 4073.8,3122.76 4073.58,3122.8 4073.02,3123.08 4072.58,3123.52 4072.3,3124.08 4072.2,3124.7 4072.2,3131.3 4072.3,3131.92 4072.58,3132.48 4073.02,3132.92 4073.58,3133.2 4074.2,3133.3 4080.8,3133.3 4081.42,3133.2 4081.76,3133.04 4082.08,3133.2 4082.7,3133.3 4089.3,3133.3 4089.92,3133.2 4090.26,3133.04 4090.58,3133.2 4091.2,3133.3 4092.86,3133.3 4092.86,3129.64 4091.3,3129.64 4091.3,3126.36 4092.86,3126.36 4092.86,3123.74 4094,3123.74 4094.42,3123.7 4094.84,3123.6 4095.24,3123.44 4095.62,3123.22 4095.94,3122.94 4096.14,3122.74 4096.14,3126.36 4099.8,3126.36 4099.8,3124.7 4099.7,3124.08 4099.42,3123.52 4098.98,3123.08 4098.42,3122.8 4097.8,3122.7 4096.18,3122.7 4103.94,3114.94 4104.22,3114.62 4104.44,3114.24 4104.6,3113.84 4104.7,3113.42 4104.74,3113 4104.74,3106.14 4106.38,3104.5 4110.86,3103.5 4111.26,3103.88 4112.42,3104.46 4113.68,3104.72 4114.96,3104.64 4116.18,3104.2 4117.24,3103.46 4118.04,3102.46 4118.56,3101.28 4118.74,3100 4118.56,3098.72 4118.04,3097.54 4117.24,3096.54 4116.18,3095.8 4114.96,3095.36 4113.68,3095.28 4112.42,3095.54 4111.26,3096.12 4110.32,3097 4109.66,3098.12 4109.66,3098.16 4104.4,3099.32 4104.1,3099.4 4103.82,3099.52 4103.54,3099.68 4103.3,3099.86 4103.06,3100.06 4100.06,3103.06 4099.78,3103.38 4099.56,3103.76 4099.56,3103.78 4099.42,3103.52 4098.98,3103.08 4098.42,3102.8 4097.8,3102.7 4096.14,3102.7 4096.14,3106.36 4099.26,3106.36 4099.26,3109.64 4096.14,3109.64 4096.14,3113.3 4097.82,3113.3 4092.86,3118.26 4091,3118.26 4090.58,3118.3 4090.16,3118.4 4089.76,3118.56 4089.38,3118.78 4089.06,3119.06 4086.06,3122.06 4085.78,3122.38 4085.6,3122.7 4082.7,3122.7 4082.08,3122.8 4081.76,3122.96 4081.5,3122.84 4081.5,3122 4081.46,3121.46 4081.32,3120.92 4081.12,3120.42 4080.84,3119.94 4080.48,3119.52 4074.26,3113.3 4080.8,3113.3 4081.42,3113.2 4081.76,3113.04 4082.08,3113.2 4082.7,3113.3 4089.3,3113.3 4089.92,3113.2 4090.26,3113.04 4090.58,3113.2 4091.2,3113.3 4092.86,3113.3 4092.86,3109.64 4091.3,3109.64 4091.3,3106.36 4092.86,3106.36 4092.86,3104.02 4096.14,3100.74 4097,3100.74 4097.48,3100.7 4097.72,3100.64 4097.94,3100.58 4098.16,3100.48 4111.7,3094.1 4112.42,3094.46 4113.68,3094.72 4114.96,3094.64 4116.18,3094.2 4117.24,3093.46 4118.04,3092.46 4118.56,3091.28 4118.74,3090 4118.56,3088.72 4118.04,3087.54 4117.24,3086.54 4116.18,3085.8 4114.96,3085.36 4113.68,3085.28 4112.42,3085.54 4111.26,3086.12 4110.32,3087 4109.66,3088.12 4109.36,3089.16 4096.4,3095.26 4095,3095.26 4094.58,3095.3 4094.16,3095.4 4093.76,3095.56 4093.38,3095.78 4093.06,3096.06 4086.42,3102.7 4082.7,3102.7 4082.08,3102.8 4081.76,3102.96 4081.42,3102.8 4080.8,3102.7 4078.66,3102.7 4071.48,3095.52 4071.06,3095.16 4070.58,3094.88 4070.08,3094.68 4069.54,3094.54 4069,3094.5 4064.82,3094.5 4064.68,3094.32 4063.6,3093.5 4062.38,3093 4063.6,3092.5 4063.72,3092.4 4072.28,3091.86 4072.3,3091.92 4072.58,3092.48 4073.02,3092.92 4073.58,3093.2 4074.2,3093.3 4080.8,3093.3 4081.42,3093.2 4081.76,3093.04 4082.08,3093.2 4082.7,3093.3 4089.3,3093.3 4089.92,3093.2 4090.26,3093.04 4090.58,3093.2 4091.2,3093.3 4092.86,3093.3 4092.86,3089.64 4091.3,3089.64 4091.3,3086.36 4092.86,3086.36 4092.86,3083.74 4096.14,3083.74 4096.14,3086.36 4099.8,3086.36 4099.8,3084.7 4099.7,3084.08 4099.52,3083.74 4117.9,3083.74 4139.3,3099.88 4139.3,3100.64 4139.66,3101.88 4140.32,3103 4141.26,3103.88 4142.42,3104.46 4143.68,3104.72 4144.96,3104.64 4146.18,3104.2 4147.24,3103.46 4148.04,3102.46 4148.56,3101.28 4148.74,3100 4148.56,3098.72 4148.04,3097.54 4147.24,3096.54 4146.18,3095.8 4144.96,3095.36 4143.68,3095.28 4142.6,3095.5 4120.48,3078.82 4120.18,3078.62 4119.86,3078.46 4119.52,3078.36 4119.18,3078.28 4118.82,3078.26 4090,3078.26 4089.58,3078.3 4089.16,3078.4 4088.76,3078.56 4088.38,3078.78 4088.06,3079.06 4084.42,3082.7 4082.7,3082.7 4082.08,3082.8 4081.76,3082.96 4081.42,3082.8 4080.8,3082.7 4074.2,3082.7 4073.58,3082.8 4073.02,3083.08 4072.58,3083.52 4072.3,3084.08 4072.2,3084.7 4072.2,3084.82 4065.4,3085.26 4064.68,3084.32 4063.6,3083.5 4062.34,3082.98 4061,3082.8 4059.66,3082.98 4058.4,3083.5 4057.32,3084.32 4056.5,3085.4 4055.98,3086.66 4055.8,3088 4055.98,3089.34 4056.5,3090.6 4057.32,3091.68 4058.4,3092.5 4059.62,3093 4058.4,3093.5 4057.32,3094.32 4056.5,3095.4 4055.98,3096.66 4055.8,3098 4055.98,3099.34 4056.5,3100.6 4057.32,3101.68 4058.4,3102.5 4059.62,3103 4058.4,3103.5 4057.32,3104.32 4056.5,3105.4 4055.98,3106.66 4055.8,3108 4055.98,3109.34 4056.5,3110.6 4057.32,3111.68 4058.4,3112.5 4059.08,3112.78 4057.78,3112.78 4057.16,3112.88 4056.6,3113.16 4056.16,3113.6 4055.88,3114.16 4055.78,3114.78 4055.78,3121.2 4055.88,3121.82 4056.16,3122.38 4056.6,3122.82 4057.16,3123.1 4057.78,3123.2 4058,3123.2 4058,3128 4058.04,3128.46 4058.14,3128.92 4058.32,3129.36 4058.58,3129.76 4058.88,3130.12 4068.88,3140.12 4069.24,3140.42 4069.64,3140.68 4070.08,3140.86 4070.54,3140.96zM4183.36,3111.46 4189.6,3111.46 4189.6,3107.1 4185.36,3107.1 4184.74,3107.2 4184.18,3107.48 4183.74,3107.92 4183.46,3108.48 4183.36,3109.1zM4185.36,3120.48 4189.6,3120.48 4189.6,3116.14 4183.36,3116.14 4183.36,3118.48 4183.46,3119.1 4183.74,3119.66 4184.18,3120.1 4184.74,3120.38z"  layerid="2" stroke-width="0"  /> <polyline points="4077.5 3088 4062 3089 4061 3088" stroke-width="3"   stroke-linecap="round" fill="none" layerid="2"/> <polyline points="4077.5 3108 4077.5 3106.5 4069 3098 4061 3098" stroke-width="3"   stroke-linecap="round" fill="none" layerid="2"/> <polyline points="4086 3108 4086 3107 4095 3098 4097 3098 4114 3090" stroke-width="1.5"   stroke-linecap="round" fill="none" layerid="2"/> <polyline points="4114 3100 4105 3102 4102 3105 4102 3113 4094 3121 4091 3121 4088 3124 4088 3127 4086 3128" stroke-width="1.5"   stroke-linecap="round" fill="none" layerid="2"/> <polyline points="4086 3088 4086 3085 4090 3081 4118.833 3081 4144 3100" stroke-width="1.5"   stroke-linecap="round" fill="none" layerid="2"/> <polyline points="4148.2 3130 4110 3130 4108 3128 4108 3113 4111 3110 4111 3110.75 4114 3110" stroke-width="1.5"   stroke-linecap="round" fill="none" layerid="2"/> <polyline points="4193.8 3094.2 4168.2 3094.2 4168 3084" stroke-width="3"   stroke-linecap="round" fill="none" layerid="2"/> <polyline points="4163 3091.5 4160 3102 4147 3115 4142.2 3115 4130 3115 4125 3120 4114 3120" stroke-width="2"   stroke-linecap="round" fill="none" layerid="2"/> <polyline points="4061 3108 4064 3108 4071 3115 4078 3122 4078 3127.5 4077.5 3128" stroke-width="3"   stroke-linecap="round" fill="none" layerid="2"/> <polyline points="4061 3118 4061 3128 4071 3138 4201 3138 4205 3130 4205 3102 4203 3100 4199.6 3100 4193.8 3094.2" stroke-width="2"   stroke-linecap="round" fill="none" layerid="2"/> <polyline points="4052 3070 4052 3067 4209 3067 4209 3142 4052 3142 4052 3070" stroke-width="1"   stroke-linecap="round" fill="none" layerid="10"/>      <g c_partid="part_pad" c_type="pinpart" layerid="11" c_etype="pinpart">  <ellipse  xmlns="http://www.w3.org/2000/svg" cx="4167.8" cy="3130" rx="2.5" ry="2.5" stroke-width="0"  />  <circle cx="4167.8" cy="3130" r="1.57" stroke-width="0" /></g>      <g c_partid="part_pad" c_type="pinpart" layerid="11" c_etype="pinpart">  <ellipse  xmlns="http://www.w3.org/2000/svg" cx="4148.2" cy="3130" rx="2.5" ry="2.5" stroke-width="0"  />  <circle cx="4148.2" cy="3130" r="1.57" stroke-width="0" /></g>      <g c_partid="part_pad" c_type="pinpart" layerid="11" c_etype="pinpart">  <polygon  points="4141.25 3122.75 4141.25 3117.25 4146.75 3117.25 4146.75 3122.75" stroke-linecap="round" stroke-width="0" />  <circle cx="4144" cy="3120" r="1.4" stroke-width="0" /></g>      <g c_partid="part_pad" c_type="pinpart" layerid="11" c_etype="pinpart">  <ellipse  xmlns="http://www.w3.org/2000/svg" cx="4144" cy="3110" rx="2.75" ry="2.75" stroke-width="0"  />  <circle cx="4144" cy="3110" r="1.4" stroke-width="0" /></g>      <g c_partid="part_pad" c_type="pinpart" layerid="11" c_etype="pinpart">  <ellipse  xmlns="http://www.w3.org/2000/svg" cx="4144" cy="3100" rx="2.75" ry="2.75" stroke-width="0"  />  <circle cx="4144" cy="3100" r="1.4" stroke-width="0" /></g>      <g c_partid="part_pad" c_type="pinpart" layerid="11" c_etype="pinpart">  <ellipse  xmlns="http://www.w3.org/2000/svg" cx="4144" cy="3090" rx="2.75" ry="2.75" stroke-width="0"  />  <circle cx="4144" cy="3090" r="1.4" stroke-width="0" /></g>      <g c_partid="part_pad" c_type="pinpart" layerid="11" c_etype="pinpart">  <ellipse  xmlns="http://www.w3.org/2000/svg" cx="4114" cy="3090" rx="2.75" ry="2.75" stroke-width="0"  />  <circle cx="4114" cy="3090" r="1.4" stroke-width="0" /></g>      <g c_partid="part_pad" c_type="pinpart" layerid="11" c_etype="pinpart">  <ellipse  xmlns="http://www.w3.org/2000/svg" cx="4114" cy="3100" rx="2.75" ry="2.75" stroke-width="0"  />  <circle cx="4114" cy="3100" r="1.4" stroke-width="0" /></g>      <g c_partid="part_pad" c_type="pinpart" layerid="11" c_etype="pinpart">  <ellipse  xmlns="http://www.w3.org/2000/svg" cx="4114" cy="3110" rx="2.75" ry="2.75" stroke-width="0"  />  <circle cx="4114" cy="3110" r="1.4" stroke-width="0" /></g>      <g c_partid="part_pad" c_type="pinpart" layerid="11" c_etype="pinpart">  <ellipse  xmlns="http://www.w3.org/2000/svg" cx="4114" cy="3120" rx="2.75" ry="2.75" stroke-width="0"  />  <circle cx="4114" cy="3120" r="1.4" stroke-width="0" /></g>      <g c_partid="part_pad" c_type="pinpart" layerid="11" c_etype="pinpart">  <polygon  points="4097.8 3111.3 4091.2 3111.3 4091.2 3104.7 4097.8 3104.7" stroke-linecap="round" stroke-width="0" />  <circle cx="4094.5" cy="3108" r="1.6" stroke-width="0" /></g>      <g c_partid="part_pad" c_type="pinpart" layerid="11" c_etype="pinpart">  <polygon  points="4089.3 3111.3 4082.7 3111.3 4082.7 3104.7 4089.3 3104.7" stroke-linecap="round" stroke-width="0" />  <circle cx="4086" cy="3108" r="1.6" stroke-width="0" /></g>      <g c_partid="part_pad" c_type="pinpart" layerid="11" c_etype="pinpart">  <polygon  points="4080.8 3111.3 4074.2 3111.3 4074.2 3104.7 4080.8 3104.7" stroke-linecap="round" stroke-width="0" />  <circle cx="4077.5" cy="3108" r="1.6" stroke-width="0" /></g>      <g c_partid="part_pad" c_type="pinpart" layerid="11" c_etype="pinpart">  <polygon  points="4097.8 3131.3 4091.2 3131.3 4091.2 3124.7 4097.8 3124.7" stroke-linecap="round" stroke-width="0" />  <circle cx="4094.5" cy="3128" r="1.6" stroke-width="0" /></g>      <g c_partid="part_pad" c_type="pinpart" layerid="11" c_etype="pinpart">  <polygon  points="4089.3 3131.3 4082.7 3131.3 4082.7 3124.7 4089.3 3124.7" stroke-linecap="round" stroke-width="0" />  <circle cx="4086" cy="3128" r="1.6" stroke-width="0" /></g>      <g c_partid="part_pad" c_type="pinpart" layerid="11" c_etype="pinpart">  <polygon  points="4080.8 3131.3 4074.2 3131.3 4074.2 3124.7 4080.8 3124.7" stroke-linecap="round" stroke-width="0" />  <circle cx="4077.5" cy="3128" r="1.6" stroke-width="0" /></g>      <g c_partid="part_pad" c_type="pinpart" layerid="11" c_etype="pinpart">  <polygon  points="4097.8 3091.3 4091.2 3091.3 4091.2 3084.7 4097.8 3084.7" stroke-linecap="round" stroke-width="0" />  <circle cx="4094.5" cy="3088" r="1.6" stroke-width="0" /></g>      <g c_partid="part_pad" c_type="pinpart" layerid="11" c_etype="pinpart">  <polygon  points="4089.3 3091.3 4082.7 3091.3 4082.7 3084.7 4089.3 3084.7" stroke-linecap="round" stroke-width="0" />  <circle cx="4086" cy="3088" r="1.6" stroke-width="0" /></g>      <g c_partid="part_pad" c_type="pinpart" layerid="11" c_etype="pinpart">  <polygon  points="4080.8 3091.3 4074.2 3091.3 4074.2 3084.7 4080.8 3084.7" stroke-linecap="round" stroke-width="0" />  <circle cx="4077.5" cy="3088" r="1.6" stroke-width="0" /></g>      <g c_partid="part_pad" c_type="pinpart" layerid="11" c_etype="pinpart">  <polygon  points="4057.785 3121.215 4057.785 3114.785 4064.215 3114.785 4064.215 3121.215" stroke-linecap="round" stroke-width="0" />  <circle cx="4061" cy="3118" r="2.01" stroke-width="0" /></g>      <g c_partid="part_pad" c_type="pinpart" layerid="11" c_etype="pinpart">  <ellipse  xmlns="http://www.w3.org/2000/svg" cx="4061" cy="3108" rx="3.215" ry="3.215" stroke-width="0"  />  <circle cx="4061" cy="3108" r="2.01" stroke-width="0" /></g>      <g c_partid="part_pad" c_type="pinpart" layerid="11" c_etype="pinpart">  <ellipse  xmlns="http://www.w3.org/2000/svg" cx="4061" cy="3098" rx="3.215" ry="3.215" stroke-width="0"  />  <circle cx="4061" cy="3098" r="2.01" stroke-width="0" /></g>      <g c_partid="part_pad" c_type="pinpart" layerid="11" c_etype="pinpart">  <ellipse  xmlns="http://www.w3.org/2000/svg" cx="4061" cy="3088" rx="3.215" ry="3.215" stroke-width="0"  />  <circle cx="4061" cy="3088" r="2.01" stroke-width="0" /></g>      <g c_partid="part_pad" c_type="pinpart" layerid="11" c_etype="pinpart">  <polygon  points="4202.235 3098.885 4185.365 3098.885 4185.365 3089.515 4202.235 3089.515" stroke-linecap="round" stroke-width="0" />  <circle cx="4193.8" cy="3094.2" r="2.76" stroke-width="0" /></g>      <g c_partid="part_pad" c_type="pinpart" layerid="11" c_etype="pinpart">  <polygon  points="4202.235 3118.485 4185.365 3118.485 4185.365 3109.115 4202.235 3109.115" stroke-linecap="round" stroke-width="0" />  <circle cx="4193.8" cy="3113.8" r="2.76" stroke-width="0" /></g>      <g c_partid="part_pad" c_type="pinpart" layerid="11" c_etype="pinpart">  <polygon  points="4171.3 3087.3 4164.7 3087.3 4164.7 3080.7 4171.3 3080.7" stroke-linecap="round" stroke-width="0" />  <circle cx="4168" cy="3084" r="1.6" stroke-width="0" /></g>      <g c_partid="part_pad" c_type="pinpart" layerid="11" c_etype="pinpart">  <polygon  points="4166.3 3094.8 4159.7 3094.8 4159.7 3088.2 4166.3 3088.2" stroke-linecap="round" stroke-width="0" />  <circle cx="4163" cy="3091.5" r="1.6" stroke-width="0" /></g>      <g c_partid="part_pad" c_type="pinpart" layerid="11" c_etype="pinpart">  <polygon  points="4161.3 3087.3 4154.7 3087.3 4154.7 3080.7 4161.3 3080.7" stroke-linecap="round" stroke-width="0" />  <circle cx="4158" cy="3084" r="1.6" stroke-width="0" /></g><path d="M 4136.91 3071.89 L 4136.91 3075.16 L 4137.11 3075.77 L 4137.32 3075.98 L 4137.74 3076.18 L 4138.36 3076.18 L 4138.75 3075.98 M 4136.91 3072.5 L 4137.32 3072.09 L 4137.74 3071.89 L 4138.36 3071.89 L 4138.75 3072.09 L 4139.16 3072.5 L 4139.36 3073.11 L 4139.36 3073.52 L 4139.16 3074.14 L 4138.75 3074.55 L 4138.36 3074.75 L 4137.74 3074.75 L 4137.32 3074.55 L 4136.91 3074.14 M 4135.57 3070.46 L 4135.36 3070.66 L 4135.15 3070.46 L 4135.36 3070.25 L 4135.57 3070.46 M 4135.36 3071.89 L 4135.36 3074.75 M 4133.2 3070.46 L 4133.2 3073.93 L 4132.99 3074.55 L 4132.57 3074.75 L 4132.16 3074.75 M 4133.82 3071.89 L 4132.36 3071.89 M 4130.82 3070.46 L 4130.82 3074.75 M 4130.82 3072.71 L 4130.2 3072.09 L 4129.79 3071.89 L 4129.16 3071.89 L 4128.78 3072.09 L 4128.57 3072.71 L 4128.57 3074.75 M 4127.21 3071.89 L 4127.21 3073.93 L 4127.03 3074.55 L 4126.61 3074.75 L 4125.99 3074.75 L 4125.57 3074.55 L 4124.96 3073.93 M 4124.96 3071.89 L 4124.96 3074.75 M 4123.61 3070.46 L 4123.61 3074.75 M 4123.61 3072.5 L 4123.2 3072.09 L 4122.79 3071.89 L 4122.2 3071.89 L 4121.78 3072.09 L 4121.36 3072.5 L 4121.16 3073.11 L 4121.16 3073.52 L 4121.36 3074.14 L 4121.78 3074.55 L 4122.2 3074.75 L 4122.79 3074.75 L 4123.2 3074.55 L 4123.61 3074.14 M 4119.61 3073.73 L 4119.82 3073.93 L 4119.61 3074.14 L 4119.4 3073.93 L 4119.61 3073.73 M 4115.61 3072.5 L 4116 3072.09 L 4116.41 3071.89 L 4117.03 3071.89 L 4117.45 3072.09 L 4117.86 3072.5 L 4118.07 3073.11 L 4118.07 3073.52 L 4117.86 3074.14 L 4117.45 3074.55 L 4117.03 3074.75 L 4116.41 3074.75 L 4116 3074.55 L 4115.61 3074.14 M 4113.24 3071.89 L 4113.65 3072.09 L 4114.04 3072.5 L 4114.24 3073.11 L 4114.24 3073.52 L 4114.04 3074.14 L 4113.65 3074.55 L 4113.24 3074.75 L 4112.61 3074.75 L 4112.2 3074.55 L 4111.79 3074.14 L 4111.57 3073.52 L 4111.57 3073.11 L 4111.79 3072.5 L 4112.2 3072.09 L 4112.61 3071.89 L 4113.24 3071.89 M 4110.24 3071.89 L 4110.24 3074.75 M 4110.24 3072.71 L 4109.61 3072.09 L 4109.21 3071.89 L 4108.61 3071.89 L 4108.2 3072.09 L 4107.99 3072.71 L 4107.99 3074.75 M 4107.99 3072.71 L 4107.36 3072.09 L 4106.96 3071.89 L 4106.36 3071.89 L 4105.95 3072.09 L 4105.74 3072.71 L 4105.74 3074.75 M 4100.7 3069.64 L 4104.4 3076.18 M 4098.53 3070.46 L 4098.32 3070.66 L 4098.11 3070.46 L 4098.32 3070.25 L 4098.53 3070.46 M 4098.32 3071.89 L 4098.32 3075.36 L 4098.53 3075.98 L 4098.95 3076.18 L 4099.36 3076.18 M 4094.31 3071.89 L 4094.31 3074.75 M 4094.31 3072.5 L 4094.73 3072.09 L 4095.15 3071.89 L 4095.75 3071.89 L 4096.16 3072.09 L 4096.57 3072.5 L 4096.78 3073.11 L 4096.78 3073.52 L 4096.57 3074.14 L 4096.16 3074.55 L 4095.75 3074.75 L 4095.15 3074.75 L 4094.73 3074.55 L 4094.31 3074.14 M 4092.98 3070.46 L 4092.77 3070.66 L 4092.56 3070.46 L 4092.77 3070.25 L 4092.98 3070.46 M 4092.77 3071.89 L 4092.77 3074.75 M 4091.21 3071.89 L 4091.21 3074.75 M 4091.21 3072.71 L 4090.58 3072.09 L 4090.19 3071.89 L 4089.56 3071.89 L 4089.15 3072.09 L 4088.96 3072.71 L 4088.96 3074.75 M 4088.96 3072.71 L 4088.33 3072.09 L 4087.94 3071.89 L 4087.31 3071.89 L 4086.9 3072.09 L 4086.71 3072.71 L 4086.71 3074.75 M 4085.35 3073.11 L 4082.9 3073.11 L 4082.9 3072.71 L 4083.1 3072.3 L 4083.29 3072.09 L 4083.73 3071.89 L 4084.33 3071.89 L 4084.75 3072.09 L 4085.15 3072.5 L 4085.35 3073.11 L 4085.35 3073.52 L 4085.15 3074.14 L 4084.75 3074.55 L 4084.33 3074.75 L 4083.73 3074.75 L 4083.29 3074.55 L 4082.9 3074.14 M 4081.54 3070.46 L 4081.54 3074.75 M 4077.75 3071.89 L 4077.75 3074.75 M 4077.75 3072.5 L 4078.15 3072.09 L 4078.56 3071.89 L 4079.19 3071.89 L 4079.58 3072.09 L 4080 3072.5 L 4080.21 3073.11 L 4080.21 3073.52 L 4080 3074.14 L 4079.58 3074.55 L 4079.19 3074.75 L 4078.56 3074.75 L 4078.15 3074.55 L 4077.75 3074.14 M 4076.37 3070.46 L 4076.37 3074.75 M 4076.37 3072.5 L 4076 3072.09 L 4075.56 3071.89 L 4074.98 3071.89 L 4074.54 3072.09 L 4074.12 3072.5 L 4073.96 3073.11 L 4073.96 3073.52 L 4074.12 3074.14 L 4074.54 3074.55 L 4074.98 3074.75 L 4075.56 3074.75 L 4076 3074.55 L 4076.37 3074.14 M 4071.56 3071.89 L 4071.98 3072.09 L 4072.37 3072.5 L 4072.58 3073.11 L 4072.58 3073.52 L 4072.37 3074.14 L 4071.98 3074.55 L 4071.56 3074.75 L 4070.96 3074.75 L 4070.54 3074.55 L 4070.12 3074.14 L 4069.94 3073.52 L 4069.94 3073.11 L 4070.12 3072.5 L 4070.54 3072.09 L 4070.96 3071.89 L 4071.56 3071.89 M 4068.58 3071.89 L 4068.58 3074.75 M 4068.58 3073.11 L 4068.37 3072.5 L 4067.98 3072.09 L 4067.54 3071.89 L 4066.96 3071.89 M 4063.12 3070.46 L 4063.12 3074.75 M 4063.12 3072.5 L 4063.54 3072.09 L 4063.96 3071.89 L 4064.56 3071.89 L 4065 3072.09 L 4065.37 3072.5 L 4065.58 3073.11 L 4065.58 3073.52 L 4065.37 3074.14 L 4065 3074.55 L 4064.56 3074.75 L 4063.96 3074.75 L 4063.54 3074.55 L 4063.12 3074.14 M 4059.33 3071.89 L 4059.33 3074.75 M 4059.33 3072.5 L 4059.75 3072.09 L 4060.15 3071.89 L 4060.77 3071.89 L 4061.19 3072.09 L 4061.58 3072.5 L 4061.79 3073.11 L 4061.79 3073.52 L 4061.58 3074.14 L 4061.19 3074.55 L 4060.77 3074.75 L 4060.15 3074.75 L 4059.75 3074.55 L 4059.33 3074.14" fill="none" layerid="2"  stroke-linecap="round" stroke-width="0.8" /><path d="M 4182.32 3083.75 L 4182.32 3090.29 M 4185.57 3087.02 L 4179.02 3087.02" fill="none" layerid="2"  stroke-linecap="round" stroke-width="0.8" /><path d="M 4200.93 3074.3 L 4200.93 3077.16 M 4200.93 3075.52 L 4200.73 3074.91 L 4200.32 3074.5 L 4199.91 3074.3 L 4199.29 3074.3 M 4197.94 3075.52 L 4195.49 3075.52 L 4195.49 3075.12 L 4195.69 3074.71 L 4195.9 3074.5 L 4196.31 3074.3 L 4196.92 3074.3 L 4197.33 3074.5 L 4197.74 3074.91 L 4197.94 3075.52 L 4197.94 3075.93 L 4197.74 3076.55 L 4197.33 3076.96 L 4196.92 3077.16 L 4196.31 3077.16 L 4195.9 3076.96 L 4195.49 3076.55 M 4194.14 3074.3 L 4192.91 3077.16 M 4191.68 3074.3 L 4192.91 3077.16 M 4190.13 3076.14 L 4190.33 3076.34 L 4190.13 3076.55 L 4189.93 3076.34 L 4190.13 3076.14 M 4188.17 3072.87 L 4185.92 3072.87 L 4187.14 3074.5 L 4186.53 3074.5 L 4186.12 3074.71 L 4185.92 3074.91 L 4185.71 3075.52 L 4185.71 3075.93 L 4185.92 3076.55 L 4186.33 3076.96 L 4186.94 3077.16 L 4187.55 3077.16 L 4188.17 3076.96 L 4188.37 3076.75 L 4188.58 3076.34 M 4184.16 3076.14 L 4184.36 3076.34 L 4184.16 3076.55 L 4183.95 3076.34 L 4184.16 3076.14 M 4182.6 3073.68 L 4182.19 3073.48 L 4181.58 3072.87 L 4181.58 3077.16" fill="none" layerid="2"  stroke-linecap="round" stroke-width="0.8" /></g></svg>