<svg xmlns="http://www.w3.org/2000/svg"  shape-rendering="crispEdges" xmlns:xlink="http://www.w3.org/1999/xlink" width="2.109in" height="1.438in" viewBox="4010.1 3039.6 210.9 143.8">      <style type="text/css">
      path, polyline, polygon { stroke-linejoin: round;}
      path, polyline, polygon, line { stroke-linecap: round;}
      rect, circle, ellipse, polyline, polygon, line, path { shape-rendering: crispEdges;}
      *[layerid="0"] { stroke: #FFFFFF; FILL: #FFFFFF;}
        *[layerid="1"] { stroke: #000000; fill: #000000;}        *[layerid="2"] { stroke: #000000; fill: #000000;}        *[layerid="3"] { stroke: #000000; fill: #000000;}        *[layerid="4"] { stroke: #000000; fill: #000000;}        *[layerid="5"] { stroke: #000000; fill: #000000;}        *[layerid="6"] { stroke: #000000; fill: #000000;}        *[layerid="7"] { stroke: #000000; fill: #000000;}        *[layerid="8"] { stroke: #000000; fill: #000000;}        *[layerid="9"] { stroke: #000000; fill: #000000;}        *[layerid="10"] { stroke: #000000; fill: #000000;}        *[layerid="11"] { stroke: #000000; fill: #000000;}        *[layerid="12"] { stroke: #000000; fill: #000000;}        *[layerid="13"] { stroke: #000000; fill: #000000;}        *[layerid="14"] { stroke: #000000; fill: #000000;}        *[layerid="15"] { stroke: #000000; fill: #000000;}        *[layerid="21"] { stroke: #000000; fill: #000000;}        *[layerid="22"] { stroke: #000000; fill: #000000;}        *[layerid="23"] { stroke: #000000; fill: #000000;}        *[layerid="24"] { stroke: #000000; fill: #000000;}          *[fill="none"] { fill: none; }
      *[stroke="none"] { stroke: none;}
      g[c_partid="part_pad"] > * + circle { fill: #FFFFFF;}
      g[c_partid="part_via"] > * + circle { fill: #FFFFFF;}
	g[c_partid="part_pad"] > polyline:nth-child(2) {stroke: #FFFFFF;}
	  </style><g transform="matrix(-1, 0, 0, 1, 8231.1, 0)">   <rect x="4010.1" y="3039.6" width="210.9" height="143.8" fill="#FFFFFF" stroke="none"/> <polyline points="4052 3070 4052 3067 4209 3067 4209 3142 4052 3142 4052 3070" stroke-width="1"   stroke-linecap="round" fill="none" layerid="10"/><g id="gge1628" layerid="3" c_partid="part_svg" c_shapetype="group" layer_front="1" layer_show="1"><path d="M 4165 3108 C 4165 3108.1 4164.9 3108.5 4164.8 3109 C 4164.7 3109.5 4164.6 3110.1 4164.6 3110.1 C 4164.6 3110.3 4164.5 3110.4 4163.8 3110.6 C 4163 3110.9 4163.2 3110.9 4162.2 3110.3 C 4161.9 3110 4161.5 3109.8 4161.5 3109.7 L 4161.3 3109.6 L 4160.6 3110.4 C 4160.2 3110.7 4159.8 3111 4159.8 3111.1 C 4159.8 3111.2 4159.9 3111.4 4160.3 3112 C 4161 3113 4161 3112.8 4160.6 3113.8 C 4160.3 3114.4 4160.3 3114.5 4160.2 3114.5 C 4160.1 3114.5 4159.6 3114.6 4159.1 3114.7 C 4158.6 3114.8 4158.3 3114.9 4158.2 3115 C 4158.2 3115.1 4158.2 3117 4158.2 3117.1 C 4158.3 3117.2 4158.6 3117.3 4159.2 3117.4 C 4159.7 3117.5 4160.2 3117.6 4160.2 3117.6 C 4160.3 3117.6 4160.3 3117.7 4160.4 3117.8 C 4160.4 3118 4160.6 3118.4 4160.7 3118.7 L 4160.9 3119.3 L 4160.7 3119.5 C 4160.6 3119.7 4160.4 3120 4160.2 3120.2 C 4160.1 3120.4 4159.9 3120.7 4159.9 3120.8 L 4159.7 3121.1 L 4160.5 3121.8 C 4160.9 3122.3 4161.3 3122.6 4161.3 3122.6 C 4161.3 3122.6 4161.7 3122.4 4162.2 3122 L 4163 3121.4 L 4163.4 3121.7 C 4163.7 3121.9 4163.8 3121.9 4163.8 3121.8 C 4164 3121.6 4165.3 3118.2 4165.3 3118.2 C 4165.2 3118.1 4165.1 3118 4164.9 3117.8 C 4164.5 3117.6 4164.3 3117.3 4164.1 3116.9 C 4163.6 3115.7 4164.3 3114.2 4165.6 3114 C 4166.4 3113.7 4167.3 3114.1 4167.8 3114.7 C 4168.1 3115.2 4168.2 3115.6 4168.2 3116.2 C 4168.2 3116.9 4167.9 3117.5 4167.2 3117.9 C 4167 3118 4166.9 3118.2 4166.9 3118.2 C 4166.9 3118.2 4167 3118.5 4167.1 3118.7 C 4167.1 3118.9 4167.4 3119.5 4167.7 3120.2 C 4167.9 3120.9 4168.2 3121.4 4168.2 3121.6 C 4168.3 3121.7 4168.4 3121.9 4168.4 3121.9 C 4168.4 3121.9 4168.6 3121.8 4168.8 3121.6 L 4169.2 3121.4 L 4170 3122 C 4170.4 3122.4 4170.8 3122.6 4170.9 3122.6 C 4171 3122.6 4172.4 3121.1 4172.4 3121 C 4172.4 3121 4172.1 3120.6 4171.9 3120.2 C 4171.6 3119.7 4171.4 3119.4 4171.3 3119.4 C 4171.3 3119.3 4171.3 3119.1 4171.6 3118.4 C 4171.7 3118 4171.9 3117.6 4171.9 3117.6 C 4171.9 3117.6 4172.4 3117.5 4172.8 3117.4 C 4173.3 3117.3 4173.8 3117.2 4173.8 3117.2 C 4173.9 3117.2 4173.9 3117.1 4173.9 3116 C 4173.9 3114.9 4173.9 3114.9 4173.8 3114.9 C 4173.7 3114.9 4173.3 3114.8 4172.8 3114.7 C 4172.3 3114.6 4171.9 3114.5 4171.9 3114.5 C 4171.9 3114.5 4171.7 3114.1 4171.5 3113.7 L 4171.2 3112.9 L 4171.8 3112.2 C 4172.1 3111.7 4172.4 3111.2 4172.4 3111.1 C 4172.4 3111 4171 3109.6 4170.8 3109.6 C 4170.8 3109.6 4170.5 3109.9 4170.2 3110.1 C 4169.8 3110.4 4169.5 3110.6 4169.3 3110.7 L 4169 3110.9 L 4168.8 3110.7 C 4168.3 3110.6 4167.7 3110.3 4167.6 3110.3 C 4167.6 3110.3 4167.6 3110.1 4167.4 3108.9 C 4167.3 3108.5 4167.2 3108.1 4167.2 3108.1 C 4167.1 3108 4166.9 3108 4166.1 3108 C 4165.5 3108 4165 3108 4165 3108" id="gge24" stroke="none"/></g> <path  d="M4050,3060L4211,3060M4055,3063L4050,3060L4055,3057M4206,3063L4211,3060L4206,3057M 4133.05 3049.55L4128.5 3055.91 L4135.32 3055.91 M 4133.05 3049.55L4133.05 3059.09 M 4141.05 3049.55L4139.68 3050 L4138.77 3051.36 L4138.32 3053.64 L4138.32 3055 L4138.77 3057.27 L4139.68 3058.64 L4141.05 3059.09 L4141.95 3059.09 L4143.32 3058.64 L4144.23 3057.27 L4144.68 3055 L4144.68 3053.64 L4144.23 3051.36 L4143.32 3050 L4141.95 3049.55 L4141.05 3049.55 M 4148.14 3056.82L4147.68 3057.27 L4148.14 3057.73 L4148.59 3057.27 L4148.14 3056.82 M 4153.86 3049.55L4152.5 3050 L4152.05 3050.91 L4152.05 3051.82 L4152.5 3052.73 L4153.41 3053.18 L4155.23 3053.64 L4156.59 3054.09 L4157.5 3055 L4157.95 3055.91 L4157.95 3057.27 L4157.5 3058.18 L4157.05 3058.64 L4155.68 3059.09 L4153.86 3059.09 L4152.5 3058.64 L4152.05 3058.18 L4151.59 3057.27 L4151.59 3055.91 L4152.05 3055 L4152.95 3054.09 L4154.32 3053.64 L4156.14 3053.18 L4157.05 3052.73 L4157.5 3051.82 L4157.5 3050.91 L4157.05 3050 L4155.68 3049.55 L4153.86 3049.55 M 4166.86 3052.73L4166.41 3054.09 L4165.5 3055 L4164.14 3055.45 L4163.68 3055.45 L4162.32 3055 L4161.41 3054.09 L4160.95 3052.73 L4160.95 3052.27 L4161.41 3050.91 L4162.32 3050 L4163.68 3049.55 L4164.14 3049.55 L4165.5 3050 L4166.41 3050.91 L4166.86 3052.73 L4166.86 3055 L4166.41 3057.27 L4165.5 3058.64 L4164.14 3059.09 L4163.23 3059.09 L4161.86 3058.64 L4161.41 3057.73 M 4169.86 3052.73L4169.86 3059.09 M 4169.86 3054.55L4171.23 3053.18 L4172.14 3052.73 L4173.5 3052.73 L4174.41 3053.18 L4174.86 3054.55 L4174.86 3059.09 M 4174.86 3054.55L4176.23 3053.18 L4177.14 3052.73 L4178.5 3052.73 L4179.41 3053.18 L4179.86 3054.55 L4179.86 3059.09 M 4182.86 3052.73L4182.86 3059.09 M 4182.86 3054.55L4184.23 3053.18 L4185.14 3052.73 L4186.5 3052.73 L4187.41 3053.18 L4187.86 3054.55 L4187.86 3059.09 M 4187.86 3054.55L4189.23 3053.18 L4190.14 3052.73 L4191.5 3052.73 L4192.41 3053.18 L4192.86 3054.55 L4192.86 3059.09 "  layerid="3" stroke-linecap="round" fill="none"  stroke-width="1" /><path d="M 4182.32 3075.87 L 4182.32 3082.41 M 4179.05 3079.14 L 4185.6 3079.14 M 4188 3076.23 L 4188.72 3075.87 L 4189.81 3074.78 L 4189.81 3082.41 M 4192.58 3076.59 L 4192.58 3076.23 L 4192.94 3075.5 L 4193.3 3075.14 L 4194.03 3074.78 L 4195.49 3074.78 L 4196.21 3075.14 L 4196.58 3075.5 L 4196.94 3076.23 L 4196.94 3076.96 L 4196.58 3077.69 L 4195.85 3078.78 L 4192.21 3082.41 L 4197.3 3082.41 M 4199.7 3074.78 L 4202.61 3082.41 M 4205.52 3074.78 L 4202.61 3082.41" fill="none" layerid="3"  stroke-linecap="round" stroke-width="0.8" /><path d="M 4190.45 3131.45 L 4190.09 3130.73 L 4189.36 3130 L 4188.64 3129.64 L 4187.18 3129.64 L 4186.45 3130 L 4185.73 3130.73 L 4185.36 3131.45 L 4185 3132.55 L 4185 3134.36 L 4185.36 3135.45 L 4185.73 3136.18 L 4186.45 3136.91 L 4187.18 3137.27 L 4188.64 3137.27 L 4189.36 3136.91 L 4190.09 3136.18 L 4190.45 3135.45 L 4190.45 3134.36 M 4188.64 3134.36 L 4190.45 3134.36 M 4192.85 3129.64 L 4192.85 3137.27 M 4192.85 3129.64 L 4197.95 3137.27 M 4197.95 3129.64 L 4197.95 3137.27 M 4200.35 3129.64 L 4200.35 3137.27 M 4200.35 3129.64 L 4202.89 3129.64 L 4203.98 3130 L 4204.71 3130.73 L 4205.07 3131.45 L 4205.44 3132.55 L 4205.44 3134.36 L 4205.07 3135.45 L 4204.71 3136.18 L 4203.98 3136.91 L 4202.89 3137.27 L 4200.35 3137.27" fill="none" layerid="3"  stroke-linecap="round" stroke-width="0.8" /><path d="M 4104.42 3137.09 L 4104.42 3138.81 L 4104.3 3139.13 L 4104.21 3139.24 L 4104 3139.35 L 4103.67 3139.35 L 4103.46 3139.24 M 4104.42 3137.42 L 4104.21 3137.2 L 4104 3137.09 L 4103.67 3137.09 L 4103.46 3137.2 L 4103.25 3137.42 L 4103.13 3137.74 L 4103.13 3137.95 L 4103.25 3138.27 L 4103.46 3138.49 L 4103.67 3138.6 L 4104 3138.6 L 4104.21 3138.49 L 4104.42 3138.27 M 4105.13 3136.34 L 4105.22 3136.45 L 4105.34 3136.34 L 4105.22 3136.23 L 4105.13 3136.34 M 4105.22 3137.09 L 4105.22 3138.6 M 4106.38 3136.34 L 4106.38 3138.17 L 4106.47 3138.49 L 4106.71 3138.6 L 4106.92 3138.6 M 4106.04 3137.09 L 4106.79 3137.09 M 4107.63 3136.34 L 4107.63 3138.6 M 4107.63 3137.52 L 4107.96 3137.2 L 4108.17 3137.09 L 4108.47 3137.09 L 4108.71 3137.2 L 4108.79 3137.52 L 4108.79 3138.6 M 4109.5 3137.09 L 4109.5 3138.17 L 4109.63 3138.49 L 4109.84 3138.6 L 4110.17 3138.6 L 4110.38 3138.49 L 4110.71 3138.17 M 4110.71 3137.09 L 4110.71 3138.6 M 4111.42 3136.34 L 4111.42 3138.6 M 4111.42 3137.42 L 4111.63 3137.2 L 4111.84 3137.09 L 4112.17 3137.09 L 4112.38 3137.2 L 4112.59 3137.42 L 4112.71 3137.74 L 4112.71 3137.95 L 4112.59 3138.27 L 4112.38 3138.49 L 4112.17 3138.6 L 4111.84 3138.6 L 4111.63 3138.49 L 4111.42 3138.27 M 4113.5 3138.06 L 4113.38 3138.17 L 4113.5 3138.27 L 4113.63 3138.17 L 4113.5 3138.06 M 4115.63 3137.42 L 4115.38 3137.2 L 4115.17 3137.09 L 4114.88 3137.09 L 4114.63 3137.2 L 4114.42 3137.42 L 4114.34 3137.74 L 4114.34 3137.95 L 4114.42 3138.27 L 4114.63 3138.49 L 4114.88 3138.6 L 4115.17 3138.6 L 4115.38 3138.49 L 4115.63 3138.27 M 4116.84 3137.09 L 4116.63 3137.2 L 4116.42 3137.42 L 4116.34 3137.74 L 4116.34 3137.95 L 4116.42 3138.27 L 4116.63 3138.49 L 4116.84 3138.6 L 4117.17 3138.6 L 4117.38 3138.49 L 4117.59 3138.27 L 4117.71 3137.95 L 4117.71 3137.74 L 4117.59 3137.42 L 4117.38 3137.2 L 4117.17 3137.09 L 4116.84 3137.09 M 4118.42 3137.09 L 4118.42 3138.6 M 4118.42 3137.52 L 4118.75 3137.2 L 4118.96 3137.09 L 4119.29 3137.09 L 4119.5 3137.2 L 4119.59 3137.52 L 4119.59 3138.6 M 4119.59 3137.52 L 4119.92 3137.2 L 4120.13 3137.09 L 4120.46 3137.09 L 4120.67 3137.2 L 4120.79 3137.52 L 4120.79 3138.6 M 4123.42 3135.91 L 4121.5 3139.35 M 4124.55 3136.34 L 4124.67 3136.45 L 4124.79 3136.34 L 4124.67 3136.23 L 4124.55 3136.34 M 4124.67 3137.09 L 4124.67 3138.92 L 4124.55 3139.24 L 4124.34 3139.35 L 4124.13 3139.35 M 4126.76 3137.09 L 4126.76 3138.6 M 4126.76 3137.42 L 4126.55 3137.2 L 4126.34 3137.09 L 4126.01 3137.09 L 4125.8 3137.2 L 4125.59 3137.42 L 4125.5 3137.74 L 4125.5 3137.95 L 4125.59 3138.27 L 4125.8 3138.49 L 4126.01 3138.6 L 4126.34 3138.6 L 4126.55 3138.49 L 4126.76 3138.27 M 4127.47 3136.34 L 4127.59 3136.45 L 4127.71 3136.34 L 4127.59 3136.23 L 4127.47 3136.34 M 4127.59 3137.09 L 4127.59 3138.6 M 4128.42 3137.09 L 4128.42 3138.6 M 4128.42 3137.52 L 4128.72 3137.2 L 4128.96 3137.09 L 4129.25 3137.09 L 4129.47 3137.2 L 4129.59 3137.52 L 4129.59 3138.6 M 4129.59 3137.52 L 4129.92 3137.2 L 4130.13 3137.09 L 4130.46 3137.09 L 4130.67 3137.2 L 4130.76 3137.52 L 4130.76 3138.6 M 4131.47 3137.74 L 4132.75 3137.74 L 4132.75 3137.52 L 4132.67 3137.31 L 4132.54 3137.2 L 4132.34 3137.09 L 4132 3137.09 L 4131.79 3137.2 L 4131.59 3137.42 L 4131.47 3137.74 L 4131.47 3137.95 L 4131.59 3138.27 L 4131.79 3138.49 L 4132 3138.6 L 4132.34 3138.6 L 4132.54 3138.49 L 4132.75 3138.27 M 4133.46 3136.34 L 4133.46 3138.6 M 4135.46 3137.09 L 4135.46 3138.6 M 4135.46 3137.42 L 4135.25 3137.2 L 4135.04 3137.09 L 4134.71 3137.09 L 4134.5 3137.2 L 4134.29 3137.42 L 4134.17 3137.74 L 4134.17 3137.95 L 4134.29 3138.27 L 4134.5 3138.49 L 4134.71 3138.6 L 4135.04 3138.6 L 4135.25 3138.49 L 4135.46 3138.27 M 4136.17 3136.34 L 4136.17 3138.6 M 4136.17 3137.42 L 4136.38 3137.2 L 4136.63 3137.09 L 4136.92 3137.09 L 4137.17 3137.2 L 4137.38 3137.42 L 4137.46 3137.74 L 4137.46 3137.95 L 4137.38 3138.27 L 4137.17 3138.49 L 4136.92 3138.6 L 4136.63 3138.6 L 4136.38 3138.49 L 4136.17 3138.27 M 4138.71 3137.09 L 4138.5 3137.2 L 4138.29 3137.42 L 4138.17 3137.74 L 4138.17 3137.95 L 4138.29 3138.27 L 4138.5 3138.49 L 4138.71 3138.6 L 4139.04 3138.6 L 4139.25 3138.49 L 4139.46 3138.27 L 4139.59 3137.95 L 4139.59 3137.74 L 4139.46 3137.42 L 4139.25 3137.2 L 4139.04 3137.09 L 4138.71 3137.09 M 4140.29 3137.09 L 4140.29 3138.6 M 4140.29 3137.74 L 4140.38 3137.42 L 4140.59 3137.2 L 4140.84 3137.09 L 4141.13 3137.09 M 4143.13 3136.34 L 4143.13 3138.6 M 4143.13 3137.42 L 4142.92 3137.2 L 4142.71 3137.09 L 4142.38 3137.09 L 4142.17 3137.2 L 4141.96 3137.42 L 4141.84 3137.74 L 4141.84 3137.95 L 4141.96 3138.27 L 4142.17 3138.49 L 4142.38 3138.6 L 4142.71 3138.6 L 4142.92 3138.49 L 4143.13 3138.27 M 4145.13 3137.09 L 4145.13 3138.6 M 4145.13 3137.42 L 4144.92 3137.2 L 4144.71 3137.09 L 4144.38 3137.09 L 4144.17 3137.2 L 4143.96 3137.42 L 4143.84 3137.74 L 4143.84 3137.95 L 4143.96 3138.27 L 4144.17 3138.49 L 4144.38 3138.6 L 4144.71 3138.6 L 4144.92 3138.49 L 4145.13 3138.27" fill="none" layerid="3"  stroke-linecap="round" stroke-width="0.8" /><path d="M 4055.62 3070.39 L 4053.77 3075.26 M 4055.62 3070.39 L 4057.51 3075.26 M 4054.49 3073.66 L 4056.79 3073.66 M 4059.74 3070.39 L 4059.74 3074.35 L 4059.97 3075.03 L 4060.43 3075.26 L 4060.91 3075.26 M 4059.04 3072.01 L 4060.68 3072.01 M 4063.12 3070.39 L 4063.12 3074.35 L 4063.35 3075.03 L 4063.83 3075.26 L 4064.29 3075.26 M 4062.43 3072.01 L 4064.06 3072.01 M 4065.83 3070.39 L 4066.06 3070.62 L 4066.29 3070.39 L 4066.06 3070.16 L 4065.83 3070.39 M 4066.06 3072.01 L 4066.06 3075.26 M 4067.83 3072.01 L 4067.83 3075.26 M 4067.83 3072.95 L 4068.52 3072.25 L 4068.99 3072.01 L 4069.7 3072.01 L 4070.16 3072.25 L 4070.37 3072.95 L 4070.37 3075.26 M 4072.16 3072.01 L 4073.54 3075.26 M 4074.95 3072.01 L 4073.54 3075.26 L 4073.08 3076.2 L 4072.6 3076.68 L 4072.16 3076.91 L 4071.93 3076.91 M 4080.06 3070.39 L 4080.06 3075.26 M 4080.06 3070.39 L 4082.16 3070.39 L 4082.85 3070.62 L 4083.08 3070.85 L 4083.33 3071.33 L 4083.33 3071.78 L 4083.08 3072.25 L 4082.85 3072.48 L 4082.16 3072.71 L 4080.06 3072.71 M 4081.7 3072.71 L 4083.33 3075.26 M 4088.35 3071.55 L 4088.1 3071.1 L 4087.66 3070.62 L 4087.2 3070.39 L 4086.26 3070.39 L 4085.79 3070.62 L 4085.33 3071.1 L 4085.08 3071.55 L 4084.85 3072.25 L 4084.85 3073.41 L 4085.08 3074.12 L 4085.33 3074.58 L 4085.79 3075.03 L 4086.26 3075.26 L 4087.2 3075.26 L 4087.66 3075.03 L 4088.1 3074.58 L 4088.35 3074.12 L 4088.35 3073.41 M 4087.2 3073.41 L 4088.35 3073.41 M 4089.87 3070.39 L 4089.87 3075.26 M 4089.87 3070.39 L 4091.99 3070.39 L 4092.68 3070.62 L 4092.91 3070.85 L 4093.12 3071.33 L 4093.12 3071.78 L 4092.91 3072.25 L 4092.68 3072.48 L 4091.99 3072.71 M 4089.87 3072.71 L 4091.99 3072.71 L 4092.68 3072.95 L 4092.91 3073.18 L 4093.12 3073.66 L 4093.12 3074.35 L 4092.91 3074.8 L 4092.68 3075.03 L 4091.99 3075.26 L 4089.87 3075.26 M 4098.27 3070.39 L 4098.27 3075.26 M 4098.27 3075.26 L 4101.04 3075.26 M 4102.58 3070.39 L 4102.58 3075.26 M 4102.58 3070.39 L 4105.62 3070.39 M 4102.58 3072.71 L 4104.45 3072.71 M 4102.58 3075.26 L 4105.62 3075.26 M 4107.19 3070.39 L 4107.19 3075.26 M 4107.19 3070.39 L 4108.78 3070.39 L 4109.48 3070.62 L 4109.95 3071.1 L 4110.19 3071.55 L 4110.44 3072.25 L 4110.44 3073.41 L 4110.19 3074.12 L 4109.95 3074.58 L 4109.48 3075.03 L 4108.78 3075.26 L 4107.19 3075.26 M 4118.78 3071.1 L 4118.32 3070.62 L 4117.62 3070.39 L 4116.7 3070.39 L 4115.99 3070.62 L 4115.53 3071.1 L 4115.53 3071.55 L 4115.77 3072.01 L 4115.99 3072.25 L 4116.45 3072.48 L 4117.86 3072.95 L 4118.32 3073.18 L 4118.54 3073.41 L 4118.78 3073.89 L 4118.78 3074.58 L 4118.32 3075.03 L 4117.62 3075.26 L 4116.7 3075.26 L 4115.99 3075.03 L 4115.53 3074.58 M 4121.02 3070.39 L 4121.02 3074.35 L 4121.24 3075.03 L 4121.7 3075.26 L 4122.19 3075.26 M 4120.32 3072.01 L 4121.95 3072.01 M 4123.7 3072.01 L 4123.7 3075.26 M 4123.7 3073.41 L 4123.95 3072.71 L 4124.44 3072.25 L 4124.87 3072.01 L 4125.57 3072.01 M 4127.12 3070.39 L 4127.33 3070.62 L 4127.57 3070.39 L 4127.33 3070.16 L 4127.12 3070.39 M 4127.33 3072.01 L 4127.33 3075.26 M 4129.12 3072.01 L 4129.12 3076.91 M 4129.12 3072.71 L 4129.57 3072.25 L 4130.03 3072.01 L 4130.74 3072.01 L 4131.2 3072.25 L 4131.69 3072.71 L 4131.94 3073.41 L 4131.94 3073.89 L 4131.69 3074.58 L 4131.2 3075.03 L 4130.74 3075.26 L 4130.03 3075.26 L 4129.57 3075.03 L 4129.12 3074.58 M 4137.03 3070.39 L 4137.03 3075.26 M 4137.03 3070.39 L 4138.69 3070.39 L 4139.36 3070.62 L 4139.82 3071.1 L 4140.03 3071.55 L 4140.28 3072.25 L 4140.28 3073.41 L 4140.03 3074.12 L 4139.82 3074.58 L 4139.36 3075.03 L 4138.69 3075.26 L 4137.03 3075.26 M 4141.82 3072.01 L 4141.82 3075.26 M 4141.82 3073.41 L 4142.03 3072.71 L 4142.52 3072.25 L 4142.98 3072.01 L 4143.69 3072.01 M 4145.2 3070.39 L 4145.45 3070.62 L 4145.69 3070.39 L 4145.45 3070.16 L 4145.2 3070.39 M 4145.45 3072.01 L 4145.45 3075.26 M 4147.2 3072.01 L 4148.61 3075.26 M 4149.99 3072.01 L 4148.61 3075.26 M 4151.53 3073.41 L 4154.32 3073.41 L 4154.32 3072.95 L 4154.08 3072.48 L 4153.87 3072.25 L 4153.44 3072.01 L 4152.7 3072.01 L 4152.24 3072.25 L 4151.78 3072.71 L 4151.53 3073.41 L 4151.53 3073.89 L 4151.78 3074.58 L 4152.24 3075.03 L 4152.7 3075.26 L 4153.44 3075.26 L 4153.87 3075.03 L 4154.32 3074.58 M 4155.87 3072.01 L 4155.87 3075.26 M 4155.87 3073.41 L 4156.11 3072.71 L 4156.57 3072.25 L 4157.03 3072.01 L 4157.73 3072.01" fill="none" layerid="3"  stroke-linecap="round" stroke-width="0.8" /> <path  d="M4031,3067L4031,3142M4034,3072L4031,3067L4028,3072M4034,3137L4031,3142L4028,3137M 4027.45 3116.5 L 4027.89 3117.36 L 4029.18 3118.66 L 4020.11 3118.66 M 4026.16 3127.12 L 4024.86 3126.69 L 4024 3125.83 L 4023.57 3124.53 L 4023.57 3124.1 L 4024 3122.8 L 4024.86 3121.94 L 4026.16 3121.51 L 4026.59 3121.51 L 4027.89 3121.94 L 4028.75 3122.8 L 4029.18 3124.1 L 4029.18 3124.53 L 4028.75 3125.83 L 4027.89 3126.69 L 4026.16 3127.12 L 4024 3127.12 L 4021.84 3126.69 L 4020.55 3125.83 L 4020.11 3124.53 L 4020.11 3123.67 L 4020.55 3122.37 L 4021.41 3121.94 M 4022.27 3130.4 L 4021.84 3129.97 L 4021.41 3130.4 L 4021.84 3130.84 L 4022.27 3130.4 M 4029.18 3136.28 L 4028.75 3134.98 L 4027.45 3134.12 L 4025.3 3133.69 L 4024 3133.69 L 4021.84 3134.12 L 4020.55 3134.98 L 4020.11 3136.28 L 4020.11 3137.14 L 4020.55 3138.44 L 4021.84 3139.3 L 4024 3139.73 L 4025.3 3139.73 L 4027.45 3139.3 L 4028.75 3138.44 L 4029.18 3137.14 L 4029.18 3136.28 M 4029.18 3147.76 L 4029.18 3143.45 L 4025.3 3143.01 L 4025.73 3143.45 L 4026.16 3144.74 L 4026.16 3146.04 L 4025.73 3147.33 L 4024.86 3148.2 L 4023.57 3148.63 L 4022.7 3148.63 L 4021.41 3148.2 L 4020.55 3147.33 L 4020.11 3146.04 L 4020.11 3144.74 L 4020.55 3143.45 L 4020.98 3143.01 L 4021.84 3142.58 M 4026.16 3151.48 L 4020.11 3151.48 M 4024.43 3151.48 L 4025.73 3152.77 L 4026.16 3153.64 L 4026.16 3154.93 L 4025.73 3155.8 L 4024.43 3156.23 L 4020.11 3156.23 M 4024.43 3156.23 L 4025.73 3157.52 L 4026.16 3158.39 L 4026.16 3159.68 L 4025.73 3160.55 L 4024.43 3160.98 L 4020.11 3160.98 M 4026.16 3163.83 L 4020.11 3163.83 M 4024.43 3163.83 L 4025.73 3165.12 L 4026.16 3165.99 L 4026.16 3167.28 L 4025.73 3168.15 L 4024.43 3168.58 L 4020.11 3168.58 M 4024.43 3168.58 L 4025.73 3169.87 L 4026.16 3170.74 L 4026.16 3172.03 L 4025.73 3172.9 L 4024.43 3173.33 L 4020.11 3173.33"  layerid="3" stroke-linecap="round" fill="none"  stroke-width="1" /><path d="M 4071.3 3113.8 L 4067.62 3113.8 M 4069.46 3111.96 L 4069.46 3115.63 M 4071.09 3116.98 L 4071.3 3117.39 L 4071.91 3118 L 4067.62 3118 M 4070.89 3119.55 L 4071.09 3119.55 L 4071.5 3119.75 L 4071.7 3119.96 L 4071.91 3120.37 L 4071.91 3121.18 L 4071.7 3121.59 L 4071.5 3121.79 L 4071.09 3122 L 4070.68 3122 L 4070.28 3121.79 L 4069.66 3121.39 L 4067.62 3119.35 L 4067.62 3122.2" fill="none" layerid="3"  stroke-linecap="round" stroke-width="0.8" /><path d="M 4070.93 3109.26 L 4071.34 3109.06 L 4071.74 3108.65 L 4071.95 3108.24 L 4071.95 3107.42 L 4071.74 3107.02 L 4071.34 3106.61 L 4070.93 3106.4 L 4070.32 3106.2 L 4069.3 3106.2 L 4068.68 3106.4 L 4068.28 3106.61 L 4067.87 3107.02 L 4067.66 3107.42 L 4067.66 3108.24 L 4067.87 3108.65 L 4068.28 3109.06 L 4068.68 3109.26 L 4069.3 3109.26 M 4069.3 3108.24 L 4069.3 3109.26" fill="none" layerid="3"  stroke-linecap="round" stroke-width="0.8" /><path d="M 4072.05 3096.4 L 4067.76 3096.4 M 4072.05 3096.4 L 4072.05 3098.24 L 4071.84 3098.85 L 4071.64 3099.05 L 4071.23 3099.26 L 4070.82 3099.26 L 4070.42 3099.05 L 4070.21 3098.85 L 4070.01 3098.24 L 4070.01 3096.4 M 4070.01 3097.83 L 4067.76 3099.26" fill="none" layerid="3"  stroke-linecap="round" stroke-width="0.8" /><path d="M 4072.35 3086.8 L 4068.06 3086.8 M 4072.35 3086.8 L 4072.35 3088.64 L 4072.14 3089.25 L 4071.94 3089.45 L 4071.53 3089.66 L 4071.12 3089.66 L 4070.72 3089.45 L 4070.51 3089.25 L 4070.31 3088.64 M 4070.31 3086.8 L 4070.31 3088.64 L 4070.1 3089.25 L 4069.9 3089.45 L 4069.49 3089.66 L 4068.88 3089.66 L 4068.47 3089.45 L 4068.27 3089.25 L 4068.06 3088.64 L 4068.06 3086.8" fill="none" layerid="3"  stroke-linecap="round" stroke-width="0.8" /><path d="M 4167.88 3071.81 L 4167.88 3075.5 M 4166.04 3073.65 L 4169.71 3073.65 M 4171.04 3072.02 L 4171.46 3071.81 L 4172.08 3071.21 L 4172.08 3075.5 M 4173.63 3072.23 L 4173.63 3072.02 L 4173.83 3071.61 L 4174.04 3071.42 L 4174.46 3071.21 L 4175.25 3071.21 L 4175.67 3071.42 L 4175.88 3071.61 L 4176.08 3072.02 L 4176.08 3072.44 L 4175.88 3072.83 L 4175.46 3073.46 L 4173.42 3075.5 L 4176.29 3075.5" fill="none" layerid="3"  stroke-linecap="round" stroke-width="0.8" /><path d="M 4158.91 3098.71 L 4158.91 3102.39 M 4157.04 3100.55 L 4160.71 3100.55 M 4164.54 3098.1 L 4162.5 3098.1 L 4162.29 3099.94 L 4162.5 3099.73 L 4163.08 3099.53 L 4163.71 3099.53 L 4164.33 3099.73 L 4164.71 3100.14 L 4164.91 3100.75 L 4164.91 3101.16 L 4164.71 3101.77 L 4164.33 3102.18 L 4163.71 3102.39 L 4163.08 3102.39 L 4162.5 3102.18 L 4162.29 3101.98 L 4162.08 3101.57" fill="none" layerid="3"  stroke-linecap="round" stroke-width="0.8" /><path d="M 4055.16 3135.14 L 4055.16 3138 M 4055.16 3136.36 L 4055.36 3135.75 L 4055.78 3135.34 L 4056.18 3135.14 L 4056.8 3135.14 M 4058.14 3136.36 L 4060.59 3136.36 L 4060.59 3135.96 L 4060.38 3135.55 L 4060.18 3135.34 L 4059.78 3135.14 L 4059.16 3135.14 L 4058.76 3135.34 L 4058.34 3135.75 L 4058.14 3136.36 L 4058.14 3136.77 L 4058.34 3137.38 L 4058.76 3137.79 L 4059.16 3138 L 4059.78 3138 L 4060.18 3137.79 L 4060.59 3137.38 M 4061.93 3135.14 L 4063.16 3138 M 4064.38 3135.14 L 4063.16 3138 M 4065.93 3136.98 L 4065.74 3137.18 L 4065.93 3137.38 L 4066.14 3137.18 L 4065.93 3136.98 M 4067.89 3133.71 L 4070.13 3133.71 L 4068.91 3135.34 L 4069.53 3135.34 L 4069.93 3135.55 L 4070.13 3135.75 L 4070.34 3136.36 L 4070.34 3136.77 L 4070.13 3137.38 L 4069.74 3137.79 L 4069.11 3138 L 4068.51 3138 L 4067.89 3137.79 L 4067.7 3137.59 L 4067.49 3137.18 M 4071.89 3136.98 L 4071.68 3137.18 L 4071.89 3137.38 L 4072.09 3137.18 L 4071.89 3136.98 M 4073.45 3134.53 L 4073.85 3134.32 L 4074.47 3133.71 L 4074.47 3138" fill="none" layerid="3"  stroke-linecap="round" stroke-width="0.8" /><path d="M 4154.89 3130.52 L 4154.48 3130.11 L 4153.87 3129.91 L 4153.05 3129.91 L 4152.44 3130.11 L 4152.03 3130.52 L 4152.03 3130.93 L 4152.23 3131.34 L 4152.44 3131.54 L 4152.85 3131.75 L 4154.08 3132.16 L 4154.48 3132.36 L 4154.69 3132.56 L 4154.89 3132.97 L 4154.89 3133.59 L 4154.48 3134 L 4153.87 3134.2 L 4153.05 3134.2 L 4152.44 3134 L 4152.03 3133.59 M 4156.24 3129.91 L 4157.27 3134.2 M 4158.29 3129.91 L 4157.27 3134.2 M 4158.29 3129.91 L 4159.31 3134.2 M 4160.33 3129.91 L 4159.31 3134.2 M 4161.68 3130.72 L 4162.09 3130.52 L 4162.71 3129.91 L 4162.71 3134.2" fill="none" layerid="3"  stroke-linecap="round" stroke-width="0.7" /> <polyline points="4169.8 3127.6 4169.8 3125.5 4146.2 3125.5 4146.2 3127.6" stroke-width="1"   stroke-linecap="round" fill="none" layerid="3"/> <polyline points="4169.8 3139.3 4163.9 3139.3 4152.1 3139.3 4146.2 3139.3" stroke-width="1"   stroke-linecap="round" fill="none" layerid="3"/> <polyline points="4163.9 3139.3 4163.9 3143.8 4152.1 3143.8 4152.1 3139.3" stroke-width="1"   stroke-linecap="round" fill="none" layerid="3"/> <polyline points="4169.8 3139.1 4169.8 3132.4" stroke-width="1"   stroke-linecap="round" fill="none" layerid="3"/> <polyline points="4146.2 3139.1 4146.2 3132.4" stroke-width="1"   stroke-linecap="round" fill="none" layerid="3"/><path d="M 4127.62 3115.93 L 4131.89 3117.57 M 4127.62 3115.93 L 4131.89 3114.3 M 4130.46 3116.96 L 4130.46 3114.91 M 4127.62 3112.33 L 4131.08 3112.33 L 4131.71 3112.13 L 4131.89 3111.72 L 4131.89 3111.31 M 4129.04 3112.95 L 4129.04 3111.52 M 4127.62 3109.35 L 4131.08 3109.35 L 4131.71 3109.14 L 4131.89 3108.73 L 4131.89 3108.32 M 4129.04 3109.96 L 4129.04 3108.53 M 4127.62 3106.97 L 4127.8 3106.77 L 4127.62 3106.57 L 4127.39 3106.77 L 4127.62 3106.97 M 4129.04 3106.77 L 4131.89 3106.77 M 4129.04 3105.22 L 4131.89 3105.22 M 4129.87 3105.22 L 4129.25 3104.6 L 4129.04 3104.19 L 4129.04 3103.58 L 4129.25 3103.17 L 4129.87 3102.97 L 4131.89 3102.97 M 4129.04 3101.41 L 4131.89 3100.18 M 4129.04 3098.96 L 4131.89 3100.18 L 4132.71 3100.59 L 4133.13 3101 L 4133.33 3101.41 L 4133.33 3101.62 M 4127.62 3096.58 L 4127.8 3097.2 L 4128.21 3097.4 L 4128.63 3097.4 L 4129.04 3097.2 L 4129.25 3096.79 L 4129.46 3095.97 L 4129.64 3095.36 L 4130.05 3094.95 L 4130.46 3094.74 L 4131.08 3094.74 L 4131.5 3094.95 L 4131.71 3095.15 L 4131.89 3095.77 L 4131.89 3096.58 L 4131.71 3097.2 L 4131.5 3097.4 L 4131.08 3097.61 L 4130.46 3097.61 L 4130.05 3097.4 L 4129.64 3096.99 L 4129.46 3096.38 L 4129.25 3095.56 L 4129.04 3095.15 L 4128.63 3094.95 L 4128.21 3094.95 L 4127.8 3095.15 L 4127.62 3095.77 L 4127.62 3096.58 M 4127.62 3090.94 L 4127.62 3092.98 L 4129.46 3093.19 L 4129.25 3092.98 L 4129.04 3092.37 L 4129.04 3091.76 L 4129.25 3091.14 L 4129.64 3090.73 L 4130.25 3090.53 L 4130.67 3090.53 L 4131.29 3090.73 L 4131.71 3091.14 L 4131.89 3091.76 L 4131.89 3092.37 L 4131.71 3092.98 L 4131.5 3093.19 L 4131.08 3093.39" fill="none" layerid="3"  stroke-linecap="round" stroke-width="0.7" /> <polyline points="4139 3125 4139 3085 4119 3085 4119 3125 4139 3125" stroke-width="0.9"   stroke-linecap="round" fill="none" layerid="3"/>      <circle cx="4135" cy="3120" r="1" layerid="3" stroke-width="1" fill="none" /><path d="M 4099.63 3115.73 L 4099.83 3116.14 L 4100.24 3116.55 L 4100.65 3116.76 L 4101.26 3116.96 L 4102.29 3116.96 L 4102.9 3116.76 L 4103.31 3116.55 L 4103.72 3116.14 L 4103.92 3115.73 L 4103.92 3114.91 L 4103.72 3114.51 L 4103.31 3114.1 L 4102.9 3113.89 L 4102.29 3113.69 L 4101.26 3113.69 L 4100.65 3113.89 L 4100.24 3114.1 L 4099.83 3114.51 L 4099.63 3114.91 L 4099.63 3115.73 M 4103.1 3115.12 L 4104.33 3113.89 M 4100.45 3112.34 L 4100.24 3111.93 L 4099.63 3111.31 L 4103.92 3111.31 M 4102.08 3109.96 L 4102.08 3106.28 M 4099.63 3104.93 L 4103.92 3104.93 M 4099.63 3104.93 L 4099.63 3103.09 L 4099.83 3102.48 L 4100.04 3102.27 L 4100.45 3102.07 L 4100.85 3102.07 L 4101.26 3102.27 L 4101.47 3102.48 L 4101.67 3103.09 L 4101.67 3104.93 M 4101.67 3103.5 L 4103.92 3102.07" fill="none" layerid="3"  stroke-linecap="round" stroke-width="0.7" /> <polyline points="4094.2 3101.5 4077.8 3101.5" stroke-width="1"   stroke-linecap="round" fill="none" layerid="3"/> <polyline points="4096.5 3107 4094.9 3107" stroke-width="1"   stroke-linecap="round" fill="none" layerid="3"/> <polyline points="4077.1 3107 4075.5 3107" stroke-width="1"   stroke-linecap="round" fill="none" layerid="3"/>  <path d="M 4094.25 3101.5 A 10.5 10.5 0 0 1 4089.1 3118.03" layerid="3" fill="none"  stroke-linecap="round" stroke-width="1"/>  <path d="M 4082.9 3118.03 A 10.5 10.5 0 0 1 4077.75 3101.5" layerid="3" fill="none"  stroke-linecap="round" stroke-width="1"/><path d="M 4098.72 3135.21 L 4098.92 3135.62 L 4099.33 3136.03 L 4099.74 3136.24 L 4100.35 3136.44 L 4101.38 3136.44 L 4101.99 3136.24 L 4102.4 3136.03 L 4102.81 3135.62 L 4103.01 3135.21 L 4103.01 3134.39 L 4102.81 3133.99 L 4102.4 3133.58 L 4101.99 3133.37 L 4101.38 3133.17 L 4100.35 3133.17 L 4099.74 3133.37 L 4099.33 3133.58 L 4098.92 3133.99 L 4098.72 3134.39 L 4098.72 3135.21 M 4102.19 3134.6 L 4103.42 3133.37 M 4099.74 3131.61 L 4099.54 3131.61 L 4099.13 3131.41 L 4098.92 3131.2 L 4098.72 3130.79 L 4098.72 3129.98 L 4098.92 3129.57 L 4099.13 3129.36 L 4099.54 3129.16 L 4099.94 3129.16 L 4100.35 3129.36 L 4100.97 3129.77 L 4103.01 3131.82 L 4103.01 3128.95 M 4101.17 3127.6 L 4101.17 3123.92 M 4099.74 3119.5 L 4099.33 3119.71 L 4098.92 3120.12 L 4098.72 3120.53 L 4098.72 3121.34 L 4098.92 3121.75 L 4099.33 3122.16 L 4099.74 3122.37 L 4100.35 3122.57 L 4101.38 3122.57 L 4101.99 3122.37 L 4102.4 3122.16 L 4102.81 3121.75 L 4103.01 3121.34 L 4103.01 3120.53 L 4102.81 3120.12 L 4102.4 3119.71 L 4101.99 3119.5 L 4101.38 3119.5 M 4101.38 3120.53 L 4101.38 3119.5" fill="none" layerid="3"  stroke-linecap="round" stroke-width="0.7" /> <polyline points="4094.2 3121.5 4077.8 3121.5" stroke-width="1"   stroke-linecap="round" fill="none" layerid="3"/> <polyline points="4096.5 3127 4094.9 3127" stroke-width="1"   stroke-linecap="round" fill="none" layerid="3"/> <polyline points="4077.1 3127 4075.5 3127" stroke-width="1"   stroke-linecap="round" fill="none" layerid="3"/>  <path d="M 4094.25 3121.5 A 10.5 10.5 0 0 1 4089.1 3138.03" layerid="3" fill="none"  stroke-linecap="round" stroke-width="1"/>  <path d="M 4082.9 3138.03 A 10.5 10.5 0 0 1 4077.75 3121.5" layerid="3" fill="none"  stroke-linecap="round" stroke-width="1"/><path d="M 4099.96 3096.76 L 4100.16 3097.17 L 4100.57 3097.58 L 4100.98 3097.79 L 4101.59 3097.99 L 4102.62 3097.99 L 4103.23 3097.79 L 4103.64 3097.58 L 4104.05 3097.17 L 4104.25 3096.76 L 4104.25 3095.94 L 4104.05 3095.54 L 4103.64 3095.13 L 4103.23 3094.92 L 4102.62 3094.72 L 4101.59 3094.72 L 4100.98 3094.92 L 4100.57 3095.13 L 4100.16 3095.54 L 4099.96 3095.94 L 4099.96 3096.76 M 4103.43 3096.15 L 4104.66 3094.92 M 4099.96 3092.96 L 4099.96 3090.71 L 4101.59 3091.94 L 4101.59 3091.32 L 4101.8 3090.91 L 4102 3090.71 L 4102.62 3090.5 L 4103.03 3090.5 L 4103.64 3090.71 L 4104.05 3091.12 L 4104.25 3091.73 L 4104.25 3092.34 L 4104.05 3092.96 L 4103.84 3093.16 L 4103.43 3093.37 M 4102.41 3089.15 L 4102.41 3085.47 M 4099.96 3084.12 L 4104.25 3084.12 M 4099.96 3084.12 L 4099.96 3082.28 L 4100.16 3081.67 L 4100.37 3081.46 L 4100.78 3081.26 L 4101.18 3081.26 L 4101.59 3081.46 L 4101.8 3081.67 L 4102 3082.28 M 4102 3084.12 L 4102 3082.28 L 4102.21 3081.67 L 4102.41 3081.46 L 4102.82 3081.26 L 4103.43 3081.26 L 4103.84 3081.46 L 4104.05 3081.67 L 4104.25 3082.28 L 4104.25 3084.12" fill="none" layerid="3"  stroke-linecap="round" stroke-width="0.7" /> <polyline points="4094.2 3081.5 4077.8 3081.5" stroke-width="1"   stroke-linecap="round" fill="none" layerid="3"/> <polyline points="4096.5 3087 4094.9 3087" stroke-width="1"   stroke-linecap="round" fill="none" layerid="3"/> <polyline points="4077.1 3087 4075.5 3087" stroke-width="1"   stroke-linecap="round" fill="none" layerid="3"/>  <path d="M 4094.25 3081.5 A 10.5 10.5 0 0 1 4089.1 3098.03" layerid="3" fill="none"  stroke-linecap="round" stroke-width="1"/>  <path d="M 4082.9 3098.03 A 10.5 10.5 0 0 1 4077.75 3081.5" layerid="3" fill="none"  stroke-linecap="round" stroke-width="1"/><path d="M 4054.81 3127.11 L 4058.08 3127.11 L 4058.69 3127.32 L 4058.9 3127.52 L 4059.1 3127.93 L 4059.1 3128.34 L 4058.9 3128.75 L 4058.69 3128.96 L 4058.08 3129.16 L 4057.67 3129.16 M 4055.62 3125.76 L 4055.42 3125.36 L 4054.81 3124.74 L 4059.1 3124.74" fill="none" layerid="3"  stroke-linecap="round" stroke-width="0.7" /> <polyline points="4066 3123 4056 3123" stroke-width="1"   stroke-linecap="round" fill="none" layerid="3"/> <polyline points="4056 3123 4056 3113" stroke-width="1"   stroke-linecap="round" fill="none" layerid="3"/> <polyline points="4056 3113 4056 3083" stroke-width="1"   stroke-linecap="round" fill="none" layerid="3"/> <polyline points="4056 3083 4066 3083" stroke-width="1"   stroke-linecap="round" fill="none" layerid="3"/> <polyline points="4066 3083 4066 3113" stroke-width="1"   stroke-linecap="round" fill="none" layerid="3"/> <polyline points="4066 3113 4066 3123" stroke-width="1"   stroke-linecap="round" fill="none" layerid="3"/> <polyline points="4066 3113 4056 3113" stroke-width="1"   stroke-linecap="round" fill="none" layerid="3"/><path d="M 4195.67 3106.86 L 4195.67 3103.8 L 4195.47 3103.18 L 4195.06 3102.77 L 4194.44 3102.57 L 4194.03 3102.57 L 4193.42 3102.77 L 4193.01 3103.18 L 4192.81 3103.8 L 4192.81 3106.86 M 4191.25 3105.84 L 4191.25 3106.05 L 4191.05 3106.46 L 4190.84 3106.66 L 4190.43 3106.86 L 4189.62 3106.86 L 4189.21 3106.66 L 4189 3106.46 L 4188.8 3106.05 L 4188.8 3105.64 L 4189 3105.23 L 4189.41 3104.61 L 4191.46 3102.57 L 4188.59 3102.57" fill="none" layerid="3"  stroke-linecap="round" stroke-width="0.7" /> <polyline points="4177.2 3123.7 4177.2 3084.3" stroke-width="1"   stroke-linecap="round" fill="none" layerid="3"/> <polyline points="4177.2 3084.3 4184 3084.3" stroke-width="1"   stroke-linecap="round" fill="none" layerid="3"/> <polyline points="4184 3084.3 4203.9 3084.3" stroke-width="1"   stroke-linecap="round" fill="none" layerid="3"/> <polyline points="4203.9 3084.3 4206.8 3084.3" stroke-width="1"   stroke-linecap="round" fill="none" layerid="3"/> <polyline points="4206.8 3084.3 4206.8 3123.7" stroke-width="1"   stroke-linecap="round" fill="none" layerid="3"/> <polyline points="4206.8 3123.7 4203.9 3123.7" stroke-width="1"   stroke-linecap="round" fill="none" layerid="3"/> <polyline points="4203.9 3123.7 4184 3123.7" stroke-width="1"   stroke-linecap="round" fill="none" layerid="3"/> <polyline points="4184 3123.7 4183.5 3123.7" stroke-width="1"   stroke-linecap="round" fill="none" layerid="3"/> <polyline points="4183.5 3123.7 4181.2 3123.7" stroke-width="1"   stroke-linecap="round" fill="none" layerid="3"/> <polyline points="4181.2 3123.7 4177.2 3123.7" stroke-width="1"   stroke-linecap="round" fill="none" layerid="3"/> <polyline points="4181.2 3123.7 4180.6 3126" stroke-width="1"   stroke-linecap="round" fill="none" layerid="3"/> <polyline points="4180.6 3126 4184.1 3126" stroke-width="1"   stroke-linecap="round" fill="none" layerid="3"/> <polyline points="4184.1 3126 4183.5 3123.7" stroke-width="1"   stroke-linecap="round" fill="none" layerid="3"/> <polyline points="4184 3123.7 4184 3084.3" stroke-width="1"   stroke-linecap="round" fill="none" layerid="3"/> <polyline points="4203.9 3123.7 4203.9 3084.3" stroke-width="1"   stroke-linecap="round" fill="none" layerid="3"/><path d="M 4199.9 3088.3 L 4199.76 3088.03 L 4199.35 3087.62 L 4202.22 3087.62" fill="none" layerid="3"  stroke-linecap="round" stroke-width="0.6" />      <circle cx="4182.4" cy="3113.8" r="1.8" layerid="3" stroke-width="1" fill="none" />      <circle cx="4182.4" cy="3094.2" r="1.8" layerid="3" stroke-width="1" fill="none" /><path d="M 4169.5 3093.54 L 4169.5 3096.6 L 4169.7 3097.22 L 4170.11 3097.63 L 4170.73 3097.83 L 4171.14 3097.83 L 4171.75 3097.63 L 4172.16 3097.22 L 4172.36 3096.6 L 4172.36 3093.54 M 4174.12 3093.54 L 4176.37 3093.54 L 4175.15 3095.17 L 4175.76 3095.17 L 4176.17 3095.38 L 4176.37 3095.58 L 4176.58 3096.19 L 4176.58 3096.6 L 4176.37 3097.22 L 4175.96 3097.63 L 4175.35 3097.83 L 4174.74 3097.83 L 4174.12 3097.63 L 4173.92 3097.42 L 4173.71 3097.01" fill="none" layerid="3"  stroke-linecap="round" stroke-width="0.7" /> <polyline points="4171.2 3077.5 4154.8 3077.5" stroke-width="1"   stroke-linecap="round" fill="none" layerid="3"/> <polyline points="4173.5 3083 4171.9 3083" stroke-width="1"   stroke-linecap="round" fill="none" layerid="3"/> <polyline points="4164.1 3083 4161.9 3083" stroke-width="1"   stroke-linecap="round" fill="none" layerid="3"/> <polyline points="4154.1 3083 4152.5 3083" stroke-width="1"   stroke-linecap="round" fill="none" layerid="3"/>  <path d="M 4171.25 3077.5 A 10.5 10.5 0 0 1 4166.1 3094.03" layerid="3" fill="none"  stroke-linecap="round" stroke-width="1"/>  <path d="M 4159.9 3094.03 A 10.5 10.5 0 0 1 4154.75 3077.5" layerid="3" fill="none"  stroke-linecap="round" stroke-width="1"/></g></svg>