<?xml version="1.0" encoding="UTF-8" standalone="no"?>
<svg
   xmlns:dc="http://purl.org/dc/elements/1.1/"
   xmlns:cc="http://creativecommons.org/ns#"
   xmlns:rdf="http://www.w3.org/1999/02/22-rdf-syntax-ns#"
   xmlns:svg="http://www.w3.org/2000/svg"
   xmlns="http://www.w3.org/2000/svg"
   xmlns:sodipodi="http://sodipodi.sourceforge.net/DTD/sodipodi-0.dtd"
   xmlns:inkscape="http://www.inkscape.org/namespaces/inkscape"
   shape-rendering="crispEdges"
   width="1.99in"
   height="1.418in"
   viewBox="4040 3039.6 199 141.8"
   id="svg2"
   version="1.1"
   inkscape:version="0.91 r13725"
   sodipodi:docname="Attiny85-RGB-LED-Strip-Driver-PCB2 (1).svg">
  <metadata
     id="metadata184">
    <rdf:RDF>
      <cc:Work
         rdf:about="">
        <dc:format>image/svg+xml</dc:format>
        <dc:type
           rdf:resource="http://purl.org/dc/dcmitype/StillImage" />
      </cc:Work>
    </rdf:RDF>
  </metadata>
  <defs
     id="defs182" />
  <sodipodi:namedview
     pagecolor="#ffffff"
     bordercolor="#666666"
     borderopacity="1"
     objecttolerance="10"
     gridtolerance="10"
     guidetolerance="10"
     inkscape:pageopacity="0"
     inkscape:pageshadow="2"
     inkscape:window-width="1366"
     inkscape:window-height="705"
     id="namedview180"
     showgrid="false"
     inkscape:zoom="2.6152202"
     inkscape:cx="59.08776"
     inkscape:cy="77.240149"
     inkscape:window-x="-8"
     inkscape:window-y="-8"
     inkscape:window-maximized="1"
     inkscape:current-layer="svg2" />
  <style
     type="text/css"
     id="style4">
      path, polyline, polygon { stroke-linejoin: round;}
      path, polyline, polygon, line { stroke-linecap: round;}
      rect, circle, ellipse, polyline, polygon, line, path { shape-rendering: crispEdges;}
      *[layerid=&quot;0&quot;] { stroke: #FFFFFF; FILL: #FFFFFF;}
        *[layerid=&quot;1&quot;] { stroke: #000000; fill: #000000;}        *[layerid=&quot;2&quot;] { stroke: #000000; fill: #000000;}        *[layerid=&quot;3&quot;] { stroke: #000000; fill: #000000;}        *[layerid=&quot;4&quot;] { stroke: #000000; fill: #000000;}        *[layerid=&quot;5&quot;] { stroke: #000000; fill: #000000;}        *[layerid=&quot;6&quot;] { stroke: #000000; fill: #000000;}        *[layerid=&quot;7&quot;] { stroke: #000000; fill: #000000;}        *[layerid=&quot;8&quot;] { stroke: #000000; fill: #000000;}        *[layerid=&quot;9&quot;] { stroke: #000000; fill: #000000;}        *[layerid=&quot;10&quot;] { stroke: #000000; fill: #000000;}        *[layerid=&quot;11&quot;] { stroke: #000000; fill: #000000;}        *[layerid=&quot;12&quot;] { stroke: #000000; fill: #000000;}        *[layerid=&quot;13&quot;] { stroke: #000000; fill: #000000;}        *[layerid=&quot;14&quot;] { stroke: #000000; fill: #000000;}        *[layerid=&quot;15&quot;] { stroke: #000000; fill: #000000;}        *[layerid=&quot;21&quot;] { stroke: #000000; fill: #000000;}        *[layerid=&quot;22&quot;] { stroke: #000000; fill: #000000;}        *[layerid=&quot;23&quot;] { stroke: #000000; fill: #000000;}        *[layerid=&quot;24&quot;] { stroke: #000000; fill: #000000;}          *[fill=&quot;none&quot;] { fill: none; }
      *[stroke=&quot;none&quot;] { stroke: none;}
      g[c_partid=&quot;part_pad&quot;] &gt; * + circle { fill: #FFFFFF;}
      g[c_partid=&quot;part_via&quot;] &gt; * + circle { fill: #FFFFFF;}
	g[c_partid=&quot;part_pad&quot;] &gt; polyline:nth-child(2) {stroke: #FFFFFF;}
	  </style>
  <g
     id="g4493">
    <rect
       transform="scale(-1,1)"
       x="-4239"
       y="3039.6001"
       width="199"
       height="141.8"
       id="rect8"
       style="fill:#ffffff;stroke:none;shape-rendering:crispEdges" />
    <path
       d="m 4118.37,3132.38 -0.41,0.41 -0.61,0.2 -0.82,0 -0.61,-0.2 -0.41,-0.41 0,-0.41 0.2,-0.41 0.21,-0.2 0.41,-0.21 1.23,-0.41 0.4,-0.2 0.21,-0.2 0.2,-0.41 0,-0.62 -0.41,-0.41 -0.61,-0.2 -0.82,0 -0.61,0.2 -0.41,0.41 m 4.21,3.68 1.03,-4.29 m 1.02,4.29 -1.02,-4.29 m 1.02,4.29 1.02,-4.29 m 1.02,4.29 -1.02,-4.29 m 2.37,3.48 0.41,0.2 0.62,0.61 0,-4.29"
       layerid="3"
       id="path10"
       inkscape:connector-curvature="0"
       style="fill:none;stroke:#000000;stroke-width:0.69999999;stroke-linecap:round;stroke-linejoin:round;shape-rendering:crispEdges" />
    <polyline
       transform="matrix(-1,0,0,1,8279,0)"
       points="4169.8 3127.6 4169.8 3125.5 4146.2 3125.5 4146.2 3127.6"
       layerid="3"
       id="polyline12"
       style="fill:none;stroke:#000000;stroke-width:1;stroke-linecap:round;stroke-linejoin:round;shape-rendering:crispEdges" />
    <polyline
       transform="matrix(-1,0,0,1,8279,0)"
       points="4169.8 3139.3 4163.9 3139.3 4152.1 3139.3 4146.2 3139.3"
       layerid="3"
       id="polyline14"
       style="fill:none;stroke:#000000;stroke-width:1;stroke-linecap:round;stroke-linejoin:round;shape-rendering:crispEdges" />
    <polyline
       transform="matrix(-1,0,0,1,8279,0)"
       points="4163.9 3139.3 4163.9 3143.8 4152.1 3143.8 4152.1 3139.3"
       layerid="3"
       id="polyline16"
       style="fill:none;stroke:#000000;stroke-width:1;stroke-linecap:round;stroke-linejoin:round;shape-rendering:crispEdges" />
    <polyline
       transform="matrix(-1,0,0,1,8279,0)"
       points="4169.8 3139.1 4169.8 3132.4"
       layerid="3"
       id="polyline18"
       style="fill:none;stroke:#000000;stroke-width:1;stroke-linecap:round;stroke-linejoin:round;shape-rendering:crispEdges" />
    <polyline
       transform="matrix(-1,0,0,1,8279,0)"
       points="4146.2 3139.1 4146.2 3132.4"
       layerid="3"
       id="polyline20"
       style="fill:none;stroke:#000000;stroke-width:1;stroke-linecap:round;stroke-linejoin:round;shape-rendering:crispEdges" />
    <path
       d="m 4158.24,3106.3 -3.06,0 -0.62,-0.2 -0.41,-0.41 -0.2,-0.62 0,-0.41 0.2,-0.61 0.41,-0.41 0.62,-0.2 3.06,0 m -0.81,-1.35 0.2,-0.41 0.61,-0.62 -4.29,0"
       layerid="3"
       id="path22"
       inkscape:connector-curvature="0"
       style="fill:none;stroke:#000000;stroke-width:0.69999999;stroke-linecap:round;stroke-linejoin:round;shape-rendering:crispEdges" />
    <polyline
       transform="matrix(-1,0,0,1,8279,0)"
       points="4133 3125 4133 3085 4113 3085 4113 3125 4133 3125"
       layerid="3"
       id="polyline24"
       style="fill:none;stroke:#000000;stroke-width:0.89999998;stroke-linecap:round;stroke-linejoin:round;shape-rendering:crispEdges" />
    <circle
       transform="scale(-1,1)"
       cx="-4150"
       cy="3120"
       r="1"
       layerid="3"
       id="circle26"
       style="fill:none;stroke:#000000;stroke-width:1;shape-rendering:crispEdges" />
    <path
       d="m 4198.7,3120.93 -0.41,-0.2 -0.41,-0.41 -0.21,-0.41 -0.2,-0.61 0,-1.03 0.2,-0.61 0.21,-0.41 0.41,-0.41 0.41,-0.2 0.82,0 0.4,0.2 0.41,0.41 0.21,0.41 0.2,0.61 0,1.03 -0.2,0.61 -0.21,0.41 -0.41,0.41 -0.4,0.2 -0.82,0 m 0.61,-3.47 1.23,-1.23 m 1.55,3.88 0.41,0.21 0.62,0.61 0,-4.29 m 1.35,1.84 3.68,0 m 1.35,2.45 0,-4.29 m 0,4.29 1.84,0 0.61,-0.2 0.21,-0.21 0.2,-0.41 0,-0.4 -0.2,-0.41 -0.21,-0.21 -0.61,-0.2 -1.84,0 m 1.43,0 1.43,-2.25"
       layerid="3"
       id="path28"
       inkscape:connector-curvature="0"
       style="fill:none;stroke:#000000;stroke-width:0.69999999;stroke-linecap:round;stroke-linejoin:round;shape-rendering:crispEdges" />
    <polyline
       transform="matrix(-1,0,0,1,8279,0)"
       points="4094.2 3102.5 4077.8 3102.5"
       layerid="3"
       id="polyline30"
       style="fill:none;stroke:#000000;stroke-width:1;stroke-linecap:round;stroke-linejoin:round;shape-rendering:crispEdges" />
    <polyline
       transform="matrix(-1,0,0,1,8279,0)"
       points="4096.5 3108 4094.9 3108"
       layerid="3"
       id="polyline32"
       style="fill:none;stroke:#000000;stroke-width:1;stroke-linecap:round;stroke-linejoin:round;shape-rendering:crispEdges" />
    <polyline
       transform="matrix(-1,0,0,1,8279,0)"
       points="4077.1 3108 4075.5 3108"
       layerid="3"
       id="polyline34"
       style="fill:none;stroke:#000000;stroke-width:1;stroke-linecap:round;stroke-linejoin:round;shape-rendering:crispEdges" />
    <path
       d="m 4184.75,3102.5 a 10.5,10.5 0 0 0 5.15,16.53"
       layerid="3"
       id="path36"
       inkscape:connector-curvature="0"
       style="fill:none;stroke:#000000;stroke-width:1;stroke-linecap:round;stroke-linejoin:round;shape-rendering:crispEdges" />
    <path
       d="m 4196.1,3119.03 a 10.5,10.5 0 0 0 5.15,-16.53"
       layerid="3"
       id="path38"
       inkscape:connector-curvature="0"
       style="fill:none;stroke:#000000;stroke-width:1;stroke-linecap:round;stroke-linejoin:round;shape-rendering:crispEdges" />
    <path
       d="m 4202.34,3137.3 -0.41,-0.2 -0.41,-0.41 -0.21,-0.41 -0.2,-0.61 0,-1.03 0.2,-0.61 0.21,-0.41 0.41,-0.41 0.41,-0.2 0.82,0 0.4,0.2 0.41,0.41 0.21,0.41 0.2,0.61 0,1.03 -0.2,0.61 -0.21,0.41 -0.41,0.41 -0.4,0.2 -0.82,0 m 0.61,-3.47 1.23,-1.23 m 1.76,3.68 0,0.2 0.2,0.41 0.21,0.21 0.41,0.2 0.81,0 0.41,-0.2 0.21,-0.21 0.2,-0.41 0,-0.4 -0.2,-0.41 -0.41,-0.62 -2.05,-2.04 2.87,0 m 1.35,1.84 3.68,0 m 4.42,1.43 -0.21,0.41 -0.41,0.41 -0.41,0.2 -0.81,0 -0.41,-0.2 -0.41,-0.41 -0.21,-0.41 -0.2,-0.61 0,-1.03 0.2,-0.61 0.21,-0.41 0.41,-0.41 0.41,-0.2 0.81,0 0.41,0.2 0.41,0.41 0.21,0.41 0,0.61 m -1.03,0 1.03,0"
       layerid="3"
       id="path40"
       inkscape:connector-curvature="0"
       style="fill:none;stroke:#000000;stroke-width:0.69999999;stroke-linecap:round;stroke-linejoin:round;shape-rendering:crispEdges" />
    <polyline
       transform="matrix(-1,0,0,1,8279,0)"
       points="4095.2 3121.5 4078.8 3121.5"
       layerid="3"
       id="polyline42"
       style="fill:none;stroke:#000000;stroke-width:1;stroke-linecap:round;stroke-linejoin:round;shape-rendering:crispEdges" />
    <polyline
       transform="matrix(-1,0,0,1,8279,0)"
       points="4097.5 3127 4095.9 3127"
       layerid="3"
       id="polyline44"
       style="fill:none;stroke:#000000;stroke-width:1;stroke-linecap:round;stroke-linejoin:round;shape-rendering:crispEdges" />
    <polyline
       transform="matrix(-1,0,0,1,8279,0)"
       points="4078.1 3127 4076.5 3127"
       layerid="3"
       id="polyline46"
       style="fill:none;stroke:#000000;stroke-width:1;stroke-linecap:round;stroke-linejoin:round;shape-rendering:crispEdges" />
    <path
       d="m 4183.75,3121.5 a 10.5,10.5 0 0 0 5.15,16.53"
       layerid="3"
       id="path48"
       inkscape:connector-curvature="0"
       style="fill:none;stroke:#000000;stroke-width:1;stroke-linecap:round;stroke-linejoin:round;shape-rendering:crispEdges" />
    <path
       d="m 4195.1,3138.03 a 10.5,10.5 0 0 0 5.15,-16.53"
       layerid="3"
       id="path50"
       inkscape:connector-curvature="0"
       style="fill:none;stroke:#000000;stroke-width:1;stroke-linecap:round;stroke-linejoin:round;shape-rendering:crispEdges" />
    <path
       d="m 4196.05,3102.23 -0.41,-0.2 -0.41,-0.41 -0.21,-0.41 -0.2,-0.61 0,-1.03 0.2,-0.61 0.21,-0.41 0.41,-0.41 0.41,-0.2 0.82,0 0.4,0.2 0.41,0.41 0.21,0.41 0.2,0.61 0,1.03 -0.2,0.61 -0.21,0.41 -0.41,0.41 -0.4,0.2 -0.82,0 m 0.61,-3.47 1.23,-1.23 m 1.96,4.7 2.25,0 -1.23,-1.63 0.62,0 0.41,-0.21 0.2,-0.2 0.21,-0.62 0,-0.41 -0.21,-0.61 -0.41,-0.41 -0.61,-0.2 -0.61,0 -0.62,0.2 -0.2,0.21 -0.21,0.41 m 4.22,1.02 3.68,0 m 1.35,2.45 0,-4.29 m 0,4.29 1.84,0 0.61,-0.2 0.21,-0.21 0.2,-0.41 0,-0.4 -0.2,-0.41 -0.21,-0.21 -0.61,-0.2 m -1.84,0 1.84,0 0.61,-0.21 0.21,-0.2 0.2,-0.41 0,-0.61 -0.2,-0.41 -0.21,-0.21 -0.61,-0.2 -1.84,0"
       layerid="3"
       id="path52"
       inkscape:connector-curvature="0"
       style="fill:none;stroke:#000000;stroke-width:0.69999999;stroke-linecap:round;stroke-linejoin:round;shape-rendering:crispEdges" />
    <polyline
       transform="matrix(-1,0,0,1,8279,0)"
       points="4094.2 3082.5 4077.8 3082.5"
       layerid="3"
       id="polyline54"
       style="fill:none;stroke:#000000;stroke-width:1;stroke-linecap:round;stroke-linejoin:round;shape-rendering:crispEdges" />
    <polyline
       transform="matrix(-1,0,0,1,8279,0)"
       points="4096.5 3088 4094.9 3088"
       layerid="3"
       id="polyline56"
       style="fill:none;stroke:#000000;stroke-width:1;stroke-linecap:round;stroke-linejoin:round;shape-rendering:crispEdges" />
    <polyline
       transform="matrix(-1,0,0,1,8279,0)"
       points="4077.1 3088 4075.5 3088"
       layerid="3"
       id="polyline58"
       style="fill:none;stroke:#000000;stroke-width:1;stroke-linecap:round;stroke-linejoin:round;shape-rendering:crispEdges" />
    <path
       d="m 4184.75,3082.5 a 10.5,10.5 0 0 0 5.15,16.53"
       layerid="3"
       id="path60"
       inkscape:connector-curvature="0"
       style="fill:none;stroke:#000000;stroke-width:1;stroke-linecap:round;stroke-linejoin:round;shape-rendering:crispEdges" />
    <path
       d="m 4196.1,3099.03 a 10.5,10.5 0 0 0 5.15,-16.53"
       layerid="3"
       id="path62"
       inkscape:connector-curvature="0"
       style="fill:none;stroke:#000000;stroke-width:1;stroke-linecap:round;stroke-linejoin:round;shape-rendering:crispEdges" />
    <path
       d="m 4224.19,3127.11 -3.27,0 -0.61,0.21 -0.21,0.2 -0.2,0.41 0,0.41 0.2,0.41 0.21,0.21 0.61,0.2 0.41,0 m 2.05,-3.4 0.2,-0.4 0.61,-0.62 -4.29,0"
       layerid="3"
       id="path64"
       inkscape:connector-curvature="0"
       style="fill:none;stroke:#000000;stroke-width:0.69999999;stroke-linecap:round;stroke-linejoin:round;shape-rendering:crispEdges" />
    <polyline
       transform="matrix(-1,0,0,1,8279,0)"
       points="4066 3123 4056 3123"
       layerid="3"
       id="polyline66"
       style="fill:none;stroke:#000000;stroke-width:1;stroke-linecap:round;stroke-linejoin:round;shape-rendering:crispEdges" />
    <polyline
       transform="matrix(-1,0,0,1,8279,0)"
       points="4056 3123 4056 3113"
       layerid="3"
       id="polyline68"
       style="fill:none;stroke:#000000;stroke-width:1;stroke-linecap:round;stroke-linejoin:round;shape-rendering:crispEdges" />
    <polyline
       transform="matrix(-1,0,0,1,8279,0)"
       points="4056 3113 4056 3083"
       layerid="3"
       id="polyline70"
       style="fill:none;stroke:#000000;stroke-width:1;stroke-linecap:round;stroke-linejoin:round;shape-rendering:crispEdges" />
    <polyline
       transform="matrix(-1,0,0,1,8279,0)"
       points="4056 3083 4066 3083"
       layerid="3"
       id="polyline72"
       style="fill:none;stroke:#000000;stroke-width:1;stroke-linecap:round;stroke-linejoin:round;shape-rendering:crispEdges" />
    <polyline
       transform="matrix(-1,0,0,1,8279,0)"
       points="4066 3083 4066 3113"
       layerid="3"
       id="polyline74"
       style="fill:none;stroke:#000000;stroke-width:1;stroke-linecap:round;stroke-linejoin:round;shape-rendering:crispEdges" />
    <polyline
       transform="matrix(-1,0,0,1,8279,0)"
       points="4066 3113 4066 3123"
       layerid="3"
       id="polyline76"
       style="fill:none;stroke:#000000;stroke-width:1;stroke-linecap:round;stroke-linejoin:round;shape-rendering:crispEdges" />
    <polyline
       transform="matrix(-1,0,0,1,8279,0)"
       points="4066 3113 4056 3113"
       layerid="3"
       id="polyline78"
       style="fill:none;stroke:#000000;stroke-width:1;stroke-linecap:round;stroke-linejoin:round;shape-rendering:crispEdges" />
    <path
       d="m 4116.96,3078.25 0,-3.06 0.2,-0.62 0.41,-0.41 0.62,-0.2 0.41,0 0.61,0.2 0.41,0.41 0.2,0.62 0,3.06 m 1.56,-1.02 0,0.21 0.2,0.41 0.21,0.2 0.41,0.2 0.81,0 0.41,-0.2 0.21,-0.2 0.2,-0.41 0,-0.41 -0.2,-0.41 -0.41,-0.62 -2.05,-2.04 2.87,0"
       layerid="3"
       id="path80"
       inkscape:connector-curvature="0"
       style="fill:none;stroke:#000000;stroke-width:0.69999999;stroke-linecap:round;stroke-linejoin:round;shape-rendering:crispEdges" />
    <polyline
       transform="matrix(-1,0,0,1,8279,0)"
       points="4180.2 3123.7 4180.2 3084.3"
       layerid="3"
       id="polyline82"
       style="fill:none;stroke:#000000;stroke-width:1;stroke-linecap:round;stroke-linejoin:round;shape-rendering:crispEdges" />
    <polyline
       transform="matrix(-1,0,0,1,8279,0)"
       points="4180.2 3084.3 4187 3084.3"
       layerid="3"
       id="polyline84"
       style="fill:none;stroke:#000000;stroke-width:1;stroke-linecap:round;stroke-linejoin:round;shape-rendering:crispEdges" />
    <polyline
       transform="matrix(-1,0,0,1,8279,0)"
       points="4187 3084.3 4206.9 3084.3"
       layerid="3"
       id="polyline86"
       style="fill:none;stroke:#000000;stroke-width:1;stroke-linecap:round;stroke-linejoin:round;shape-rendering:crispEdges" />
    <polyline
       transform="matrix(-1,0,0,1,8279,0)"
       points="4206.9 3084.3 4209.8 3084.3"
       layerid="3"
       id="polyline88"
       style="fill:none;stroke:#000000;stroke-width:1;stroke-linecap:round;stroke-linejoin:round;shape-rendering:crispEdges" />
    <polyline
       transform="matrix(-1,0,0,1,8279,0)"
       points="4209.8 3084.3 4209.8 3123.7"
       layerid="3"
       id="polyline90"
       style="fill:none;stroke:#000000;stroke-width:1;stroke-linecap:round;stroke-linejoin:round;shape-rendering:crispEdges" />
    <polyline
       transform="matrix(-1,0,0,1,8279,0)"
       points="4209.8 3123.7 4206.9 3123.7"
       layerid="3"
       id="polyline92"
       style="fill:none;stroke:#000000;stroke-width:1;stroke-linecap:round;stroke-linejoin:round;shape-rendering:crispEdges" />
    <polyline
       transform="matrix(-1,0,0,1,8279,0)"
       points="4206.9 3123.7 4187 3123.7"
       layerid="3"
       id="polyline94"
       style="fill:none;stroke:#000000;stroke-width:1;stroke-linecap:round;stroke-linejoin:round;shape-rendering:crispEdges" />
    <polyline
       transform="matrix(-1,0,0,1,8279,0)"
       points="4187 3123.7 4186.5 3123.7"
       layerid="3"
       id="polyline96"
       style="fill:none;stroke:#000000;stroke-width:1;stroke-linecap:round;stroke-linejoin:round;shape-rendering:crispEdges" />
    <polyline
       transform="matrix(-1,0,0,1,8279,0)"
       points="4186.5 3123.7 4184.2 3123.7"
       layerid="3"
       id="polyline98"
       style="fill:none;stroke:#000000;stroke-width:1;stroke-linecap:round;stroke-linejoin:round;shape-rendering:crispEdges" />
    <polyline
       transform="matrix(-1,0,0,1,8279,0)"
       points="4184.2 3123.7 4180.2 3123.7"
       layerid="3"
       id="polyline100"
       style="fill:none;stroke:#000000;stroke-width:1;stroke-linecap:round;stroke-linejoin:round;shape-rendering:crispEdges" />
    <polyline
       transform="matrix(-1,0,0,1,8279,0)"
       points="4184.2 3123.7 4183.6 3126"
       layerid="3"
       id="polyline102"
       style="fill:none;stroke:#000000;stroke-width:1;stroke-linecap:round;stroke-linejoin:round;shape-rendering:crispEdges" />
    <polyline
       transform="matrix(-1,0,0,1,8279,0)"
       points="4183.6 3126 4187.1 3126"
       layerid="3"
       id="polyline104"
       style="fill:none;stroke:#000000;stroke-width:1;stroke-linecap:round;stroke-linejoin:round;shape-rendering:crispEdges" />
    <polyline
       transform="matrix(-1,0,0,1,8279,0)"
       points="4187.1 3126 4186.5 3123.7"
       layerid="3"
       id="polyline106"
       style="fill:none;stroke:#000000;stroke-width:1;stroke-linecap:round;stroke-linejoin:round;shape-rendering:crispEdges" />
    <polyline
       transform="matrix(-1,0,0,1,8279,0)"
       points="4187 3123.7 4187 3084.3"
       layerid="3"
       id="polyline108"
       style="fill:none;stroke:#000000;stroke-width:1;stroke-linecap:round;stroke-linejoin:round;shape-rendering:crispEdges" />
    <polyline
       transform="matrix(-1,0,0,1,8279,0)"
       points="4206.9 3123.7 4206.9 3084.3"
       layerid="3"
       id="polyline110"
       style="fill:none;stroke:#000000;stroke-width:1;stroke-linecap:round;stroke-linejoin:round;shape-rendering:crispEdges" />
    <path
       d="m 4075.93,3087.4 0.14,-0.27 0.41,-0.4 -2.87,0"
       layerid="3"
       id="path112"
       inkscape:connector-curvature="0"
       style="fill:none;stroke:#000000;stroke-width:0.60000002;stroke-linecap:round;stroke-linejoin:round;shape-rendering:crispEdges" />
    <circle
       transform="scale(-1,1)"
       cx="-4093.6001"
       cy="3113.8"
       r="1.8"
       layerid="3"
       id="circle114"
       style="fill:none;stroke:#000000;stroke-width:1;shape-rendering:crispEdges" />
    <circle
       transform="scale(-1,1)"
       cx="-4093.6001"
       cy="3094.2"
       r="1.8"
       layerid="3"
       id="circle116"
       style="fill:none;stroke:#000000;stroke-width:1;shape-rendering:crispEdges" />
    <polyline
       transform="matrix(-1,0,0,1,8279,0)"
       points="4176.5 3110.5 4151 3110.5"
       layerid="3"
       id="polyline120"
       style="fill:none;stroke:#000000;stroke-width:1.19999754;stroke-linecap:round;stroke-linejoin:round;shape-rendering:crispEdges" />
    <polyline
       transform="matrix(-1,0,0,1,8279,0)"
       points="4151 3110.5 4151 3135.5"
       layerid="3"
       id="polyline122"
       style="fill:none;stroke:#000000;stroke-width:1.19999754;stroke-linecap:round;stroke-linejoin:round;shape-rendering:crispEdges" />
    <polyline
       transform="matrix(-1,0,0,1,8279,0)"
       points="4151 3135.5 4176.5 3135.5"
       layerid="3"
       id="polyline124"
       style="fill:none;stroke:#000000;stroke-width:1.19999754;stroke-linecap:round;stroke-linejoin:round;shape-rendering:crispEdges" />
    <polyline
       transform="matrix(-1,0,0,1,8279,0)"
       points="4176.5 3135.5 4176.5 3110.5"
       layerid="3"
       id="polyline126"
       style="fill:none;stroke:#000000;stroke-width:1.19999754;stroke-linecap:round;stroke-linejoin:round;shape-rendering:crispEdges" />
    <polyline
       transform="matrix(-1,0,0,1,8279,0)"
       points="4174 3133 4153 3133"
       layerid="3"
       id="polyline128"
       style="fill:none;stroke:#000000;stroke-width:1.19999754;stroke-linecap:round;stroke-linejoin:round;shape-rendering:crispEdges" />
    <polyline
       transform="matrix(-1,0,0,1,8279,0)"
       points="4153 3133 4153 3112.5"
       layerid="3"
       id="polyline130"
       style="fill:none;stroke:#000000;stroke-width:1.19999754;stroke-linecap:round;stroke-linejoin:round;shape-rendering:crispEdges" />
    <polyline
       transform="matrix(-1,0,0,1,8279,0)"
       points="4153 3112.5 4174 3112.5"
       layerid="3"
       id="polyline132"
       style="fill:none;stroke:#000000;stroke-width:1.19999754;stroke-linecap:round;stroke-linejoin:round;shape-rendering:crispEdges" />
    <polyline
       transform="matrix(-1,0,0,1,8279,0)"
       points="4174 3112.5 4174 3133"
       layerid="3"
       id="polyline134"
       style="fill:none;stroke:#000000;stroke-width:1.19999754;stroke-linecap:round;stroke-linejoin:round;shape-rendering:crispEdges" />
    <polyline
       transform="matrix(-1,0,0,1,8279,0)"
       points="4173 3087.5 4173 3109.5"
       layerid="3"
       id="polyline146"
       style="fill:none;stroke:#000000;stroke-width:2.39999509;stroke-linecap:round;stroke-linejoin:round;shape-rendering:crispEdges" />
    <polyline
       transform="matrix(-1,0,0,1,8279,0)"
       points="4164 3087.5 4164 3109.5"
       layerid="3"
       id="polyline148"
       style="fill:none;stroke:#000000;stroke-width:2.39999509;stroke-linecap:round;stroke-linejoin:round;shape-rendering:crispEdges" />
    <polyline
       transform="matrix(-1,0,0,1,8279,0)"
       points="4155 3087.5 4155 3109.5"
       layerid="3"
       id="polyline150"
       style="fill:none;stroke:#000000;stroke-width:2.39999509;stroke-linecap:round;stroke-linejoin:round;shape-rendering:crispEdges" />
    <path
       d="m 4104,3090.64 0,-2.87 m 0.9,2.87 0,-2.87 m 0,2.87 1.91,-2.87 m 0,2.87 0,-2.87"
       layerid="3"
       id="path152"
       inkscape:connector-curvature="0"
       style="fill:none;stroke:#000000;stroke-width:0.60000002;stroke-linecap:round;stroke-linejoin:round;shape-rendering:crispEdges" />
    <path
       d="m 4115.55,3089.95 -0.14,0.28 -0.27,0.27 -0.28,0.14 -0.54,0 -0.27,-0.14 -0.28,-0.27 -0.13,-0.28 -0.14,-0.4 0,-0.69 0.14,-0.41 0.13,-0.27 0.28,-0.27 0.27,-0.14 0.54,0 0.28,0.14 0.27,0.27 0.14,0.27 0,0.41 m -0.69,0 0.69,0 m 0.9,1.78 0,-2.87 m 0,2.87 1.9,-2.87 m 0,2.87 0,-2.87 m 0.9,2.87 0,-2.87 m 0,2.87 0.96,0 0.41,-0.14 0.27,-0.27 0.14,-0.28 0.13,-0.4 0,-0.69 -0.13,-0.41 -0.14,-0.27 -0.27,-0.27 -0.41,-0.14 -0.96,0"
       layerid="3"
       id="path154"
       inkscape:connector-curvature="0"
       style="fill:none;stroke:#000000;stroke-width:0.60000002;stroke-linecap:round;stroke-linejoin:round;shape-rendering:crispEdges" />
    <path
       d="m 4123.32,3090.64 -0.27,-0.14 -0.28,-0.27 -0.13,-0.28 -0.14,-0.4 0,-0.69 0.14,-0.41 0.13,-0.27 0.28,-0.27 0.27,-0.14 0.54,0 0.28,0.14 0.27,0.27 0.14,0.27 0.13,0.41 0,0.69 -0.13,0.4 -0.14,0.28 -0.27,0.27 -0.28,0.14 -0.54,0 m 2.26,0 0,-2.05 0.14,-0.41 0.27,-0.27 0.41,-0.14 0.27,0 0.41,0.14 0.27,0.27 0.14,0.41 0,2.05 m 1.86,0 0,-2.87 m -0.96,2.87 1.91,0"
       layerid="3"
       id="path156"
       inkscape:connector-curvature="0"
       style="fill:none;stroke:#000000;stroke-width:0.60000002;stroke-linecap:round;stroke-linejoin:round;shape-rendering:crispEdges" />
    <path
       d="m 4108.91,3115.64 -1.36,-2.87 m -0.55,2.87 1.91,0 m 1.58,0 -0.41,-0.14 -0.13,-0.27 0,-0.28 0.13,-0.27 0.27,-0.13 0.55,-0.14 0.41,-0.14 0.27,-0.27 0.14,-0.27 0,-0.41 -0.14,-0.27 -0.13,-0.14 -0.41,-0.14 -0.55,0 -0.41,0.14 -0.13,0.14 -0.14,0.27 0,0.41 0.14,0.27 0.27,0.27 0.41,0.14 0.54,0.14 0.28,0.13 0.13,0.27 0,0.28 -0.13,0.27 -0.41,0.14 -0.55,0 m 2.95,0 -0.41,-0.14 -0.28,-0.41 -0.13,-0.68 0,-0.41 0.13,-0.68 0.28,-0.41 0.41,-0.14 0.27,0 0.41,0.14 0.27,0.41 0.14,0.68 0,0.41 -0.14,0.68 -0.27,0.41 -0.41,0.14 -0.27,0 m 3.62,0 -1.36,0 -0.14,-1.23 0.14,0.14 0.41,0.13 0.41,0 0.41,-0.13 0.27,-0.28 0.14,-0.41 0,-0.27 -0.14,-0.41 -0.27,-0.27 -0.41,-0.14 -0.41,0 -0.41,0.14 -0.14,0.14 -0.13,0.27"
       layerid="3"
       id="path160"
       inkscape:connector-curvature="0"
       style="fill:none;stroke:#000000;stroke-width:0.60000002;stroke-linecap:round;stroke-linejoin:round;shape-rendering:crispEdges" />
    <path
       d="m 4106,3125.5 a 2.51,2.51 0 0 0 0,-5"
       layerid="3"
       id="path162"
       inkscape:connector-curvature="0"
       style="fill:none;stroke:#000000;stroke-width:1.19999754;stroke-linecap:round;stroke-linejoin:round;shape-rendering:crispEdges" />
    <path
       d="m 4125,3120.5 a 2.51,2.51 0 0 0 0,5"
       layerid="3"
       id="path164"
       inkscape:connector-curvature="0"
       style="fill:none;stroke:#000000;stroke-width:1.19999754;stroke-linecap:round;stroke-linejoin:round;shape-rendering:crispEdges" />
    <polyline
       transform="matrix(-1,0,0,1,8279,0)"
       points="4052 3070 4209 3070 4209 3140 4052 3140 4052 3070"
       layerid="10"
       id="polyline166"
       style="fill:none;stroke:#000000;stroke-width:1;stroke-linecap:round;stroke-linejoin:round;shape-rendering:crispEdges" />
    <path
       d="m 4096.75,3075.94 0,6.54 m 3.27,-3.27 -6.55,0 m -2.4,-2.91 -0.72,-0.36 -1.09,-1.09 0,7.63 m -2.77,-5.82 0,-0.36 -0.36,-0.73 -0.36,-0.36 -0.73,-0.36 -1.46,0 -0.72,0.36 -0.37,0.36 -0.36,0.73 0,0.73 0.36,0.73 0.73,1.09 3.64,3.63 -5.09,0 m -2.4,-7.63 -2.91,7.63 m -2.91,-7.63 2.91,7.63"
       layerid="3"
       id="path170"
       inkscape:connector-curvature="0"
       style="fill:none;stroke:#000000;stroke-width:0.80000001;stroke-linecap:round;stroke-linejoin:round;shape-rendering:crispEdges" />
    <path
       d="m 4088.55,3131.45 0.36,-0.72 0.73,-0.73 0.72,-0.36 1.46,0 0.73,0.36 0.72,0.73 0.37,0.72 0.36,1.1 0,1.81 -0.36,1.09 -0.37,0.73 -0.72,0.73 -0.73,0.36 -1.46,0 -0.72,-0.36 -0.73,-0.73 -0.36,-0.73 0,-1.09 m 1.81,0 -1.81,0 m -2.4,-4.72 0,7.63 m 0,-7.63 -5.1,7.63 m 0,-7.63 0,7.63 m -2.4,-7.63 0,7.63 m 0,-7.63 -2.54,0 -1.09,0.36 -0.73,0.73 -0.36,0.72 -0.37,1.1 0,1.81 0.37,1.09 0.36,0.73 0.73,0.73 1.09,0.36 2.54,0"
       layerid="3"
       id="path172"
       inkscape:connector-curvature="0"
       style="fill:none;stroke:#000000;stroke-width:0.80000001;stroke-linecap:round;stroke-linejoin:round;shape-rendering:crispEdges" />
    <path
       d="m 4177.58,3133.06 0,1.72 0.12,0.32 0.09,0.11 0.21,0.11 0.33,0 0.21,-0.11 m -0.96,-1.82 0.21,-0.22 0.21,-0.11 0.33,0 0.21,0.11 0.21,0.22 0.12,0.32 0,0.21 -0.12,0.32 -0.21,0.22 -0.21,0.11 -0.33,0 -0.21,-0.11 -0.21,-0.22 m -0.71,-1.93 -0.09,0.11 -0.12,-0.11 0.12,-0.11 0.09,0.11 m -0.09,0.75 0,1.51 m -1.16,-2.26 0,1.83 -0.09,0.32 -0.24,0.11 -0.21,0 m 0.88,-1.51 -0.75,0 m -0.84,-0.75 0,2.26 m 0,-1.08 -0.33,-0.32 -0.21,-0.11 -0.3,0 -0.24,0.11 -0.08,0.32 0,1.08 m -0.71,-1.51 0,1.08 -0.13,0.32 -0.21,0.11 -0.33,0 -0.21,-0.11 -0.33,-0.32 m 0,-1.08 0,1.51 m -0.71,-2.26 0,2.26 m 0,-1.18 -0.21,-0.22 -0.21,-0.11 -0.33,0 -0.21,0.11 -0.21,0.22 -0.12,0.32 0,0.21 0.12,0.32 0.21,0.22 0.21,0.11 0.33,0 0.21,-0.11 0.21,-0.22 m -2.08,-0.21 0.12,0.11 -0.12,0.1 -0.13,-0.1 0.13,-0.11 m -2.13,-0.64 0.25,-0.22 0.21,-0.11 0.29,0 0.25,0.11 0.21,0.22 0.08,0.32 0,0.21 -0.08,0.32 -0.21,0.22 -0.25,0.11 -0.29,0 -0.21,-0.11 -0.25,-0.22 m -1.21,-1.18 0.21,0.11 0.21,0.22 0.08,0.32 0,0.21 -0.08,0.32 -0.21,0.22 -0.21,0.11 -0.33,0 -0.21,-0.11 -0.21,-0.22 -0.12,-0.32 0,-0.21 0.12,-0.32 0.21,-0.22 0.21,-0.11 0.33,0 m -1.58,0 0,1.51 m 0,-1.08 -0.33,-0.32 -0.21,-0.11 -0.33,0 -0.21,0.11 -0.09,0.32 0,1.08 m 0,-1.08 -0.33,-0.32 -0.21,-0.11 -0.33,0 -0.21,0.11 -0.12,0.32 0,1.08 m -2.63,-2.69 1.92,3.44 m -3.05,-3.01 -0.12,0.11 -0.12,-0.11 0.12,-0.11 0.12,0.11 m -0.12,0.75 0,1.83 0.12,0.32 0.21,0.11 0.21,0 m -2.63,-2.26 0,1.51 m 0,-1.18 0.21,-0.22 0.21,-0.11 0.33,0 0.21,0.11 0.21,0.22 0.09,0.32 0,0.21 -0.09,0.32 -0.21,0.22 -0.21,0.11 -0.33,0 -0.21,-0.11 -0.21,-0.22 m -0.71,-1.93 -0.12,0.11 -0.12,-0.11 0.12,-0.11 0.12,0.11 m -0.12,0.75 0,1.51 m -0.83,-1.51 0,1.51 m 0,-1.08 -0.3,-0.32 -0.24,-0.11 -0.29,0 -0.22,0.11 -0.12,0.32 0,1.08 m 0,-1.08 -0.33,-0.32 -0.21,-0.11 -0.33,0 -0.21,0.11 -0.09,0.32 0,1.08 m -0.71,-0.86 -1.28,0 0,-0.22 0.08,-0.21 0.13,-0.11 0.2,-0.11 0.34,0 0.21,0.11 0.2,0.22 0.12,0.32 0,0.21 -0.12,0.32 -0.2,0.22 -0.21,0.11 -0.34,0 -0.2,-0.11 -0.21,-0.22 m -0.71,-1.93 0,2.26 m -2,-1.51 0,1.51 m 0,-1.18 0.21,-0.22 0.21,-0.11 0.33,0 0.21,0.11 0.21,0.22 0.12,0.32 0,0.21 -0.12,0.32 -0.21,0.22 -0.21,0.11 -0.33,0 -0.21,-0.11 -0.21,-0.22 m -0.71,-1.93 0,2.26 m 0,-1.18 -0.21,-0.22 -0.25,-0.11 -0.29,0 -0.25,0.11 -0.21,0.22 -0.08,0.32 0,0.21 0.08,0.32 0.21,0.22 0.25,0.11 0.29,0 0.25,-0.11 0.21,-0.22 m -2.54,-1.18 0.21,0.11 0.21,0.22 0.12,0.32 0,0.21 -0.12,0.32 -0.21,0.22 -0.21,0.11 -0.33,0 -0.21,-0.11 -0.21,-0.22 -0.13,-0.32 0,-0.21 0.13,-0.32 0.21,-0.22 0.21,-0.11 0.33,0 m -1.58,0 0,1.51 m 0,-0.86 -0.09,-0.32 -0.21,-0.22 -0.25,-0.11 -0.29,0 m -2,-0.75 0,2.26 m 0,-1.18 0.21,-0.22 0.21,-0.11 0.33,0 0.21,0.11 0.21,0.22 0.12,0.32 0,0.21 -0.12,0.32 -0.21,0.22 -0.21,0.11 -0.33,0 -0.21,-0.11 -0.21,-0.22 m -2,-1.18 0,1.51 m 0,-1.18 0.21,-0.22 0.21,-0.11 0.33,0 0.21,0.11 0.21,0.22 0.12,0.32 0,0.21 -0.12,0.32 -0.21,0.22 -0.21,0.11 -0.33,0 -0.21,-0.11 -0.21,-0.22"
       layerid="3"
       id="path174"
       inkscape:connector-curvature="0"
       style="fill:none;stroke:#000000;stroke-width:0.80000001;stroke-linecap:round;stroke-linejoin:round;shape-rendering:crispEdges" />
    <path
       d="m 4217.42,3073.42 1.44,3.76 m -1.44,-3.76 -1.44,3.76 m 2.32,-1.25 -1.78,0 m -2.25,-2.51 0,3.04 -0.18,0.54 -0.36,0.18 -0.35,0 m 1.42,-2.5 -1.26,0 m -1.87,-1.26 0,3.04 -0.19,0.54 -0.35,0.18 -0.38,0 m 1.42,-2.5 -1.25,0 m -1.33,-1.26 -0.19,0.18 -0.17,-0.18 0.17,-0.18 0.19,0.18 m -0.19,1.26 0,2.5 m -1.36,-2.5 0,2.5 m 0,-1.79 -0.54,-0.54 -0.35,-0.17 -0.54,0 -0.36,0.17 -0.2,0.54 0,1.79 m -1.34,-2.5 -1.06,2.5 m -1.1,-2.5 1.1,2.5 0.35,0.72 0.36,0.35 0.35,0.18 0.19,0 m -6.27,-5.01 0,3.76 m 0,-3.76 -1.61,0 -0.54,0.18 -0.19,0.18 -0.16,0.36 0,0.36 0.16,0.35 0.19,0.18 0.54,0.18 1.61,0 m -1.25,0 -1.25,1.97 m -3.86,-2.86 0.15,-0.36 0.37,-0.36 0.36,-0.18 0.73,0 0.35,0.18 0.36,0.36 0.16,0.36 0.17,0.53 0,0.9 -0.17,0.54 -0.16,0.35 -0.36,0.36 -0.35,0.18 -0.73,0 -0.36,-0.18 -0.37,-0.36 -0.15,-0.35 0,-0.54 m 0.88,0 -0.88,0 m -1.18,-2.33 0,3.76 m 0,-3.76 -1.63,0 -0.54,0.18 -0.17,0.18 -0.2,0.36 0,0.36 0.2,0.35 0.17,0.18 0.54,0.18 m 1.63,0 -1.63,0 -0.54,0.18 -0.17,0.18 -0.2,0.36 0,0.53 0.2,0.36 0.17,0.18 0.54,0.18 1.63,0 m -6.46,-3.76 0,3.76 m 0,0 -2.15,0 m -1.19,-3.76 0,3.76 m 0,-3.76 -2.33,0 m 2.33,1.79 -1.42,0 m 1.42,1.97 -2.33,0 m -1.17,-3.76 0,3.76 m 0,-3.76 -1.25,0 -0.54,0.18 -0.38,0.36 -0.16,0.36 -0.17,0.53 0,0.9 0.17,0.54 0.16,0.35 0.38,0.36 0.54,0.18 1.25,0 m -8.96,-3.22 0.38,-0.36 0.5,-0.18 0.75,0 0.54,0.18 0.33,0.36 0,0.36 -0.17,0.36 -0.16,0.17 -0.38,0.18 -1.08,0.36 -0.33,0.18 -0.21,0.18 -0.17,0.36 0,0.53 0.38,0.36 0.5,0.18 0.75,0 0.54,-0.18 0.33,-0.36 m -4.21,-3.22 0,3.04 -0.16,0.54 -0.38,0.18 -0.37,0 m 1.45,-2.5 -1.25,0 m -1.37,0 0,2.5 m 0,-1.43 -0.17,-0.54 -0.37,-0.36 -0.34,-0.17 -0.54,0 m -1.21,-1.26 -0.16,0.18 -0.17,-0.18 0.17,-0.18 0.16,0.18 m -0.16,1.26 0,2.5 m -1.38,-2.5 0,3.75 m 0,-3.22 -0.33,-0.36 -0.38,-0.17 -0.54,0 -0.33,0.17 -0.38,0.36 -0.16,0.54 0,0.36 0.16,0.53 0.38,0.36 0.33,0.18 0.54,0 0.38,-0.18 0.33,-0.36 m -6.08,-3.22 0,3.76 m 0,-3.76 -1.25,0 -0.54,0.18 -0.34,0.36 -0.2,0.36 -0.17,0.53 0,0.9 0.17,0.54 0.2,0.35 0.34,0.36 0.54,0.18 1.25,0 m -3.67,-2.5 0,2.5 m 0,-1.43 -0.16,-0.54 -0.38,-0.36 -0.37,-0.17 -0.5,0 m -1.21,-1.26 -0.17,0.18 -0.17,-0.18 0.17,-0.18 0.17,0.18 m -0.17,1.26 0,2.5 m -1.37,-2.5 -1.05,2.5 m -1.08,-2.5 1.08,2.5 m -2.29,-1.43 -2.12,0 0,-0.36 0.16,-0.36 0.17,-0.18 0.38,-0.17 0.54,0 0.37,0.17 0.34,0.36 0.16,0.54 0,0.36 -0.16,0.53 -0.34,0.36 -0.37,0.18 -0.54,0 -0.38,-0.18 -0.33,-0.36 m -1.21,-1.96 0,2.5 m 0,-1.43 -0.17,-0.54 -0.33,-0.36 -0.38,-0.17 -0.54,0"
       layerid="3"
       id="path176"
       inkscape:connector-curvature="0"
       style="fill:none;stroke:#000000;stroke-width:0.80000001;stroke-linecap:round;stroke-linejoin:round;shape-rendering:crispEdges" />
  </g>
</svg>
