<svg xmlns="http://www.w3.org/2000/svg"  shape-rendering="crispEdges" xmlns:xlink="http://www.w3.org/1999/xlink" width="1.99in" height="1.418in" viewBox="4040 3039.6 199 141.8">      <style type="text/css">
      path, polyline, polygon { stroke-linejoin: round;}
      path, polyline, polygon, line { stroke-linecap: round;}
      rect, circle, ellipse, polyline, polygon, line, path { shape-rendering: crispEdges;}
      *[layerid="0"] { stroke: #FFFFFF; FILL: #FFFFFF;}
        *[layerid="1"] { stroke: #000000; fill: #000000;}        *[layerid="2"] { stroke: #000000; fill: #000000;}        *[layerid="3"] { stroke: #000000; fill: #000000;}        *[layerid="4"] { stroke: #000000; fill: #000000;}        *[layerid="5"] { stroke: #000000; fill: #000000;}        *[layerid="6"] { stroke: #000000; fill: #000000;}        *[layerid="7"] { stroke: #000000; fill: #000000;}        *[layerid="8"] { stroke: #000000; fill: #000000;}        *[layerid="9"] { stroke: #000000; fill: #000000;}        *[layerid="10"] { stroke: #000000; fill: #000000;}        *[layerid="11"] { stroke: #000000; fill: #000000;}        *[layerid="12"] { stroke: #000000; fill: #000000;}        *[layerid="13"] { stroke: #000000; fill: #000000;}        *[layerid="14"] { stroke: #000000; fill: #000000;}        *[layerid="15"] { stroke: #000000; fill: #000000;}        *[layerid="21"] { stroke: #000000; fill: #000000;}        *[layerid="22"] { stroke: #000000; fill: #000000;}        *[layerid="23"] { stroke: #000000; fill: #000000;}        *[layerid="24"] { stroke: #000000; fill: #000000;}          *[fill="none"] { fill: none; }
      *[stroke="none"] { stroke: none;}
      g[c_partid="part_pad"] > * + circle { fill: #FFFFFF;}
      g[c_partid="part_via"] > * + circle { fill: #FFFFFF;}
	g[c_partid="part_pad"] > polyline:nth-child(2) {stroke: #FFFFFF;}
	  </style><g transform="matrix(-1, 0, 0, 1, 8279, 0)">   <rect x="4040" y="3039.6" width="199" height="141.8" fill="#FFFFFF" stroke="none"/> <path d="M4052,3140 4052,3070 4209,3070 4209,3140 4206,3128 4205,3125 4199,3122 4189,3122 4184,3129 4184,3140zM4147.92,3133.48 4149.06,3133.4 4150.12,3132.94 4150.96,3132.14 4151.52,3131.14 4151.7,3130 4151.52,3128.86 4150.96,3127.86 4150.12,3127.06 4149.06,3126.6 4147.92,3126.52 4146.8,3126.8 4145.82,3127.42 4145.76,3127.5 4108.02,3127.5 4103.5,3122.98 4103.5,3121.02 4104.3,3120.22 4104.44,3121.16 4104.98,3122.2 4105.8,3123.02 4106.84,3123.56 4108,3123.74 4109.16,3123.56 4110.2,3123.02 4111.02,3122.2 4111.38,3121.5 4121,3121.5 4121.4,3121.46 4121.78,3121.38 4122.14,3121.22 4122.46,3121.02 4122.76,3120.76 4134.4,3109.12 4134.26,3110 4134.44,3111.16 4134.98,3112.2 4135.8,3113.02 4136.84,3113.56 4138,3113.74 4139.16,3113.56 4140.2,3113.02 4141.02,3112.2 4141.56,3111.16 4141.74,3110 4141.56,3108.84 4141.02,3107.8 4140.72,3107.5 4141,3107.5 4141.4,3107.46 4141.78,3107.38 4142.14,3107.22 4142.46,3107.02 4142.76,3106.76 4145.76,3103.76 4146.02,3103.46 4146.22,3103.14 4146.38,3102.78 4146.46,3102.4 4146.5,3102 4146.5,3096.94 4152.88,3089.64 4153.12,3089.34 4153.18,3089.24 4154.9,3085.8 4158.3,3085.8 4158.6,3085.76 4158.88,3085.6 4159.1,3085.38 4159.26,3085.1 4159.3,3084.8 4159.3,3083.24 4159.78,3084.02 4160.74,3084.92 4161.6,3085.36 4161.6,3082.9 4159.3,3082.9 4159.3,3079.1 4161.6,3079.1 4161.6,3076.64 4160.74,3077.08 4159.78,3077.98 4159.3,3078.76 4159.3,3077.2 4159.26,3076.9 4159.1,3076.62 4158.88,3076.4 4158.6,3076.24 4158.3,3076.2 4150.7,3076.2 4150.4,3076.24 4150.12,3076.4 4149.9,3076.62 4149.74,3076.9 4149.7,3077.2 4149.7,3084.8 4149.72,3084.94 4148.88,3086.62 4142.12,3094.36 4141.9,3094.64 4141.72,3094.96 4141.6,3095.3 4141.52,3095.64 4141.5,3096 4141.5,3098.72 4141.02,3097.8 4140.2,3096.98 4139.16,3096.44 4138,3096.26 4137.8,3096.28 4121.76,3080.24 4121.46,3079.98 4121.14,3079.78 4120.78,3079.62 4120.4,3079.54 4120,3079.5 4089,3079.5 4088.6,3079.54 4088.22,3079.62 4087.86,3079.78 4087.54,3079.98 4087.24,3080.24 4084.24,3083.24 4083.98,3083.54 4083.78,3083.86 4083.62,3084.22 4083.54,3084.6 4083.54,3084.7 4082.7,3084.7 4082.4,3084.74 4082.12,3084.9 4081.9,3085.12 4081.76,3085.38 4081.6,3085.12 4081.38,3084.9 4081.1,3084.74 4080.8,3084.7 4074.2,3084.7 4073.9,3084.74 4073.62,3084.9 4073.4,3085.12 4073.24,3085.4 4073.2,3085.7 4073.2,3086.5 4064.9,3086.5 4064.48,3085.64 4063.62,3084.72 4062.54,3084.1 4061.32,3083.82 4060.06,3083.9 4058.9,3084.36 4057.92,3085.14 4057.22,3086.18 4056.84,3087.38 4056.84,3088.62 4057.22,3089.82 4057.92,3090.86 4058.9,3091.64 4060.06,3092.1 4061.32,3092.18 4062.54,3091.9 4063.24,3091.5 4073.2,3091.5 4073.2,3092.3 4073.24,3092.6 4073.4,3092.88 4073.62,3093.1 4073.9,3093.26 4074.2,3093.3 4080.8,3093.3 4081.1,3093.26 4081.38,3093.1 4081.6,3092.88 4081.76,3092.62 4081.9,3092.88 4082.12,3093.1 4082.4,3093.26 4082.7,3093.3 4089.3,3093.3 4089.6,3093.26 4089.88,3093.1 4090.1,3092.88 4090.26,3092.62 4090.4,3092.88 4090.62,3093.1 4090.9,3093.26 4091.2,3093.3 4092.86,3093.3 4092.86,3090.64 4090.3,3090.64 4090.3,3087.36 4092.86,3087.36 4092.86,3084.7 4091.2,3084.7 4090.9,3084.74 4090.62,3084.9 4090.4,3085.12 4090.26,3085.38 4090.1,3085.12 4089.88,3084.9 4089.72,3084.8 4090.02,3084.5 4118.98,3084.5 4134.28,3099.8 4134.26,3100 4134.44,3101.16 4134.98,3102.2 4135.28,3102.5 4135,3102.5 4134.6,3102.54 4134.22,3102.62 4133.86,3102.78 4133.54,3102.98 4133.24,3103.24 4119.98,3116.5 4109.28,3116.5 4109.16,3116.44 4108.14,3116.28 4108.22,3116.14 4108.38,3115.78 4108.46,3115.4 4108.5,3115 4108.5,3113.66 4109.16,3113.56 4110.2,3113.02 4111.02,3112.2 4111.56,3111.16 4111.74,3110 4111.56,3108.84 4111.02,3107.8 4110.2,3106.98 4109.16,3106.44 4108,3106.26 4106.84,3106.44 4105.8,3106.98 4104.98,3107.8 4104.44,3108.84 4104.26,3110 4104.28,3110.2 4104.24,3110.24 4103.98,3110.54 4103.78,3110.86 4103.62,3111.22 4103.54,3111.6 4103.5,3112 4103.5,3113.98 4102.5,3114.98 4102.5,3108.02 4106.56,3103.96 4107.1,3103.6 4108,3103.74 4109.16,3103.56 4110.2,3103.02 4111.02,3102.2 4111.56,3101.16 4111.74,3100 4111.56,3098.84 4111.02,3097.8 4110.2,3096.98 4109.16,3096.44 4108,3096.26 4106.84,3096.44 4105.8,3096.98 4104.98,3097.8 4104.44,3098.84 4104.34,3099.44 4103.62,3099.92 4103.3,3100.16 4103.24,3100.24 4098.48,3105 4098.38,3104.9 4098.1,3104.74 4097.8,3104.7 4096.14,3104.7 4096.14,3107.36 4097.5,3107.36 4097.5,3110.64 4096.14,3110.64 4096.14,3113.3 4097.5,3113.3 4097.5,3113.98 4092.98,3118.5 4091,3118.5 4090.6,3118.54 4090.22,3118.62 4089.86,3118.78 4089.54,3118.98 4089.24,3119.24 4086.24,3122.24 4085.98,3122.54 4085.78,3122.86 4085.62,3123.22 4085.54,3123.6 4085.54,3123.7 4083.7,3123.7 4083.4,3123.74 4083.12,3123.9 4082.9,3124.12 4082.76,3124.38 4082.6,3124.12 4082.38,3123.9 4082.1,3123.74 4081.8,3123.7 4081,3123.7 4081,3120.5 4080.96,3120.1 4080.88,3119.72 4080.72,3119.36 4080.52,3119.04 4080.26,3118.74 4074.82,3113.3 4080.8,3113.3 4081.1,3113.26 4081.38,3113.1 4081.6,3112.88 4081.76,3112.62 4081.9,3112.88 4082.12,3113.1 4082.4,3113.26 4082.7,3113.3 4089.3,3113.3 4089.6,3113.26 4089.88,3113.1 4090.1,3112.88 4090.26,3112.62 4090.4,3112.88 4090.62,3113.1 4090.9,3113.26 4091.2,3113.3 4092.86,3113.3 4092.86,3110.64 4090.3,3110.64 4090.3,3107.36 4092.86,3107.36 4092.86,3104.7 4091.82,3104.7 4096.02,3100.5 4097,3100.5 4097.32,3100.48 4097.62,3100.42 4097.92,3100.32 4098.2,3100.2 4098.48,3100.02 4107.28,3093.62 4108,3093.74 4109.16,3093.56 4110.2,3093.02 4111.02,3092.2 4111.56,3091.16 4111.74,3090 4111.56,3088.84 4111.02,3087.8 4110.2,3086.98 4109.16,3086.44 4108,3086.26 4106.84,3086.44 4105.8,3086.98 4104.98,3087.8 4104.44,3088.84 4104.32,3089.58 4096.18,3095.5 4095,3095.5 4094.6,3095.54 4094.22,3095.62 4093.86,3095.78 4093.54,3095.98 4093.24,3096.24 4084.78,3104.7 4082.7,3104.7 4082.4,3104.74 4082.12,3104.9 4081.9,3105.12 4081.76,3105.38 4081.6,3105.12 4081.38,3104.9 4081.1,3104.74 4080.8,3104.7 4080,3104.7 4080,3104.5 4079.96,3104.1 4079.88,3103.72 4079.72,3103.36 4079.52,3103.04 4079.26,3102.74 4072.76,3096.24 4072.46,3095.98 4072.14,3095.78 4071.78,3095.62 4071.4,3095.54 4071,3095.5 4064.34,3095.5 4063.62,3094.72 4062.54,3094.1 4061.32,3093.82 4060.06,3093.9 4058.9,3094.36 4057.92,3095.14 4057.22,3096.18 4056.84,3097.38 4056.84,3098.62 4057.22,3099.82 4057.92,3100.86 4058.9,3101.64 4060.06,3102.1 4061.32,3102.18 4062.54,3101.9 4063.62,3101.28 4064.34,3100.5 4069.98,3100.5 4074.18,3104.7 4073.9,3104.74 4073.62,3104.9 4073.4,3105.12 4073.24,3105.4 4073.2,3105.7 4073.2,3111.68 4067.76,3106.24 4067.46,3105.98 4067.14,3105.78 4066.78,3105.62 4066.4,3105.54 4066,3105.5 4064.34,3105.5 4063.62,3104.72 4062.54,3104.1 4061.32,3103.82 4060.06,3103.9 4058.9,3104.36 4057.92,3105.14 4057.22,3106.18 4056.84,3107.38 4056.84,3108.62 4057.22,3109.82 4057.92,3110.86 4058.9,3111.64 4060.06,3112.1 4061.32,3112.18 4062.54,3111.9 4063.62,3111.28 4064.34,3110.5 4064.98,3110.5 4076,3121.52 4076,3123.7 4075.2,3123.7 4074.9,3123.74 4074.62,3123.9 4074.4,3124.12 4074.24,3124.4 4074.2,3124.7 4074.2,3131.3 4074.24,3131.6 4074.4,3131.88 4074.62,3132.1 4074.9,3132.26 4075.2,3132.3 4081.8,3132.3 4082.1,3132.26 4082.38,3132.1 4082.6,3131.88 4082.76,3131.62 4082.9,3131.88 4083.12,3132.1 4083.4,3132.26 4083.7,3132.3 4090.3,3132.3 4090.6,3132.26 4090.88,3132.1 4091.1,3131.88 4091.26,3131.62 4091.4,3131.88 4091.62,3132.1 4091.9,3132.26 4092.2,3132.3 4093.86,3132.3 4093.86,3129.64 4091.3,3129.64 4091.3,3126.36 4093.86,3126.36 4093.86,3123.7 4092.2,3123.7 4091.9,3123.74 4091.62,3123.9 4092.02,3123.5 4094,3123.5 4094.4,3123.46 4094.78,3123.38 4095.14,3123.22 4095.46,3123.02 4095.76,3122.76 4098.5,3120.02 4098.5,3123.7 4097.14,3123.7 4097.14,3126.36 4099.8,3126.36 4099.8,3126.32 4105.24,3131.76 4105.54,3132.02 4105.86,3132.22 4106.22,3132.38 4106.6,3132.46 4107,3132.5 4145.76,3132.5 4145.82,3132.58 4146.8,3133.2zM4069,3138.5 4177,3138.5 4177.4,3138.46 4177.78,3138.38 4178.14,3138.22 4178.46,3138.02 4178.76,3137.76 4180.76,3135.76 4181.02,3135.46 4181.22,3135.14 4181.38,3134.78 4181.46,3134.4 4181.5,3134 4181.5,3111.02 4192.64,3099.88 4205.22,3099.88 4205.52,3099.84 4205.8,3099.68 4206.02,3099.46 4206.18,3099.18 4206.22,3098.88 4206.22,3089.5 4206.18,3089.2 4206.02,3088.92 4205.8,3088.7 4205.52,3088.54 4205.22,3088.5 4188.36,3088.5 4188.06,3088.54 4187.78,3088.7 4187.56,3088.92 4187.4,3089.2 4187.36,3089.5 4187.36,3091.7 4179.58,3091.7 4175.84,3085.8 4176.3,3085.8 4176.6,3085.76 4176.88,3085.6 4177.1,3085.38 4177.26,3085.1 4177.3,3084.8 4177.3,3077.2 4177.26,3076.9 4177.1,3076.62 4176.88,3076.4 4176.6,3076.24 4176.3,3076.2 4168.7,3076.2 4168.4,3076.24 4168.12,3076.4 4167.9,3076.62 4167.74,3076.9 4167.7,3077.2 4167.7,3078.74 4167.6,3078.5 4166.78,3077.5 4165.7,3076.74 4165.4,3076.64 4165.4,3079.1 4167.7,3079.1 4167.7,3082.9 4165.4,3082.9 4165.4,3085.36 4165.7,3085.26 4166.78,3084.5 4167.6,3083.5 4167.7,3083.26 4167.7,3084.8 4167.74,3085.1 4167.9,3085.38 4168.12,3085.6 4168.4,3085.76 4168.7,3085.8 4170.48,3085.8 4170.52,3086.24 4170.54,3086.48 4170.6,3086.7 4170.68,3086.92 4170.78,3087.14 4170.88,3087.34 4176.08,3095.54 4176.4,3095.94 4176.78,3096.26 4177.22,3096.5 4177.7,3096.64 4178.2,3096.7 4187.36,3096.7 4187.36,3098.12 4177.24,3108.24 4176.98,3108.54 4176.78,3108.86 4176.62,3109.22 4176.54,3109.6 4176.5,3110 4176.5,3132.98 4175.98,3133.5 4070.02,3133.5 4064.5,3127.98 4064.5,3122.16 4064.78,3122 4065,3121.78 4065.16,3121.5 4065.2,3121.2 4065.2,3114.78 4065.16,3114.48 4065,3114.2 4064.78,3113.98 4064.5,3113.82 4064.2,3113.78 4057.78,3113.78 4057.48,3113.82 4057.2,3113.98 4056.98,3114.2 4056.82,3114.48 4056.78,3114.78 4056.78,3121.2 4056.82,3121.5 4056.98,3121.78 4057.2,3122 4057.48,3122.16 4057.78,3122.2 4059.5,3122.2 4059.5,3129 4059.54,3129.4 4059.62,3129.78 4059.78,3130.14 4059.98,3130.46 4060.24,3130.76 4067.24,3137.76 4067.54,3138.02 4067.86,3138.22 4068.22,3138.38 4068.6,3138.46zM4056.08,3079.34 4145.04,3079.34 4145.34,3079.3 4145.62,3079.14 4145.84,3078.92 4146,3078.64 4146.04,3078.34 4146.04,3071.04 4146,3070.74 4145.84,3070.46 4145.62,3070.24 4145.34,3070.08 4145.04,3070.04 4056.08,3070.04 4055.78,3070.08 4055.5,3070.24 4055.28,3070.46 4055.12,3070.74 4055.08,3071.04 4055.08,3078.34 4055.12,3078.64 4055.28,3078.92 4055.5,3079.14 4055.78,3079.3zM4178.94,3083.36 4185.5,3083.36 4185.8,3083.32 4186.08,3083.16 4186.3,3082.94 4186.46,3082.66 4186.5,3082.36 4186.5,3075.82 4186.46,3075.52 4186.3,3075.24 4186.08,3075.02 4185.8,3074.86 4185.5,3074.82 4178.94,3074.82 4178.64,3074.86 4178.36,3075.02 4178.14,3075.24 4177.98,3075.52 4177.94,3075.82 4177.94,3082.36 4177.98,3082.66 4178.14,3082.94 4178.36,3083.16 4178.64,3083.32zM4169.04,3133.24 4169.72,3132.94 4170.56,3132.14 4171.06,3131.24 4169.04,3131.24zM4166.56,3133.24 4166.56,3131.24 4164.58,3131.24 4164.72,3131.66 4165.42,3132.58 4166.4,3133.2zM4096.14,3087.36 4098.8,3087.36 4098.8,3085.7 4098.76,3085.4 4098.6,3085.12 4098.38,3084.9 4098.1,3084.74 4097.8,3084.7 4096.14,3084.7zM4134.54,3088.64 4136.64,3088.64 4136.64,3086.54 4135.8,3086.98 4134.98,3087.8zM4139.36,3088.64 4141.46,3088.64 4141.02,3087.8 4140.2,3086.98 4139.36,3086.54zM4097.14,3132.3 4098.8,3132.3 4099.1,3132.26 4099.38,3132.1 4099.6,3131.88 4099.76,3131.6 4099.8,3131.3 4099.8,3129.64 4097.14,3129.64zM4096.14,3093.3 4097.8,3093.3 4098.1,3093.26 4098.38,3093.1 4098.6,3092.88 4098.76,3092.6 4098.8,3092.3 4098.8,3090.64 4096.14,3090.64zM4136.64,3093.46 4136.64,3091.36 4134.54,3091.36 4134.98,3092.2 4135.8,3093.02zM4169.04,3128.76 4171.06,3128.76 4170.56,3127.86 4169.72,3127.06 4169.04,3126.76zM4164.58,3128.76 4166.56,3128.76 4166.56,3126.76 4166.4,3126.8 4165.42,3127.42 4164.72,3128.34zM4139.36,3093.46 4140.2,3093.02 4141.02,3092.2 4141.46,3091.36 4139.36,3091.36zM4187.36,3111.46 4192.6,3111.46 4192.6,3108.1 4188.36,3108.1 4188.06,3108.14 4187.78,3108.3 4187.56,3108.52 4187.4,3108.8 4187.36,3109.1zM4201,3111.46 4206.22,3111.46 4206.22,3109.1 4206.18,3108.8 4206.02,3108.52 4205.8,3108.3 4205.52,3108.14 4205.22,3108.1 4201,3108.1zM4188.36,3119.48 4192.6,3119.48 4192.6,3116.14 4187.36,3116.14 4187.36,3118.48 4187.4,3118.78 4187.56,3119.06 4187.78,3119.28 4188.06,3119.44zM4201,3119.48 4205.22,3119.48 4205.52,3119.44 4205.8,3119.28 4206.02,3119.06 4206.18,3118.78 4206.22,3118.48 4206.22,3116.14 4201,3116.14zM4135.24,3123.74 4140.74,3123.74 4141.04,3123.7 4141.32,3123.54 4141.54,3123.32 4141.7,3123.04 4141.74,3122.74 4141.74,3117.24 4141.7,3116.94 4141.54,3116.66 4141.32,3116.44 4141.04,3116.28 4140.74,3116.24 4135.24,3116.24 4134.94,3116.28 4134.66,3116.44 4134.44,3116.66 4134.28,3116.94 4134.24,3117.24 4134.24,3122.74 4134.28,3123.04 4134.44,3123.32 4134.66,3123.54 4134.94,3123.7z"  layerid="2" stroke-width="0"  /> <polyline points="4159 3112.8 4159 3112.8" stroke-width="3"   stroke-linecap="round" fill="none" layerid="2"/> <polyline points="4196.8 3094.2 4194.8 3094.2 4179 3110 4179 3134 4177 3136 4069 3136 4062 3129 4062 3119 4061 3118" stroke-width="3"   stroke-linecap="round" fill="none" layerid="2"/> <polyline points="4077.5 3089 4062 3089 4061 3088" stroke-width="3"   stroke-linecap="round" fill="none" layerid="2"/> <polyline points="4077.5 3109 4077.5 3104.5 4071 3098 4061 3098" stroke-width="3"   stroke-linecap="round" fill="none" layerid="2"/> <polyline points="4078.5 3128 4078.5 3120.5 4066 3108 4061 3108" stroke-width="3"   stroke-linecap="round" fill="none" layerid="2"/> <polyline points="4086 3109 4086 3107 4095 3098 4097 3098 4108 3090" stroke-width="3"   stroke-linecap="round" fill="none" layerid="2"/> <polyline points="4108 3100 4105 3102 4100 3107 4100 3115 4094 3121 4091 3121 4088 3124 4088 3127 4087 3128" stroke-width="3"   stroke-linecap="round" fill="none" layerid="2"/> <polyline points="4196.8 3094.2 4178.2 3094.2 4173 3086 4173 3086 4172.5 3081" stroke-width="3"   stroke-linecap="round" fill="none" layerid="2"/> <polyline points="4154.5 3081 4151 3088 4144 3096 4144 3102 4141 3105 4135 3105 4127 3113 4121 3119 4109 3119 4108 3120" stroke-width="3"   stroke-linecap="round" fill="none" layerid="2"/> <polyline points="4086 3089 4086 3085 4089 3082 4120 3082 4138 3100" stroke-width="3"   stroke-linecap="round" fill="none" layerid="2"/> <polyline points="4148.2 3130 4107 3130 4101 3124 4101 3120 4106 3115 4106 3112 4108 3110" stroke-width="3"   stroke-linecap="round" fill="none" layerid="2"/>      <g c_partid="part_pad" c_type="pinpart" layerid="11" c_etype="pinpart">  <ellipse  xmlns="http://www.w3.org/2000/svg" cx="4167.8" cy="3130" rx="2.5" ry="2.5" stroke-width="0"  />  <circle cx="4167.8" cy="3130" r="1.57" stroke-width="0" /></g>      <g c_partid="part_pad" c_type="pinpart" layerid="11" c_etype="pinpart">  <ellipse  xmlns="http://www.w3.org/2000/svg" cx="4148.2" cy="3130" rx="2.5" ry="2.5" stroke-width="0"  />  <circle cx="4148.2" cy="3130" r="1.57" stroke-width="0" /></g>      <g c_partid="part_pad" c_type="pinpart" layerid="11" c_etype="pinpart">  <polygon  points="4135.25 3122.75 4135.25 3117.25 4140.75 3117.25 4140.75 3122.75" stroke-linecap="round" stroke-width="0" />  <circle cx="4138" cy="3120" r="1.4" stroke-width="0" /></g>      <g c_partid="part_pad" c_type="pinpart" layerid="11" c_etype="pinpart">  <ellipse  xmlns="http://www.w3.org/2000/svg" cx="4138" cy="3110" rx="2.75" ry="2.75" stroke-width="0"  />  <circle cx="4138" cy="3110" r="1.4" stroke-width="0" /></g>      <g c_partid="part_pad" c_type="pinpart" layerid="11" c_etype="pinpart">  <ellipse  xmlns="http://www.w3.org/2000/svg" cx="4138" cy="3100" rx="2.75" ry="2.75" stroke-width="0"  />  <circle cx="4138" cy="3100" r="1.4" stroke-width="0" /></g>      <g c_partid="part_pad" c_type="pinpart" layerid="11" c_etype="pinpart">  <ellipse  xmlns="http://www.w3.org/2000/svg" cx="4138" cy="3090" rx="2.75" ry="2.75" stroke-width="0"  />  <circle cx="4138" cy="3090" r="1.4" stroke-width="0" /></g>      <g c_partid="part_pad" c_type="pinpart" layerid="11" c_etype="pinpart">  <ellipse  xmlns="http://www.w3.org/2000/svg" cx="4108" cy="3090" rx="2.75" ry="2.75" stroke-width="0"  />  <circle cx="4108" cy="3090" r="1.4" stroke-width="0" /></g>      <g c_partid="part_pad" c_type="pinpart" layerid="11" c_etype="pinpart">  <ellipse  xmlns="http://www.w3.org/2000/svg" cx="4108" cy="3100" rx="2.75" ry="2.75" stroke-width="0"  />  <circle cx="4108" cy="3100" r="1.4" stroke-width="0" /></g>      <g c_partid="part_pad" c_type="pinpart" layerid="11" c_etype="pinpart">  <ellipse  xmlns="http://www.w3.org/2000/svg" cx="4108" cy="3110" rx="2.75" ry="2.75" stroke-width="0"  />  <circle cx="4108" cy="3110" r="1.4" stroke-width="0" /></g>      <g c_partid="part_pad" c_type="pinpart" layerid="11" c_etype="pinpart">  <ellipse  xmlns="http://www.w3.org/2000/svg" cx="4108" cy="3120" rx="2.75" ry="2.75" stroke-width="0"  />  <circle cx="4108" cy="3120" r="1.4" stroke-width="0" /></g>      <g c_partid="part_pad" c_type="pinpart" layerid="11" c_etype="pinpart">  <polygon  points="4097.8 3112.3 4091.2 3112.3 4091.2 3105.7 4097.8 3105.7" stroke-linecap="round" stroke-width="0" />  <circle cx="4094.5" cy="3109" r="1.6" stroke-width="0" /></g>      <g c_partid="part_pad" c_type="pinpart" layerid="11" c_etype="pinpart">  <polygon  points="4089.3 3112.3 4082.7 3112.3 4082.7 3105.7 4089.3 3105.7" stroke-linecap="round" stroke-width="0" />  <circle cx="4086" cy="3109" r="1.6" stroke-width="0" /></g>      <g c_partid="part_pad" c_type="pinpart" layerid="11" c_etype="pinpart">  <polygon  points="4080.8 3112.3 4074.2 3112.3 4074.2 3105.7 4080.8 3105.7" stroke-linecap="round" stroke-width="0" />  <circle cx="4077.5" cy="3109" r="1.6" stroke-width="0" /></g>      <g c_partid="part_pad" c_type="pinpart" layerid="11" c_etype="pinpart">  <polygon  points="4098.8 3131.3 4092.2 3131.3 4092.2 3124.7 4098.8 3124.7" stroke-linecap="round" stroke-width="0" />  <circle cx="4095.5" cy="3128" r="1.6" stroke-width="0" /></g>      <g c_partid="part_pad" c_type="pinpart" layerid="11" c_etype="pinpart">  <polygon  points="4090.3 3131.3 4083.7 3131.3 4083.7 3124.7 4090.3 3124.7" stroke-linecap="round" stroke-width="0" />  <circle cx="4087" cy="3128" r="1.6" stroke-width="0" /></g>      <g c_partid="part_pad" c_type="pinpart" layerid="11" c_etype="pinpart">  <polygon  points="4081.8 3131.3 4075.2 3131.3 4075.2 3124.7 4081.8 3124.7" stroke-linecap="round" stroke-width="0" />  <circle cx="4078.5" cy="3128" r="1.6" stroke-width="0" /></g>      <g c_partid="part_pad" c_type="pinpart" layerid="11" c_etype="pinpart">  <polygon  points="4097.8 3092.3 4091.2 3092.3 4091.2 3085.7 4097.8 3085.7" stroke-linecap="round" stroke-width="0" />  <circle cx="4094.5" cy="3089" r="1.6" stroke-width="0" /></g>      <g c_partid="part_pad" c_type="pinpart" layerid="11" c_etype="pinpart">  <polygon  points="4089.3 3092.3 4082.7 3092.3 4082.7 3085.7 4089.3 3085.7" stroke-linecap="round" stroke-width="0" />  <circle cx="4086" cy="3089" r="1.6" stroke-width="0" /></g>      <g c_partid="part_pad" c_type="pinpart" layerid="11" c_etype="pinpart">  <polygon  points="4080.8 3092.3 4074.2 3092.3 4074.2 3085.7 4080.8 3085.7" stroke-linecap="round" stroke-width="0" />  <circle cx="4077.5" cy="3089" r="1.6" stroke-width="0" /></g>      <g c_partid="part_pad" c_type="pinpart" layerid="11" c_etype="pinpart">  <polygon  points="4057.785 3121.215 4057.785 3114.785 4064.215 3114.785 4064.215 3121.215" stroke-linecap="round" stroke-width="0" />  <circle cx="4061" cy="3118" r="2.01" stroke-width="0" /></g>      <g c_partid="part_pad" c_type="pinpart" layerid="11" c_etype="pinpart">  <ellipse  xmlns="http://www.w3.org/2000/svg" cx="4061" cy="3108" rx="3.215" ry="3.215" stroke-width="0"  />  <circle cx="4061" cy="3108" r="2.01" stroke-width="0" /></g>      <g c_partid="part_pad" c_type="pinpart" layerid="11" c_etype="pinpart">  <ellipse  xmlns="http://www.w3.org/2000/svg" cx="4061" cy="3098" rx="3.215" ry="3.215" stroke-width="0"  />  <circle cx="4061" cy="3098" r="2.01" stroke-width="0" /></g>      <g c_partid="part_pad" c_type="pinpart" layerid="11" c_etype="pinpart">  <ellipse  xmlns="http://www.w3.org/2000/svg" cx="4061" cy="3088" rx="3.215" ry="3.215" stroke-width="0"  />  <circle cx="4061" cy="3088" r="2.01" stroke-width="0" /></g>      <g c_partid="part_pad" c_type="pinpart" layerid="11" c_etype="pinpart">  <polygon  points="4205.235 3098.885 4188.365 3098.885 4188.365 3089.515 4205.235 3089.515" stroke-linecap="round" stroke-width="0" />  <circle cx="4196.8" cy="3094.2" r="2.76" stroke-width="0" /></g>      <g c_partid="part_pad" c_type="pinpart" layerid="11" c_etype="pinpart">  <polygon  points="4205.235 3118.485 4188.365 3118.485 4188.365 3109.115 4205.235 3109.115" stroke-linecap="round" stroke-width="0" />  <circle cx="4196.8" cy="3113.8" r="2.76" stroke-width="0" /></g>      <g c_partid="part_pad" c_type="pinpart" layerid="11" c_etype="pinpart">  <polygon  points="4176.3 3084.8 4168.7 3084.8 4168.7 3077.2 4176.3 3077.2" stroke-linecap="round" stroke-width="0" />  <circle cx="4172.5" cy="3081" r="2.17" stroke-width="0" /></g>      <g c_partid="part_pad" c_type="pinpart" layerid="11" c_etype="pinpart">  <ellipse  xmlns="http://www.w3.org/2000/svg" cx="4163.5" cy="3081" rx="3.8" ry="3.8" stroke-width="0"  />  <circle cx="4163.5" cy="3081" r="2.17" stroke-width="0" /></g>      <g c_partid="part_pad" c_type="pinpart" layerid="11" c_etype="pinpart">  <polygon  points="4158.3 3084.8 4150.7 3084.8 4150.7 3077.2 4158.3 3077.2" stroke-linecap="round" stroke-width="0" />  <circle cx="4154.5" cy="3081" r="2.17" stroke-width="0" /></g> <polyline points="4052 3070 4209 3070 4209 3140 4052 3140 4052 3070" stroke-width="1"   stroke-linecap="round" fill="none" layerid="10"/><path d="M 4142.43 3073.53 L 4142.43 3077.15 L 4142.6 3077.84 L 4142.85 3078.08 L 4143.34 3078.32 L 4143.97 3078.32 L 4144.47 3078.08 M 4142.43 3074.22 L 4142.85 3073.76 L 4143.34 3073.53 L 4143.97 3073.53 L 4144.47 3073.76 L 4144.93 3074.22 L 4145.1 3074.88 L 4145.1 3075.34 L 4144.93 3076.03 L 4144.47 3076.49 L 4143.97 3076.72 L 4143.34 3076.72 L 4142.85 3076.49 L 4142.43 3076.03 M 4140.93 3071.93 L 4140.72 3072.15 L 4140.47 3071.93 L 4140.72 3071.72 L 4140.93 3071.93 M 4140.72 3073.53 L 4140.72 3076.72 M 4138.3 3071.93 L 4138.3 3075.82 L 4138.05 3076.49 L 4137.59 3076.72 L 4137.1 3076.72 M 4138.97 3073.53 L 4137.35 3073.53 M 4135.6 3071.93 L 4135.6 3076.72 M 4135.6 3074.43 L 4134.97 3073.76 L 4134.47 3073.53 L 4133.84 3073.53 L 4133.35 3073.76 L 4133.1 3074.43 L 4133.1 3076.72 M 4131.6 3073.53 L 4131.6 3075.82 L 4131.43 3076.49 L 4130.97 3076.72 L 4130.3 3076.72 L 4129.84 3076.49 L 4129.1 3075.82 M 4129.1 3073.53 L 4129.1 3076.72 M 4127.6 3071.93 L 4127.6 3076.72 M 4127.6 3074.22 L 4127.22 3073.76 L 4126.72 3073.53 L 4126.05 3073.53 L 4125.59 3073.76 L 4125.1 3074.22 L 4124.93 3074.88 L 4124.93 3075.34 L 4125.1 3076.03 L 4125.59 3076.49 L 4126.05 3076.72 L 4126.72 3076.72 L 4127.22 3076.49 L 4127.6 3076.03 M 4123.22 3075.58 L 4123.43 3075.82 L 4123.22 3076.03 L 4122.97 3075.82 L 4123.22 3075.58 M 4118.72 3074.22 L 4119.22 3073.76 L 4119.6 3073.53 L 4120.34 3073.53 L 4120.8 3073.76 L 4121.22 3074.22 L 4121.47 3074.88 L 4121.47 3075.34 L 4121.22 3076.03 L 4120.8 3076.49 L 4120.34 3076.72 L 4119.6 3076.72 L 4119.22 3076.49 L 4118.72 3076.03 M 4116.09 3073.53 L 4116.55 3073.76 L 4116.97 3074.22 L 4117.22 3074.88 L 4117.22 3075.34 L 4116.97 3076.03 L 4116.55 3076.49 L 4116.09 3076.72 L 4115.43 3076.72 L 4114.97 3076.49 L 4114.47 3076.03 L 4114.3 3075.34 L 4114.3 3074.88 L 4114.47 3074.22 L 4114.97 3073.76 L 4115.43 3073.53 L 4116.09 3073.53 M 4112.8 3073.53 L 4112.8 3076.72 M 4112.8 3074.43 L 4112.09 3073.76 L 4111.6 3073.53 L 4110.97 3073.53 L 4110.47 3073.76 L 4110.3 3074.43 L 4110.3 3076.72 M 4110.3 3074.43 L 4109.59 3073.76 L 4109.1 3073.53 L 4108.47 3073.53 L 4107.97 3073.76 L 4107.8 3074.43 L 4107.8 3076.72 M 4102.22 3071.03 L 4106.3 3078.32 M 4099.8 3071.93 L 4099.55 3072.15 L 4099.34 3071.93 L 4099.55 3071.72 L 4099.8 3071.93 M 4099.55 3073.53 L 4099.55 3077.38 L 4099.8 3078.08 L 4100.22 3078.32 L 4100.72 3078.32 M 4095.06 3073.53 L 4095.06 3076.72 M 4095.06 3074.22 L 4095.55 3073.76 L 4095.97 3073.53 L 4096.71 3073.53 L 4097.1 3073.76 L 4097.59 3074.22 L 4097.84 3074.88 L 4097.84 3075.34 L 4097.59 3076.03 L 4097.1 3076.49 L 4096.71 3076.72 L 4095.97 3076.72 L 4095.55 3076.49 L 4095.06 3076.03 M 4093.56 3071.93 L 4093.35 3072.15 L 4093.13 3071.93 L 4093.35 3071.72 L 4093.56 3071.93 M 4093.35 3073.53 L 4093.35 3076.72 M 4091.59 3073.53 L 4091.59 3076.72 M 4091.59 3074.43 L 4090.93 3073.76 L 4090.47 3073.53 L 4089.81 3073.53 L 4089.34 3073.76 L 4089.09 3074.43 L 4089.09 3076.72 M 4089.09 3074.43 L 4088.43 3073.76 L 4087.97 3073.53 L 4087.31 3073.53 L 4086.85 3073.76 L 4086.6 3074.43 L 4086.6 3076.72 M 4085.1 3074.88 L 4082.39 3074.88 L 4082.39 3074.43 L 4082.6 3073.99 L 4082.85 3073.76 L 4083.31 3073.53 L 4083.97 3073.53 L 4084.44 3073.76 L 4084.89 3074.22 L 4085.1 3074.88 L 4085.1 3075.34 L 4084.89 3076.03 L 4084.44 3076.49 L 4083.97 3076.72 L 4083.31 3076.72 L 4082.85 3076.49 L 4082.39 3076.03 M 4080.89 3071.93 L 4080.89 3076.72 M 4076.63 3073.53 L 4076.63 3076.72 M 4076.63 3074.22 L 4077.09 3073.76 L 4077.48 3073.53 L 4078.26 3073.53 L 4078.69 3073.76 L 4079.14 3074.22 L 4079.39 3074.88 L 4079.39 3075.34 L 4079.14 3076.03 L 4078.69 3076.49 L 4078.26 3076.72 L 4077.48 3076.72 L 4077.09 3076.49 L 4076.63 3076.03 M 4075.13 3071.93 L 4075.13 3076.72 M 4075.13 3074.22 L 4074.68 3073.76 L 4074.19 3073.53 L 4073.51 3073.53 L 4073.05 3073.76 L 4072.63 3074.22 L 4072.38 3074.88 L 4072.38 3075.34 L 4072.63 3076.03 L 4073.05 3076.49 L 4073.51 3076.72 L 4074.19 3076.72 L 4074.68 3076.49 L 4075.13 3076.03 M 4069.69 3073.53 L 4070.19 3073.76 L 4070.68 3074.22 L 4070.88 3074.88 L 4070.88 3075.34 L 4070.68 3076.03 L 4070.19 3076.49 L 4069.69 3076.72 L 4069.05 3076.72 L 4068.59 3076.49 L 4068.14 3076.03 L 4067.89 3075.34 L 4067.89 3074.88 L 4068.14 3074.22 L 4068.59 3073.76 L 4069.05 3073.53 L 4069.69 3073.53 M 4066.39 3073.53 L 4066.39 3076.72 M 4066.39 3074.88 L 4066.19 3074.22 L 4065.69 3073.76 L 4065.3 3073.53 L 4064.6 3073.53 M 4060.38 3071.93 L 4060.38 3076.72 M 4060.38 3074.22 L 4060.84 3073.76 L 4061.3 3073.53 L 4061.94 3073.53 L 4062.39 3073.76 L 4062.88 3074.22 L 4063.1 3074.88 L 4063.1 3075.34 L 4062.88 3076.03 L 4062.39 3076.49 L 4061.94 3076.72 L 4061.3 3076.72 L 4060.84 3076.49 L 4060.38 3076.03 M 4056.14 3073.53 L 4056.14 3076.72 M 4056.14 3074.22 L 4056.6 3073.76 L 4057.05 3073.53 L 4057.69 3073.53 L 4058.19 3073.76 L 4058.64 3074.22 L 4058.88 3074.88 L 4058.88 3075.34 L 4058.64 3076.03 L 4058.19 3076.49 L 4057.69 3076.72 L 4057.05 3076.72 L 4056.6 3076.49 L 4056.14 3076.03" fill="none" layerid="2"  stroke-linecap="round" stroke-width="0.8" /><path d="M 4182.23 3075.83 L 4182.23 3082.37 M 4185.5 3079.1 L 4178.95 3079.1" fill="none" layerid="2"  stroke-linecap="round" stroke-width="0.8" /><g id="gge539" layerid="2" c_partid="part_svg" c_shapetype="group"><path d="M 4195 3124 C 4195 3124.1 4194.9 3124.5 4194.8 3125 C 4194.7 3125.5 4194.6 3126.1 4194.6 3126.1 C 4194.6 3126.3 4194.5 3126.4 4193.8 3126.6 C 4193 3126.9 4193.2 3126.9 4192.2 3126.3 C 4191.9 3126 4191.5 3125.8 4191.5 3125.7 L 4191.3 3125.6 L 4190.6 3126.4 C 4190.2 3126.7 4189.8 3127 4189.8 3127.1 C 4189.8 3127.2 4189.9 3127.4 4190.3 3128 C 4191 3129 4191 3128.8 4190.6 3129.8 C 4190.3 3130.4 4190.3 3130.5 4190.2 3130.5 C 4190.1 3130.5 4189.6 3130.6 4189.1 3130.7 C 4188.6 3130.8 4188.3 3130.9 4188.2 3131 C 4188.2 3131.1 4188.2 3133 4188.2 3133.1 C 4188.3 3133.2 4188.6 3133.3 4189.2 3133.4 C 4189.7 3133.5 4190.2 3133.6 4190.2 3133.6 C 4190.3 3133.6 4190.3 3133.7 4190.4 3133.8 C 4190.4 3134 4190.6 3134.4 4190.7 3134.7 L 4190.9 3135.3 L 4190.7 3135.5 C 4190.6 3135.7 4190.4 3136 4190.2 3136.2 C 4190.1 3136.4 4189.9 3136.7 4189.9 3136.8 L 4189.7 3137.1 L 4190.5 3137.8 C 4190.9 3138.3 4191.3 3138.6 4191.3 3138.6 C 4191.3 3138.6 4191.7 3138.4 4192.2 3138 L 4193 3137.4 L 4193.4 3137.7 C 4193.7 3137.9 4193.8 3137.9 4193.8 3137.8 C 4194 3137.6 4195.3 3134.2 4195.3 3134.2 C 4195.2 3134.1 4195.1 3134 4194.9 3133.8 C 4194.5 3133.6 4194.3 3133.3 4194.1 3132.9 C 4193.6 3131.7 4194.3 3130.2 4195.6 3130 C 4196.4 3129.7 4197.3 3130.1 4197.8 3130.7 C 4198.1 3131.2 4198.2 3131.6 4198.2 3132.2 C 4198.2 3132.9 4197.9 3133.5 4197.2 3133.9 C 4197 3134 4196.9 3134.2 4196.9 3134.2 C 4196.9 3134.2 4197 3134.5 4197.1 3134.7 C 4197.1 3134.9 4197.4 3135.5 4197.7 3136.2 C 4197.9 3136.9 4198.2 3137.4 4198.2 3137.6 C 4198.3 3137.7 4198.4 3137.9 4198.4 3137.9 C 4198.4 3137.9 4198.6 3137.8 4198.8 3137.6 L 4199.2 3137.4 L 4200 3138 C 4200.4 3138.4 4200.8 3138.6 4200.9 3138.6 C 4201 3138.6 4202.4 3137.1 4202.4 3137 C 4202.4 3137 4202.1 3136.6 4201.9 3136.2 C 4201.6 3135.7 4201.4 3135.4 4201.3 3135.4 C 4201.3 3135.3 4201.3 3135.1 4201.6 3134.4 C 4201.7 3134 4201.9 3133.6 4201.9 3133.6 C 4201.9 3133.6 4202.4 3133.5 4202.8 3133.4 C 4203.3 3133.3 4203.8 3133.2 4203.8 3133.2 C 4203.9 3133.2 4203.9 3133.1 4203.9 3132 C 4203.9 3130.9 4203.9 3130.9 4203.8 3130.9 C 4203.7 3130.9 4203.3 3130.8 4202.8 3130.7 C 4202.3 3130.6 4201.9 3130.5 4201.9 3130.5 C 4201.9 3130.5 4201.7 3130.1 4201.5 3129.7 L 4201.2 3128.9 L 4201.8 3128.2 C 4202.1 3127.7 4202.4 3127.2 4202.4 3127.1 C 4202.4 3127 4201 3125.6 4200.8 3125.6 C 4200.8 3125.6 4200.5 3125.9 4200.2 3126.1 C 4199.8 3126.4 4199.5 3126.6 4199.3 3126.7 L 4199 3126.9 L 4198.8 3126.7 C 4198.3 3126.6 4197.7 3126.3 4197.6 3126.3 C 4197.6 3126.3 4197.6 3126.1 4197.4 3124.9 C 4197.3 3124.5 4197.2 3124.1 4197.2 3124.1 C 4197.1 3124 4196.9 3124 4196.1 3124 C 4195.5 3124 4195 3124 4195 3124" id="gge540" stroke="none"/></g></g></svg>