G04 ---------------------------- Layer name :BOTTOM LAYER*
G04 easyEDA 0.1*
G04 Scale: 100 percent, Rotated: No, Reflected: No *
G04 Dimensions in inches *
G04 leading zeros omitted , absolute positions ,2 integer and 4 * 
%FSLAX24Y24*%
%MOIN*%
G90*
G70D02*

%ADD11C,0.030000*%
%ADD12C,0.015000*%
%ADD13C,0.020000*%
%ADD14C,0.008000*%
%ADD15C,0.050000*%
%ADD17R,0.055000X0.055000*%
%ADD18C,0.055000*%
%ADD20R,0.066000X0.066000*%
%ADD21R,0.064300X0.064300*%
%ADD22C,0.064300*%
%ADD24R,0.168700X0.093700*%

%LPD*%
%LNCopperArea outer*%
G36*
G01X0Y7500D02*
G01X0Y15000D01*
G01X15700Y15000D01*
G01X15700Y7500D01*
G01X0Y7500D01*
G37*

%LPC*%
%LNCopper Hole*%
G36*
G01X732Y13982D02*
G01X8734Y13982D01*
G01X8764Y13986D01*
G01X8792Y14001D01*
G01X8814Y14023D01*
G01X8830Y14051D01*
G01X8834Y14082D01*
G01X8834Y14736D01*
G01X8830Y14765D01*
G01X8814Y14794D01*
G01X8792Y14815D01*
G01X8764Y14832D01*
G01X8734Y14836D01*
G01X732Y14836D01*
G01X701Y14832D01*
G01X673Y14815D01*
G01X651Y14794D01*
G01X636Y14765D01*
G01X632Y14736D01*
G01X632Y14082D01*
G01X636Y14051D01*
G01X651Y14023D01*
G01X673Y14001D01*
G01X701Y13986D01*
G01X732Y13982D01*
G37*
G36*
G01X13369Y13884D02*
G01X14892Y13884D01*
G01X14922Y13888D01*
G01X14950Y13903D01*
G01X14972Y13926D01*
G01X14988Y13953D01*
G01X14992Y13984D01*
G01X14992Y14413D01*
G01X14988Y14444D01*
G01X14972Y14471D01*
G01X14950Y14494D01*
G01X14922Y14509D01*
G01X14892Y14513D01*
G01X13369Y14513D01*
G01X13339Y14509D01*
G01X13311Y14494D01*
G01X13289Y14471D01*
G01X13273Y14444D01*
G01X13269Y14413D01*
G01X13269Y13984D01*
G01X13273Y13953D01*
G01X13289Y13926D01*
G01X13311Y13903D01*
G01X13339Y13888D01*
G01X13369Y13884D01*
G37*
G36*
G01X9592Y8351D02*
G01X9706Y8359D01*
G01X9811Y8405D01*
G01X9896Y8486D01*
G01X9952Y8586D01*
G01X9969Y8700D01*
G01X9952Y8813D01*
G01X9896Y8913D01*
G01X9811Y8994D01*
G01X9706Y9040D01*
G01X9592Y9048D01*
G01X9480Y9019D01*
G01X9381Y8957D01*
G01X9311Y8865D01*
G01X9273Y8757D01*
G01X9273Y8642D01*
G01X9311Y8534D01*
G01X9381Y8442D01*
G01X9480Y8380D01*
G01X9592Y8351D01*
G37*
G36*
G01X11703Y8376D02*
G01X11772Y8405D01*
G01X11856Y8486D01*
G01X11906Y8576D01*
G01X11703Y8576D01*
G01X11703Y8376D01*
G37*
G36*
G01X11456Y8376D02*
G01X11456Y8576D01*
G01X11257Y8576D01*
G01X11272Y8534D01*
G01X11342Y8442D01*
G01X11439Y8380D01*
G01X11456Y8376D01*
G37*
G36*
G01X2219Y8469D02*
G01X2880Y8469D01*
G01X2909Y8473D01*
G01X2938Y8490D01*
G01X2959Y8511D01*
G01X2976Y8538D01*
G01X2990Y8511D01*
G01X3011Y8490D01*
G01X3040Y8473D01*
G01X3069Y8469D01*
G01X3730Y8469D01*
G01X3759Y8473D01*
G01X3788Y8490D01*
G01X3809Y8511D01*
G01X3826Y8538D01*
G01X3840Y8511D01*
G01X3861Y8490D01*
G01X3890Y8473D01*
G01X3919Y8469D01*
G01X4086Y8469D01*
G01X4086Y8736D01*
G01X3830Y8736D01*
G01X3830Y9063D01*
G01X4086Y9063D01*
G01X4086Y9330D01*
G01X3919Y9330D01*
G01X3890Y9326D01*
G01X3861Y9309D01*
G01X3840Y9288D01*
G01X3826Y9261D01*
G01X3809Y9288D01*
G01X3788Y9309D01*
G01X3759Y9326D01*
G01X3730Y9330D01*
G01X3069Y9330D01*
G01X3040Y9326D01*
G01X3011Y9309D01*
G01X2990Y9288D01*
G01X2976Y9261D01*
G01X2959Y9288D01*
G01X2938Y9309D01*
G01X2909Y9326D01*
G01X2880Y9330D01*
G01X2850Y9330D01*
G01X2850Y9500D01*
G01X2846Y9540D01*
G01X2838Y9578D01*
G01X2821Y9613D01*
G01X2801Y9646D01*
G01X2776Y9676D01*
G01X1376Y11076D01*
G01X1346Y11101D01*
G01X1313Y11121D01*
G01X1278Y11138D01*
G01X1240Y11146D01*
G01X1238Y11146D01*
G01X1161Y11228D01*
G01X1053Y11290D01*
G01X932Y11317D01*
G01X805Y11309D01*
G01X690Y11263D01*
G01X592Y11186D01*
G01X521Y11082D01*
G01X484Y10961D01*
G01X484Y10838D01*
G01X521Y10717D01*
G01X592Y10613D01*
G01X690Y10536D01*
G01X805Y10490D01*
G01X932Y10482D01*
G01X1053Y10509D01*
G01X1161Y10571D01*
G01X1167Y10580D01*
G01X2350Y9398D01*
G01X2350Y9330D01*
G01X2219Y9330D01*
G01X2190Y9326D01*
G01X2161Y9309D01*
G01X2140Y9288D01*
G01X2123Y9259D01*
G01X2119Y9230D01*
G01X2119Y8569D01*
G01X2123Y8540D01*
G01X2140Y8511D01*
G01X2161Y8490D01*
G01X2190Y8473D01*
G01X2219Y8469D01*
G37*
G36*
G01X10169Y13463D02*
G01X10435Y13463D01*
G01X10435Y13730D01*
G01X10269Y13730D01*
G01X10239Y13726D01*
G01X10211Y13709D01*
G01X10189Y13688D01*
G01X10173Y13659D01*
G01X10169Y13630D01*
G01X10169Y13463D01*
G37*
G36*
G01X4414Y8469D02*
G01X4580Y8469D01*
G01X4610Y8473D01*
G01X4638Y8490D01*
G01X4660Y8511D01*
G01X4676Y8540D01*
G01X4680Y8569D01*
G01X4680Y8736D01*
G01X4414Y8736D01*
G01X4414Y8469D01*
G37*
G36*
G01X10764Y13463D02*
G01X11030Y13463D01*
G01X11030Y13630D01*
G01X11026Y13659D01*
G01X11010Y13688D01*
G01X10988Y13709D01*
G01X10960Y13726D01*
G01X10930Y13730D01*
G01X10764Y13730D01*
G01X10764Y13463D01*
G37*
G36*
G01X4414Y13063D02*
G01X4680Y13063D01*
G01X4680Y13230D01*
G01X4676Y13259D01*
G01X4660Y13288D01*
G01X4638Y13309D01*
G01X4610Y13326D01*
G01X4580Y13330D01*
G01X4414Y13330D01*
G01X4414Y13063D01*
G37*
G36*
G01X11703Y8823D02*
G01X11906Y8823D01*
G01X11856Y8913D01*
G01X11772Y8994D01*
G01X11703Y9023D01*
G01X11703Y8823D01*
G37*
G36*
G01X11257Y8823D02*
G01X11456Y8823D01*
G01X11456Y9023D01*
G01X11439Y9019D01*
G01X11342Y8957D01*
G01X11272Y8865D01*
G01X11257Y8823D01*
G37*
G36*
G01X4414Y9063D02*
G01X4680Y9063D01*
G01X4680Y9230D01*
G01X4676Y9259D01*
G01X4660Y9288D01*
G01X4638Y9309D01*
G01X4610Y9326D01*
G01X4580Y9330D01*
G01X4414Y9330D01*
G01X4414Y9063D01*
G37*
G36*
G01X10269Y12869D02*
G01X10435Y12869D01*
G01X10435Y13136D01*
G01X10169Y13136D01*
G01X10169Y12969D01*
G01X10173Y12940D01*
G01X10189Y12911D01*
G01X10211Y12890D01*
G01X10239Y12873D01*
G01X10269Y12869D01*
G37*
G36*
G01X8853Y12836D02*
G01X9064Y12836D01*
G01X9064Y13046D01*
G01X8980Y13001D01*
G01X8897Y12919D01*
G01X8853Y12836D01*
G37*
G36*
G01X9335Y12836D02*
G01X9546Y12836D01*
G01X9502Y12919D01*
G01X9419Y13001D01*
G01X9335Y13046D01*
G01X9335Y12836D01*
G37*
G36*
G01X4414Y12469D02*
G01X4580Y12469D01*
G01X4610Y12473D01*
G01X4638Y12490D01*
G01X4660Y12511D01*
G01X4676Y12540D01*
G01X4680Y12569D01*
G01X4680Y12736D01*
G01X4414Y12736D01*
G01X4414Y12469D01*
G37*
G36*
G01X2219Y12469D02*
G01X2880Y12469D01*
G01X2909Y12473D01*
G01X2938Y12490D01*
G01X2959Y12511D01*
G01X2976Y12538D01*
G01X2990Y12511D01*
G01X3011Y12490D01*
G01X3040Y12473D01*
G01X3069Y12469D01*
G01X3730Y12469D01*
G01X3759Y12473D01*
G01X3788Y12490D01*
G01X3809Y12511D01*
G01X3826Y12538D01*
G01X3840Y12511D01*
G01X3861Y12490D01*
G01X3890Y12473D01*
G01X3919Y12469D01*
G01X4086Y12469D01*
G01X4086Y12736D01*
G01X3830Y12736D01*
G01X3830Y13063D01*
G01X4086Y13063D01*
G01X4086Y13330D01*
G01X3919Y13330D01*
G01X3890Y13326D01*
G01X3861Y13309D01*
G01X3840Y13288D01*
G01X3826Y13261D01*
G01X3809Y13288D01*
G01X3788Y13309D01*
G01X3759Y13326D01*
G01X3730Y13330D01*
G01X3069Y13330D01*
G01X3040Y13326D01*
G01X3011Y13309D01*
G01X2990Y13288D01*
G01X2976Y13261D01*
G01X2959Y13288D01*
G01X2938Y13309D01*
G01X2909Y13326D01*
G01X2880Y13330D01*
G01X2219Y13330D01*
G01X2190Y13326D01*
G01X2161Y13309D01*
G01X2140Y13288D01*
G01X2123Y13259D01*
G01X2119Y13230D01*
G01X2119Y13123D01*
G01X1280Y13069D01*
G01X1248Y13136D01*
G01X1161Y13228D01*
G01X1053Y13290D01*
G01X932Y13317D01*
G01X805Y13309D01*
G01X690Y13263D01*
G01X592Y13186D01*
G01X521Y13082D01*
G01X484Y12961D01*
G01X484Y12838D01*
G01X521Y12717D01*
G01X592Y12613D01*
G01X690Y12536D01*
G01X805Y12490D01*
G01X932Y12482D01*
G01X1053Y12509D01*
G01X1138Y12557D01*
G01X2119Y12621D01*
G01X2119Y12569D01*
G01X2123Y12540D01*
G01X2140Y12511D01*
G01X2161Y12490D01*
G01X2190Y12473D01*
G01X2219Y12469D01*
G37*
G36*
G01X9064Y12353D02*
G01X9064Y12563D01*
G01X8853Y12563D01*
G01X8897Y12480D01*
G01X8980Y12398D01*
G01X9064Y12353D01*
G37*
G36*
G01X9335Y12353D02*
G01X9419Y12398D01*
G01X9502Y12480D01*
G01X9546Y12563D01*
G01X9335Y12563D01*
G01X9335Y12353D01*
G37*
G36*
G01X13335Y9751D02*
G01X13760Y9751D01*
G01X13760Y10086D01*
G01X13235Y10086D01*
G01X13235Y9851D01*
G01X13239Y9821D01*
G01X13256Y9794D01*
G01X13277Y9771D01*
G01X13306Y9755D01*
G01X13335Y9751D01*
G37*
G36*
G01X6200Y12326D02*
G01X6315Y12344D01*
G01X6419Y12398D01*
G01X6502Y12480D01*
G01X6556Y12584D01*
G01X6573Y12700D01*
G01X6556Y12815D01*
G01X6502Y12919D01*
G01X6419Y13001D01*
G01X6315Y13055D01*
G01X6200Y13073D01*
G01X6084Y13055D01*
G01X5980Y13001D01*
G01X5897Y12919D01*
G01X5843Y12815D01*
G01X5826Y12700D01*
G01X5843Y12584D01*
G01X5897Y12480D01*
G01X5980Y12398D01*
G01X6084Y12344D01*
G01X6200Y12326D01*
G37*
G36*
G01X6200Y10326D02*
G01X6315Y10344D01*
G01X6419Y10398D01*
G01X6502Y10480D01*
G01X6556Y10584D01*
G01X6573Y10700D01*
G01X6556Y10815D01*
G01X6502Y10919D01*
G01X6419Y11001D01*
G01X6315Y11055D01*
G01X6200Y11073D01*
G01X6084Y11055D01*
G01X5980Y11001D01*
G01X5897Y10919D01*
G01X5843Y10815D01*
G01X5826Y10700D01*
G01X5843Y10584D01*
G01X5897Y10480D01*
G01X5980Y10398D01*
G01X6084Y10344D01*
G01X6200Y10326D01*
G37*
G36*
G01X9200Y11326D02*
G01X9315Y11344D01*
G01X9419Y11398D01*
G01X9502Y11480D01*
G01X9556Y11584D01*
G01X9573Y11700D01*
G01X9556Y11815D01*
G01X9502Y11919D01*
G01X9419Y12001D01*
G01X9315Y12055D01*
G01X9200Y12073D01*
G01X9084Y12055D01*
G01X8980Y12001D01*
G01X8897Y11919D01*
G01X8843Y11815D01*
G01X8826Y11700D01*
G01X8843Y11584D01*
G01X8897Y11480D01*
G01X8980Y11398D01*
G01X9084Y11344D01*
G01X9200Y11326D01*
G37*
G36*
G01X2219Y10469D02*
G01X2880Y10469D01*
G01X2909Y10473D01*
G01X2938Y10490D01*
G01X2959Y10511D01*
G01X2976Y10538D01*
G01X2990Y10511D01*
G01X3011Y10490D01*
G01X3040Y10473D01*
G01X3069Y10469D01*
G01X3730Y10469D01*
G01X3759Y10473D01*
G01X3788Y10490D01*
G01X3809Y10511D01*
G01X3826Y10538D01*
G01X3840Y10511D01*
G01X3861Y10490D01*
G01X3890Y10473D01*
G01X3919Y10469D01*
G01X4086Y10469D01*
G01X4086Y10736D01*
G01X3830Y10736D01*
G01X3830Y11063D01*
G01X4086Y11063D01*
G01X4086Y11330D01*
G01X3919Y11330D01*
G01X3890Y11326D01*
G01X3861Y11309D01*
G01X3840Y11288D01*
G01X3826Y11261D01*
G01X3809Y11288D01*
G01X3788Y11309D01*
G01X3759Y11326D01*
G01X3730Y11330D01*
G01X3069Y11330D01*
G01X3040Y11326D01*
G01X3011Y11309D01*
G01X2990Y11288D01*
G01X2976Y11261D01*
G01X2959Y11288D01*
G01X2938Y11309D01*
G01X2909Y11326D01*
G01X2880Y11330D01*
G01X2621Y11330D01*
G01X1876Y12076D01*
G01X1846Y12101D01*
G01X1813Y12121D01*
G01X1778Y12138D01*
G01X1740Y12146D01*
G01X1700Y12150D01*
G01X1234Y12150D01*
G01X1161Y12228D01*
G01X1053Y12290D01*
G01X932Y12317D01*
G01X805Y12309D01*
G01X690Y12263D01*
G01X592Y12186D01*
G01X521Y12082D01*
G01X484Y11961D01*
G01X484Y11838D01*
G01X521Y11717D01*
G01X592Y11613D01*
G01X690Y11536D01*
G01X805Y11490D01*
G01X932Y11482D01*
G01X1053Y11509D01*
G01X1161Y11571D01*
G01X1234Y11650D01*
G01X1598Y11650D01*
G01X2119Y11128D01*
G01X2119Y10569D01*
G01X2123Y10540D01*
G01X2140Y10511D01*
G01X2161Y10490D01*
G01X2190Y10473D01*
G01X2219Y10469D01*
G37*
G36*
G01X6200Y11326D02*
G01X6315Y11344D01*
G01X6419Y11398D01*
G01X6502Y11480D01*
G01X6556Y11584D01*
G01X6573Y11700D01*
G01X6556Y11815D01*
G01X6502Y11919D01*
G01X6419Y12001D01*
G01X6315Y12055D01*
G01X6200Y12073D01*
G01X6084Y12055D01*
G01X5980Y12001D01*
G01X5897Y11919D01*
G01X5843Y11815D01*
G01X5826Y11700D01*
G01X5843Y11584D01*
G01X5897Y11480D01*
G01X5980Y11398D01*
G01X6084Y11344D01*
G01X6200Y11326D01*
G37*
G36*
G01X4414Y10469D02*
G01X4580Y10469D01*
G01X4610Y10473D01*
G01X4638Y10490D01*
G01X4660Y10511D01*
G01X4676Y10540D01*
G01X4680Y10569D01*
G01X4680Y10736D01*
G01X4414Y10736D01*
G01X4414Y10469D01*
G37*
G36*
G01X1900Y7700D02*
G01X14900Y7700D01*
G01X14943Y7703D01*
G01X14985Y7719D01*
G01X15023Y7742D01*
G01X15053Y7773D01*
G01X15077Y7809D01*
G01X15477Y8609D01*
G01X15485Y8628D01*
G01X15492Y8646D01*
G01X15500Y8682D01*
G01X15500Y11500D01*
G01X15497Y11532D01*
G01X15489Y11561D01*
G01X15477Y11590D01*
G01X15461Y11617D01*
G01X15442Y11642D01*
G01X15242Y11842D01*
G01X15218Y11861D01*
G01X15189Y11878D01*
G01X15161Y11890D01*
G01X15131Y11898D01*
G01X15122Y11898D01*
G01X15122Y12750D01*
G01X15118Y12780D01*
G01X15102Y12807D01*
G01X15080Y12830D01*
G01X15052Y12846D01*
G01X15022Y12850D01*
G01X13456Y12850D01*
G01X13456Y13326D01*
G01X13452Y13355D01*
G01X13435Y13384D01*
G01X13414Y13405D01*
G01X13385Y13421D01*
G01X13356Y13426D01*
G01X12702Y13426D01*
G01X12672Y13421D01*
G01X12643Y13405D01*
G01X12622Y13384D01*
G01X12606Y13355D01*
G01X12602Y13326D01*
G01X12602Y12671D01*
G01X12606Y12642D01*
G01X12622Y12613D01*
G01X12643Y12592D01*
G01X12672Y12576D01*
G01X12702Y12571D01*
G01X13235Y12571D01*
G01X13235Y12500D01*
G01X12484Y12500D01*
G01X12027Y12955D01*
G01X12030Y12969D01*
G01X12030Y13630D01*
G01X12026Y13659D01*
G01X12010Y13688D01*
G01X11988Y13709D01*
G01X11960Y13726D01*
G01X11930Y13730D01*
G01X11269Y13730D01*
G01X11239Y13726D01*
G01X11211Y13709D01*
G01X11189Y13688D01*
G01X11173Y13659D01*
G01X11169Y13630D01*
G01X11169Y12980D01*
G01X11030Y12980D01*
G01X11030Y13136D01*
G01X10764Y13136D01*
G01X10764Y12980D01*
G01X10739Y12976D01*
G01X10711Y12959D01*
G01X10689Y12938D01*
G01X10673Y12909D01*
G01X10669Y12880D01*
G01X10669Y12219D01*
G01X10673Y12190D01*
G01X10689Y12161D01*
G01X10711Y12140D01*
G01X10739Y12123D01*
G01X10769Y12119D01*
G01X10796Y12119D01*
G01X10643Y11592D01*
G01X9426Y10373D01*
G01X9373Y10373D01*
G01X9419Y10398D01*
G01X9502Y10480D01*
G01X9556Y10584D01*
G01X9573Y10700D01*
G01X9556Y10815D01*
G01X9502Y10919D01*
G01X9419Y11001D01*
G01X9315Y11055D01*
G01X9200Y11073D01*
G01X9084Y11055D01*
G01X8980Y11001D01*
G01X8897Y10919D01*
G01X8843Y10815D01*
G01X8826Y10700D01*
G01X8843Y10584D01*
G01X8897Y10480D01*
G01X8980Y10398D01*
G01X9026Y10373D01*
G01X7800Y10373D01*
G01X7772Y10371D01*
G01X7746Y10365D01*
G01X7722Y10355D01*
G01X7697Y10340D01*
G01X7676Y10323D01*
G01X7226Y9873D01*
G01X6526Y9873D01*
G01X6502Y9919D01*
G01X6419Y10001D01*
G01X6315Y10055D01*
G01X6200Y10073D01*
G01X6084Y10055D01*
G01X5980Y10001D01*
G01X5897Y9919D01*
G01X5843Y9815D01*
G01X5826Y9700D01*
G01X5843Y9584D01*
G01X5897Y9480D01*
G01X5980Y9398D01*
G01X6084Y9344D01*
G01X6200Y9326D01*
G01X6315Y9344D01*
G01X6419Y9398D01*
G01X6502Y9480D01*
G01X6526Y9526D01*
G01X7300Y9526D01*
G01X7327Y9528D01*
G01X7353Y9534D01*
G01X7377Y9544D01*
G01X7402Y9559D01*
G01X7423Y9576D01*
G01X7873Y10026D01*
G01X8839Y10026D01*
G01X8827Y10005D01*
G01X8823Y9976D01*
G01X8823Y9426D01*
G01X8827Y9396D01*
G01X8843Y9367D01*
G01X8865Y9346D01*
G01X8893Y9330D01*
G01X8923Y9326D01*
G01X9473Y9326D01*
G01X9503Y9330D01*
G01X9531Y9346D01*
G01X9553Y9367D01*
G01X9569Y9396D01*
G01X9573Y9426D01*
G01X9573Y9976D01*
G01X9569Y10005D01*
G01X9553Y10034D01*
G01X9577Y10044D01*
G01X9602Y10059D01*
G01X9623Y10076D01*
G01X10923Y11376D01*
G01X10934Y11390D01*
G01X10946Y11403D01*
G01X10961Y11436D01*
G01X10968Y11451D01*
G01X11157Y12119D01*
G01X11430Y12119D01*
G01X11460Y12123D01*
G01X11488Y12140D01*
G01X11510Y12161D01*
G01X11526Y12190D01*
G01X11530Y12219D01*
G01X11530Y12869D01*
G01X11546Y12869D01*
G01X12257Y12157D01*
G01X12281Y12138D01*
G01X12310Y12121D01*
G01X12338Y12109D01*
G01X12368Y12101D01*
G01X12400Y12100D01*
G01X13235Y12100D01*
G01X13235Y11811D01*
G01X13239Y11782D01*
G01X13256Y11753D01*
G01X13277Y11732D01*
G01X13306Y11715D01*
G01X13335Y11711D01*
G01X14464Y11711D01*
G01X14618Y11557D01*
G01X14642Y11538D01*
G01X14669Y11521D01*
G01X14697Y11509D01*
G01X14727Y11501D01*
G01X14760Y11500D01*
G01X15015Y11500D01*
G01X15100Y11415D01*
G01X15100Y10850D01*
G01X15080Y10869D01*
G01X15052Y10886D01*
G01X15022Y10890D01*
G01X14600Y10890D01*
G01X14600Y10553D01*
G01X15100Y10553D01*
G01X15100Y10086D01*
G01X14600Y10086D01*
G01X14600Y9751D01*
G01X15022Y9751D01*
G01X15052Y9755D01*
G01X15080Y9771D01*
G01X15100Y9792D01*
G01X15100Y8746D01*
G01X14777Y8100D01*
G01X1984Y8100D01*
G01X1100Y8984D01*
G01X1100Y9480D01*
G01X1219Y9480D01*
G01X1250Y9484D01*
G01X1278Y9500D01*
G01X1300Y9521D01*
G01X1315Y9550D01*
G01X1319Y9580D01*
G01X1319Y10221D01*
G01X1315Y10251D01*
G01X1300Y10280D01*
G01X1278Y10301D01*
G01X1250Y10317D01*
G01X1219Y10321D01*
G01X578Y10321D01*
G01X548Y10317D01*
G01X519Y10301D01*
G01X498Y10280D01*
G01X482Y10251D01*
G01X478Y10221D01*
G01X478Y9580D01*
G01X482Y9550D01*
G01X498Y9521D01*
G01X519Y9500D01*
G01X548Y9484D01*
G01X578Y9480D01*
G01X700Y9480D01*
G01X700Y8900D01*
G01X701Y8867D01*
G01X709Y8838D01*
G01X721Y8809D01*
G01X738Y8782D01*
G01X757Y8757D01*
G01X1757Y7757D01*
G01X1782Y7738D01*
G01X1809Y7721D01*
G01X1838Y7709D01*
G01X1867Y7701D01*
G01X1900Y7700D01*
G37*
G36*
G01X13235Y10553D02*
G01X13760Y10553D01*
G01X13760Y10890D01*
G01X13335Y10890D01*
G01X13306Y10886D01*
G01X13277Y10869D01*
G01X13256Y10848D01*
G01X13239Y10819D01*
G01X13235Y10790D01*
G01X13235Y10553D01*
G37*
G36*
G01X4414Y11063D02*
G01X4680Y11063D01*
G01X4680Y11230D01*
G01X4676Y11259D01*
G01X4660Y11288D01*
G01X4638Y11309D01*
G01X4610Y11326D01*
G01X4580Y11330D01*
G01X4414Y11330D01*
G01X4414Y11063D01*
G37*

%LPD*%
%LNVIA PAD TRACK COPPERAREA*%
G54D11*
G01X2550Y12900D02*
G01X1000Y12800D01*
G01X900Y12900D01*
G01X2550Y10900D02*
G01X2550Y11050D01*
G01X1700Y11900D01*
G01X900Y11900D01*
G54D12*
G01X11100Y12550D02*
G01X10800Y11500D01*
G01X9500Y10200D01*
G01X9019Y10200D01*
G01X7800Y10200D01*
G01X7300Y9700D01*
G01X6200Y9700D01*
G54D11*
G01X900Y10900D02*
G01X1200Y10900D01*
G01X1900Y10200D01*
G01X2600Y9500D01*
G01X2600Y8950D01*
G01X2550Y8900D01*
G54D13*
G01X900Y9900D02*
G01X900Y8900D01*
G01X1900Y7900D01*
G01X14900Y7900D01*
G01X15300Y8700D01*
G01X15300Y11500D01*
G01X15100Y11700D01*
G01X14760Y11700D01*
G01X14180Y12280D01*
G01X11600Y13300D02*
G01X11600Y13100D01*
G01X12400Y12300D01*
G01X14160Y12300D01*
G01X14180Y12280D01*
G54D14*
G01X8490Y14511D02*
G01X8490Y14184D01*
G01X8510Y14123D01*
G01X8531Y14101D01*
G01X8573Y14082D01*
G01X8635Y14082D01*
G01X8675Y14101D01*
G01X8490Y14450D02*
G01X8531Y14490D01*
G01X8573Y14511D01*
G01X8635Y14511D01*
G01X8675Y14490D01*
G01X8715Y14450D01*
G01X8735Y14388D01*
G01X8735Y14348D01*
G01X8715Y14286D01*
G01X8675Y14244D01*
G01X8635Y14225D01*
G01X8573Y14225D01*
G01X8531Y14244D01*
G01X8490Y14286D01*
G01X8356Y14653D02*
G01X8335Y14634D01*
G01X8314Y14653D01*
G01X8335Y14675D01*
G01X8356Y14653D01*
G01X8335Y14511D02*
G01X8335Y14225D01*
G01X8119Y14653D02*
G01X8119Y14307D01*
G01X8098Y14244D01*
G01X8056Y14225D01*
G01X8015Y14225D01*
G01X8181Y14511D02*
G01X8035Y14511D01*
G01X7881Y14653D02*
G01X7881Y14225D01*
G01X7881Y14428D02*
G01X7819Y14490D01*
G01X7778Y14511D01*
G01X7715Y14511D01*
G01X7677Y14490D01*
G01X7656Y14428D01*
G01X7656Y14225D01*
G01X7521Y14511D02*
G01X7521Y14307D01*
G01X7502Y14244D01*
G01X7460Y14225D01*
G01X7398Y14225D01*
G01X7356Y14244D01*
G01X7296Y14307D01*
G01X7296Y14511D02*
G01X7296Y14225D01*
G01X7160Y14653D02*
G01X7160Y14225D01*
G01X7160Y14450D02*
G01X7119Y14490D01*
G01X7078Y14511D01*
G01X7019Y14511D01*
G01X6977Y14490D01*
G01X6935Y14450D01*
G01X6915Y14388D01*
G01X6915Y14348D01*
G01X6935Y14286D01*
G01X6977Y14244D01*
G01X7019Y14225D01*
G01X7078Y14225D01*
G01X7119Y14244D01*
G01X7160Y14286D01*
G01X6760Y14326D02*
G01X6781Y14307D01*
G01X6760Y14286D01*
G01X6739Y14307D01*
G01X6760Y14326D01*
G01X6360Y14450D02*
G01X6400Y14490D01*
G01X6440Y14511D01*
G01X6502Y14511D01*
G01X6544Y14490D01*
G01X6585Y14450D01*
G01X6606Y14388D01*
G01X6606Y14348D01*
G01X6585Y14286D01*
G01X6544Y14244D01*
G01X6502Y14225D01*
G01X6440Y14225D01*
G01X6400Y14244D01*
G01X6360Y14286D01*
G01X6123Y14511D02*
G01X6164Y14490D01*
G01X6203Y14450D01*
G01X6223Y14388D01*
G01X6223Y14348D01*
G01X6203Y14286D01*
G01X6164Y14244D01*
G01X6123Y14225D01*
G01X6060Y14225D01*
G01X6019Y14244D01*
G01X5978Y14286D01*
G01X5956Y14348D01*
G01X5956Y14388D01*
G01X5978Y14450D01*
G01X6019Y14490D01*
G01X6060Y14511D01*
G01X6123Y14511D01*
G01X5823Y14511D02*
G01X5823Y14225D01*
G01X5823Y14428D02*
G01X5760Y14490D01*
G01X5721Y14511D01*
G01X5660Y14511D01*
G01X5619Y14490D01*
G01X5598Y14428D01*
G01X5598Y14225D01*
G01X5598Y14428D02*
G01X5535Y14490D01*
G01X5496Y14511D01*
G01X5435Y14511D01*
G01X5394Y14490D01*
G01X5373Y14428D01*
G01X5373Y14225D01*
G01X4869Y14736D02*
G01X5239Y14082D01*
G01X4652Y14653D02*
G01X4631Y14634D01*
G01X4610Y14653D01*
G01X4631Y14675D01*
G01X4652Y14653D01*
G01X4631Y14511D02*
G01X4631Y14163D01*
G01X4652Y14101D01*
G01X4694Y14082D01*
G01X4735Y14082D01*
G01X4230Y14511D02*
G01X4230Y14225D01*
G01X4230Y14450D02*
G01X4273Y14490D01*
G01X4315Y14511D01*
G01X4375Y14511D01*
G01X4415Y14490D01*
G01X4456Y14450D01*
G01X4477Y14388D01*
G01X4477Y14348D01*
G01X4456Y14286D01*
G01X4415Y14244D01*
G01X4375Y14225D01*
G01X4315Y14225D01*
G01X4273Y14244D01*
G01X4230Y14286D01*
G01X4098Y14653D02*
G01X4076Y14634D01*
G01X4055Y14653D01*
G01X4076Y14675D01*
G01X4098Y14653D01*
G01X4076Y14511D02*
G01X4076Y14225D01*
G01X3921Y14511D02*
G01X3921Y14225D01*
G01X3921Y14428D02*
G01X3857Y14490D01*
G01X3819Y14511D01*
G01X3755Y14511D01*
G01X3715Y14490D01*
G01X3696Y14428D01*
G01X3696Y14225D01*
G01X3696Y14428D02*
G01X3632Y14490D01*
G01X3594Y14511D01*
G01X3530Y14511D01*
G01X3490Y14490D01*
G01X3471Y14428D01*
G01X3471Y14225D01*
G01X3334Y14388D02*
G01X3090Y14388D01*
G01X3090Y14428D01*
G01X3109Y14469D01*
G01X3128Y14490D01*
G01X3173Y14511D01*
G01X3232Y14511D01*
G01X3275Y14490D01*
G01X3315Y14450D01*
G01X3334Y14388D01*
G01X3334Y14348D01*
G01X3315Y14286D01*
G01X3275Y14244D01*
G01X3232Y14225D01*
G01X3173Y14225D01*
G01X3128Y14244D01*
G01X3090Y14286D01*
G01X2953Y14653D02*
G01X2953Y14225D01*
G01X2575Y14511D02*
G01X2575Y14225D01*
G01X2575Y14450D02*
G01X2615Y14490D01*
G01X2655Y14511D01*
G01X2719Y14511D01*
G01X2757Y14490D01*
G01X2800Y14450D01*
G01X2821Y14388D01*
G01X2821Y14348D01*
G01X2800Y14286D01*
G01X2757Y14244D01*
G01X2719Y14225D01*
G01X2655Y14225D01*
G01X2615Y14244D01*
G01X2575Y14286D01*
G01X2436Y14653D02*
G01X2436Y14225D01*
G01X2436Y14450D02*
G01X2400Y14490D01*
G01X2355Y14511D01*
G01X2298Y14511D01*
G01X2253Y14490D01*
G01X2211Y14450D01*
G01X2196Y14388D01*
G01X2196Y14348D01*
G01X2211Y14286D01*
G01X2253Y14244D01*
G01X2298Y14225D01*
G01X2355Y14225D01*
G01X2400Y14244D01*
G01X2436Y14286D01*
G01X1955Y14511D02*
G01X1998Y14490D01*
G01X2036Y14450D01*
G01X2057Y14388D01*
G01X2057Y14348D01*
G01X2036Y14286D01*
G01X1998Y14244D01*
G01X1955Y14225D01*
G01X1896Y14225D01*
G01X1853Y14244D01*
G01X1811Y14286D01*
G01X1794Y14348D01*
G01X1794Y14388D01*
G01X1811Y14450D01*
G01X1853Y14490D01*
G01X1896Y14511D01*
G01X1955Y14511D01*
G01X1657Y14511D02*
G01X1657Y14225D01*
G01X1657Y14388D02*
G01X1636Y14450D01*
G01X1598Y14490D01*
G01X1553Y14511D01*
G01X1496Y14511D01*
G01X1111Y14653D02*
G01X1111Y14225D01*
G01X1111Y14450D02*
G01X1153Y14490D01*
G01X1196Y14511D01*
G01X1255Y14511D01*
G01X1300Y14490D01*
G01X1336Y14450D01*
G01X1357Y14388D01*
G01X1357Y14348D01*
G01X1336Y14286D01*
G01X1300Y14244D01*
G01X1255Y14225D01*
G01X1196Y14225D01*
G01X1153Y14244D01*
G01X1111Y14286D01*
G01X732Y14511D02*
G01X732Y14225D01*
G01X732Y14450D02*
G01X775Y14490D01*
G01X815Y14511D01*
G01X876Y14511D01*
G01X919Y14490D01*
G01X957Y14450D01*
G01X978Y14388D01*
G01X978Y14348D01*
G01X957Y14286D01*
G01X919Y14244D01*
G01X876Y14225D01*
G01X815Y14225D01*
G01X775Y14244D01*
G01X732Y14286D01*
G01X13031Y13325D02*
G01X13031Y12671D01*
G01X13356Y12998D02*
G01X12702Y12998D01*
G01X14893Y14269D02*
G01X14893Y13984D01*
G01X14893Y14148D02*
G01X14872Y14209D01*
G01X14831Y14250D01*
G01X14790Y14269D01*
G01X14728Y14269D01*
G01X14593Y14148D02*
G01X14348Y14148D01*
G01X14348Y14188D01*
G01X14368Y14228D01*
G01X14389Y14250D01*
G01X14431Y14269D01*
G01X14492Y14269D01*
G01X14532Y14250D01*
G01X14573Y14209D01*
G01X14593Y14148D01*
G01X14593Y14107D01*
G01X14573Y14044D01*
G01X14532Y14003D01*
G01X14492Y13984D01*
G01X14431Y13984D01*
G01X14389Y14003D01*
G01X14348Y14044D01*
G01X14214Y14269D02*
G01X14090Y13984D01*
G01X13968Y14269D02*
G01X14090Y13984D01*
G01X13813Y14086D02*
G01X13832Y14065D01*
G01X13813Y14044D01*
G01X13793Y14065D01*
G01X13813Y14086D01*
G01X13411Y14413D02*
G01X13617Y14413D01*
G01X13636Y14228D01*
G01X13617Y14250D01*
G01X13555Y14269D01*
G01X13493Y14269D01*
G01X13432Y14250D01*
G01X13392Y14209D01*
G01X13371Y14148D01*
G01X13371Y14107D01*
G01X13392Y14044D01*
G01X13432Y14003D01*
G01X13493Y13984D01*
G01X13555Y13984D01*
G01X13617Y14003D01*
G01X13636Y14025D01*
G01X13657Y14065D01*
G54D15*
G01X11580Y8700D03*
G01X9619Y8700D03*
G54D17*
G01X9200Y9700D03*
G54D18*
G01X9200Y10700D03*
G01X9200Y11700D03*
G01X9200Y12700D03*
G01X6200Y12700D03*
G01X6200Y11700D03*
G01X6200Y10700D03*
G01X6200Y9700D03*
G54D20*
G01X4250Y10900D03*
G01X3400Y10900D03*
G01X2550Y10900D03*
G01X4250Y8900D03*
G01X3400Y8900D03*
G01X2550Y8900D03*
G01X4250Y12900D03*
G01X3400Y12900D03*
G01X2550Y12900D03*
G54D21*
G01X900Y9900D03*
G54D22*
G01X900Y10900D03*
G01X900Y11900D03*
G01X900Y12900D03*
G54D24*
G01X14180Y12280D03*
G01X14180Y10319D03*
G54D20*
G01X11600Y13300D03*
G01X11100Y12550D03*
G01X10600Y13300D03*
G54D15*
G01X11580Y8700D03*
G01X9619Y8700D03*
G54D17*
G01X9200Y9700D03*
G54D18*
G01X9200Y10700D03*
G01X9200Y11700D03*
G01X9200Y12700D03*
G01X6200Y12700D03*
G01X6200Y11700D03*
G01X6200Y10700D03*
G01X6200Y9700D03*
G54D20*
G01X4250Y10900D03*
G01X3400Y10900D03*
G01X2550Y10900D03*
G01X4250Y8900D03*
G01X3400Y8900D03*
G01X2550Y8900D03*
G01X4250Y12900D03*
G01X3400Y12900D03*
G01X2550Y12900D03*
G54D21*
G01X900Y9900D03*
G54D22*
G01X900Y10900D03*
G01X900Y11900D03*
G01X900Y12900D03*
G54D24*
G01X14180Y12280D03*
G01X14180Y10319D03*
G54D20*
G01X11600Y13300D03*
G01X11100Y12550D03*
G01X10600Y13300D03*

M00*
M02*