;PTH Drill file created by EasyEDA 
M48
;Holesize 1 = 0.032 INCH
T01C0.032
;Holesize 2 = 0.028 INCH
T02C0.028
;Holesize 3 = 0.032 INCH
T03C0.032
;Holesize 4 = 0.040 INCH
T04C0.040
;Holesize 5 = 0.055 INCH
T05C0.055
INCH,00.0000
%
G05
G90
T01
X011580Y008700
X009619Y008700
T02
X009200Y009700
X009200Y010700
X009200Y011700
X009200Y012700
X006200Y012700
X006200Y011700
X006200Y010700
X006200Y009700
T03
X004250Y010900
X003400Y010900
X002550Y010900
X004250Y008900
X003400Y008900
X002550Y008900
X004250Y012900
X003400Y012900
X002550Y012900
X011600Y013300
X011100Y012550
X010600Y013300
T04
X000900Y009900
X000900Y010900
X000900Y011900
X000900Y012900
T05
X014180Y012280
X014180Y010319
M30
