G04 ---------------------------- Layer name :TOP LAYER*
G04 easyEDA 0.1*
G04 Scale: 100 percent, Rotated: No, Reflected: No *
G04 Dimensions in inches *
G04 leading zeros omitted , absolute positions ,2 integer and 4 * 
%FSLAX24Y24*%
%MOIN*%
G90*
G70D02*

%ADD10C,0.010000*%
%ADD11C,0.050000*%
%ADD13R,0.055000X0.055000*%
%ADD14C,0.055000*%
%ADD16R,0.066000X0.066000*%
%ADD17R,0.064300X0.064300*%
%ADD18C,0.064300*%
%ADD20R,0.168700X0.093700*%

%LPD*%
%LNVIA PAD TRACK COPPERAREA*%
G54D10*
G01X9200Y11700D02*
G01X8900Y11700D01*
G01X7000Y13600D01*
G01X4100Y13600D01*
G01X3400Y12900D01*
G01X6200Y12700D02*
G01X5000Y12700D01*
G01X3300Y11000D01*
G01X3400Y10900D01*
G01X6200Y11700D02*
G01X3400Y8900D01*
G01X6200Y10700D02*
G01X6000Y10700D01*
G01X5500Y10200D01*
G01X5500Y9000D01*
G01X5800Y8700D01*
G01X9619Y8700D01*
G54D11*
G01X11580Y8700D03*
G01X9619Y8700D03*
G54D13*
G01X9200Y9700D03*
G54D14*
G01X9200Y10700D03*
G01X9200Y11700D03*
G01X9200Y12700D03*
G01X6200Y12700D03*
G01X6200Y11700D03*
G01X6200Y10700D03*
G01X6200Y9700D03*
G54D16*
G01X4250Y10900D03*
G01X3400Y10900D03*
G01X2550Y10900D03*
G01X4250Y8900D03*
G01X3400Y8900D03*
G01X2550Y8900D03*
G01X4250Y12900D03*
G01X3400Y12900D03*
G01X2550Y12900D03*
G54D17*
G01X900Y9900D03*
G54D18*
G01X900Y10900D03*
G01X900Y11900D03*
G01X900Y12900D03*
G54D20*
G01X14180Y12280D03*
G01X14180Y10319D03*
G54D16*
G01X11600Y13300D03*
G01X11100Y12550D03*
G01X10600Y13300D03*
G54D11*
G01X11580Y8700D03*
G01X9619Y8700D03*
G54D13*
G01X9200Y9700D03*
G54D14*
G01X9200Y10700D03*
G01X9200Y11700D03*
G01X9200Y12700D03*
G01X6200Y12700D03*
G01X6200Y11700D03*
G01X6200Y10700D03*
G01X6200Y9700D03*
G54D16*
G01X4250Y10900D03*
G01X3400Y10900D03*
G01X2550Y10900D03*
G01X4250Y8900D03*
G01X3400Y8900D03*
G01X2550Y8900D03*
G01X4250Y12900D03*
G01X3400Y12900D03*
G01X2550Y12900D03*
G54D17*
G01X900Y9900D03*
G54D18*
G01X900Y10900D03*
G01X900Y11900D03*
G01X900Y12900D03*
G54D20*
G01X14180Y12280D03*
G01X14180Y10319D03*
G54D16*
G01X11600Y13300D03*
G01X11100Y12550D03*
G01X10600Y13300D03*

M00*
M02*