solid ascii
  facet normal 1.000000e+000 0.000000e+000 0.000000e+000
    outer loop
      vertex   -2.000679e+001 4.508014e+001 8.000000e+000
      vertex   -2.000679e+001 2.080134e+000 8.000000e+000
      vertex   -2.000679e+001 4.508014e+001 2.000000e+000
    endloop
  endfacet
  facet normal 1.381960e-001 0.000000e+000 0.000000e+000
    outer loop
      vertex   -2.000679e+001 4.508014e+001 2.000000e+000
      vertex   -2.000679e+001 2.080134e+000 8.000000e+000
      vertex   -2.000679e+001 2.080134e+000 2.000000e+000
    endloop
  endfacet
  facet normal -0.000000e+000 1.000000e+000 0.000000e+000
    outer loop
      vertex   -2.000679e+001 2.080134e+000 8.000000e+000
      vertex   -6.786418e-003 2.080134e+000 8.000000e+000
      vertex   -2.000679e+001 2.080134e+000 2.000000e+000
    endloop
  endfacet
  facet normal 0.000000e+000 2.873479e-001 0.000000e+000
    outer loop
      vertex   -2.000679e+001 2.080134e+000 2.000000e+000
      vertex   -6.786418e-003 2.080134e+000 8.000000e+000
      vertex   -6.786418e-003 2.080134e+000 2.000000e+000
    endloop
  endfacet
  facet normal -1.000000e+000 0.000000e+000 0.000000e+000
    outer loop
      vertex   -6.786418e-003 2.080134e+000 8.000000e+000
      vertex   -6.786418e-003 4.508014e+001 8.000000e+000
      vertex   -6.786418e-003 2.080134e+000 2.000000e+000
    endloop
  endfacet
  facet normal -1.381960e-001 0.000000e+000 0.000000e+000
    outer loop
      vertex   -6.786418e-003 2.080134e+000 2.000000e+000
      vertex   -6.786418e-003 4.508014e+001 8.000000e+000
      vertex   -6.786418e-003 4.508014e+001 2.000000e+000
    endloop
  endfacet
  facet normal -0.000000e+000 -1.000000e+000 -0.000000e+000
    outer loop
      vertex   -6.786418e-003 4.508014e+001 8.000000e+000
      vertex   -2.000679e+001 4.508014e+001 8.000000e+000
      vertex   -6.786418e-003 4.508014e+001 2.000000e+000
    endloop
  endfacet
  facet normal 0.000000e+000 -2.873479e-001 0.000000e+000
    outer loop
      vertex   -6.786418e-003 4.508014e+001 2.000000e+000
      vertex   -2.000679e+001 4.508014e+001 8.000000e+000
      vertex   -2.000679e+001 4.508014e+001 2.000000e+000
    endloop
  endfacet
  facet normal 0.000000e+000 0.000000e+000 1.000000e+000
    outer loop
      vertex   -6.786418e-003 4.508014e+001 2.000000e+000
      vertex   -2.000679e+001 4.508014e+001 2.000000e+000
      vertex   -6.786418e-003 2.080134e+000 2.000000e+000
    endloop
  endfacet
  facet normal 0.000000e+000 0.000000e+000 9.067211e-001
    outer loop
      vertex   -6.786418e-003 2.080134e+000 2.000000e+000
      vertex   -2.000679e+001 4.508014e+001 2.000000e+000
      vertex   -2.000679e+001 2.080134e+000 2.000000e+000
    endloop
  endfacet
  facet normal 1.000000e+000 0.000000e+000 0.000000e+000
    outer loop
      vertex   2.000000e+000 0.000000e+000 0.000000e+000
      vertex   2.000000e+000 4.700000e+001 0.000000e+000
      vertex   2.000000e+000 0.000000e+000 8.000000e+000
    endloop
  endfacet
  facet normal 1.677994e-001 -0.000000e+000 0.000000e+000
    outer loop
      vertex   2.000000e+000 0.000000e+000 8.000000e+000
      vertex   2.000000e+000 4.700000e+001 0.000000e+000
      vertex   2.000000e+000 4.700000e+001 8.000000e+000
    endloop
  endfacet
  facet normal 0.000000e+000 -1.000000e+000 0.000000e+000
    outer loop
      vertex   -2.200000e+001 0.000000e+000 0.000000e+000
      vertex   2.000000e+000 0.000000e+000 0.000000e+000
      vertex   -2.200000e+001 0.000000e+000 8.000000e+000
    endloop
  endfacet
  facet normal 0.000000e+000 -3.162278e-001 0.000000e+000
    outer loop
      vertex   -2.200000e+001 0.000000e+000 8.000000e+000
      vertex   2.000000e+000 0.000000e+000 0.000000e+000
      vertex   2.000000e+000 0.000000e+000 8.000000e+000
    endloop
  endfacet
  facet normal -1.000000e+000 0.000000e+000 0.000000e+000
    outer loop
      vertex   -2.200000e+001 4.700000e+001 0.000000e+000
      vertex   -2.200000e+001 0.000000e+000 0.000000e+000
      vertex   -2.200000e+001 4.700000e+001 8.000000e+000
    endloop
  endfacet
  facet normal -1.677994e-001 -0.000000e+000 0.000000e+000
    outer loop
      vertex   -2.200000e+001 4.700000e+001 8.000000e+000
      vertex   -2.200000e+001 0.000000e+000 0.000000e+000
      vertex   -2.200000e+001 0.000000e+000 8.000000e+000
    endloop
  endfacet
  facet normal 0.000000e+000 1.000000e+000 -0.000000e+000
    outer loop
      vertex   2.000000e+000 4.700000e+001 0.000000e+000
      vertex   -2.200000e+001 4.700000e+001 0.000000e+000
      vertex   2.000000e+000 4.700000e+001 8.000000e+000
    endloop
  endfacet
  facet normal 0.000000e+000 3.162278e-001 0.000000e+000
    outer loop
      vertex   2.000000e+000 4.700000e+001 8.000000e+000
      vertex   -2.200000e+001 4.700000e+001 0.000000e+000
      vertex   -2.200000e+001 4.700000e+001 8.000000e+000
    endloop
  endfacet
  facet normal 0.000000e+000 0.000000e+000 7.202347e-001
    outer loop
      vertex   -2.000679e+001 4.508014e+001 8.000000e+000
      vertex   -2.200000e+001 4.700000e+001 8.000000e+000
      vertex   -2.000679e+001 2.080134e+000 8.000000e+000
    endloop
  endfacet
  facet normal 0.000000e+000 0.000000e+000 7.231874e-001
    outer loop
      vertex   -2.000679e+001 2.080134e+000 8.000000e+000
      vertex   -2.200000e+001 4.700000e+001 8.000000e+000
      vertex   -2.200000e+001 0.000000e+000 8.000000e+000
    endloop
  endfacet
  facet normal -0.000000e+000 0.000000e+000 7.220312e-001
    outer loop
      vertex   -2.000679e+001 2.080134e+000 8.000000e+000
      vertex   -2.200000e+001 0.000000e+000 8.000000e+000
      vertex   -6.786418e-003 2.080134e+000 8.000000e+000
    endloop
  endfacet
  facet normal 0.000000e+000 0.000000e+000 7.818598e-001
    outer loop
      vertex   -6.786418e-003 2.080134e+000 8.000000e+000
      vertex   -2.200000e+001 0.000000e+000 8.000000e+000
      vertex   2.000000e+000 0.000000e+000 8.000000e+000
    endloop
  endfacet
  facet normal -0.000000e+000 0.000000e+000 7.257324e-001
    outer loop
      vertex   -6.786418e-003 2.080134e+000 8.000000e+000
      vertex   2.000000e+000 0.000000e+000 8.000000e+000
      vertex   2.000000e+000 4.700000e+001 8.000000e+000
    endloop
  endfacet
  facet normal 0.000000e+000 -0.000000e+000 6.937305e-001
    outer loop
      vertex   -2.000679e+001 4.508014e+001 8.000000e+000
      vertex   -6.786418e-003 4.508014e+001 8.000000e+000
      vertex   -2.200000e+001 4.700000e+001 8.000000e+000
    endloop
  endfacet
  facet normal -0.000000e+000 0.000000e+000 8.696280e-002
    outer loop
      vertex   -2.200000e+001 4.700000e+001 8.000000e+000
      vertex   -6.786418e-003 4.508014e+001 8.000000e+000
      vertex   2.000000e+000 4.700000e+001 8.000000e+000
    endloop
  endfacet
  facet normal 0.000000e+000 0.000000e+000 6.910103e-001
    outer loop
      vertex   2.000000e+000 4.700000e+001 8.000000e+000
      vertex   -6.786418e-003 4.508014e+001 8.000000e+000
      vertex   -6.786418e-003 2.080134e+000 8.000000e+000
    endloop
  endfacet
  facet normal 0.000000e+000 0.000000e+000 -1.000000e+000
    outer loop
      vertex   -2.200000e+001 4.700000e+001 0.000000e+000
      vertex   2.000000e+000 4.700000e+001 0.000000e+000
      vertex   -2.200000e+001 0.000000e+000 0.000000e+000
    endloop
  endfacet
  facet normal 0.000000e+000 0.000000e+000 -8.906053e-001
    outer loop
      vertex   -2.200000e+001 0.000000e+000 0.000000e+000
      vertex   2.000000e+000 4.700000e+001 0.000000e+000
      vertex   2.000000e+000 0.000000e+000 0.000000e+000
    endloop
  endfacet
endsolid
